<svg width="1100" height="596" viewBox="0 0 1100 596" fill="none" xmlns="http://www.w3.org/2000/svg">
<rect width="1100" height="45" rx="8" fill="#EEEEEE"/>
<path d="M525.891 29.26C522.631 29.26 520.411 27.48 520.411 22.68V14.28H522.731V22.84C522.731 26.16 524.071 27.24 525.891 27.24C527.751 27.24 529.111 26.16 529.111 22.84V14.28H531.351V22.68C531.351 27.48 529.171 29.26 525.891 29.26ZM536.899 13.34V15.82H534.539V13.34H536.899ZM534.559 29V18H536.839V29H534.559ZM540.095 14.28H544.555C547.835 14.28 550.175 15.42 550.175 18.72C550.175 21.94 547.835 23.42 544.635 23.42H542.415V29H540.095V14.28ZM544.415 21.56C546.835 21.56 547.895 20.66 547.895 18.72C547.895 16.78 546.675 16.14 544.335 16.14H542.415V21.56H544.415ZM554.446 29.26C552.546 29.26 551.206 28.02 551.206 26.08C551.206 24.86 551.606 23.66 552.746 22.96C553.866 22.34 555.526 22.16 557.786 22C557.786 20.7 557.306 19.6 555.686 19.6C554.486 19.6 553.306 20.14 552.366 20.76L551.686 19.08C552.826 18.36 554.326 17.72 556.086 17.72C558.826 17.72 560.086 19.4 560.086 22.38V29H558.206L558.006 27.8H557.946C556.926 28.66 555.806 29.26 554.446 29.26ZM555.146 27.44C556.106 27.44 556.886 27.04 557.786 26.22V23.5C555.666 23.76 554.626 23.76 553.926 24.4C553.346 24.94 553.426 25.46 553.426 25.92C553.426 27.04 554.166 27.44 555.146 27.44ZM566.618 29.26C564.138 29.26 563.278 27.72 563.278 25.4V19.84H561.678V18.12L563.378 18L563.638 14.96H565.578V18H568.438V19.84H565.578V25.42C565.578 26.78 566.038 27.42 567.178 27.42C567.558 27.42 568.038 27.3 568.358 27.16L568.778 28.86C568.158 29.08 567.418 29.26 566.618 29.26ZM570.767 13.06H573.047V17.28L572.967 19.46C573.927 18.52 575.007 17.72 576.527 17.72C578.867 17.72 579.907 19.26 579.907 22.08V29H577.607V22.36C577.607 20.44 577.047 19.7 575.747 19.7C574.727 19.7 574.027 20.22 573.047 21.2V29H570.767V13.06Z" fill="#12A4C5"/>
<rect x="68" y="59" width="296.333" height="43" rx="8" fill="#12A4C5"/>
<path d="M177.959 73.28H181.779C186.399 73.28 188.879 75.7 188.879 80.58C188.879 85.36 186.299 88 181.899 88H177.959V73.28ZM181.619 86.1C184.839 86.1 186.479 84.34 186.479 80.58C186.479 76.88 184.799 75.16 181.619 75.16H180.279V86.1H181.619ZM193.683 72.34V74.82H191.323V72.34H193.683ZM191.343 88V77H193.623V88H191.343ZM199.679 88.26C198.159 88.26 196.599 87.62 195.539 86.74L196.619 85.26C197.599 86.04 198.539 86.52 199.739 86.52C201.099 86.52 201.679 85.9 201.679 85.04C201.679 84.02 200.439 83.62 199.239 83.14C197.799 82.56 196.099 81.82 196.099 79.94C196.099 78.1 197.579 76.72 199.999 76.72C201.519 76.72 202.679 77.32 203.579 78.02L202.499 79.44C201.719 78.88 200.979 78.48 200.039 78.48C198.839 78.48 198.279 79.06 198.279 79.84C198.279 80.78 199.419 81.14 200.619 81.58C202.159 82.16 203.859 82.84 203.859 84.92C203.859 86.76 202.399 88.26 199.679 88.26ZM210.689 88.26C207.709 88.26 205.429 86.14 205.429 82.52C205.429 78.84 207.969 76.72 210.869 76.72C212.309 76.72 213.289 77.28 214.089 77.98L212.949 79.48C212.329 78.94 211.749 78.62 210.969 78.62C209.149 78.62 207.809 80.18 207.809 82.52C207.809 84.84 209.069 86.38 210.909 86.38C211.849 86.38 212.649 85.94 213.309 85.38L214.249 86.9C213.229 87.8 211.969 88.26 210.689 88.26ZM220.313 88.26C217.593 88.26 215.133 86.14 215.133 82.52C215.133 78.84 217.593 76.72 220.313 76.72C223.033 76.72 225.493 78.84 225.493 82.52C225.493 86.14 223.033 88.26 220.313 88.26ZM220.313 86.38C222.053 86.38 223.133 84.84 223.133 82.52C223.133 80.18 222.073 78.62 220.313 78.62C218.553 78.62 217.513 80.18 217.513 82.52C217.513 84.84 218.613 86.38 220.313 86.38ZM226.501 77H228.861L230.741 82.92C231.041 84.04 231.381 85.08 231.701 86.2H231.781C232.101 85.08 232.441 84.04 232.741 82.92L234.621 77H236.861L233.061 88H230.401L226.501 77ZM243.223 88.26C240.243 88.26 237.863 86.14 237.863 82.52C237.863 78.92 240.303 76.72 242.883 76.72C245.803 76.72 247.363 78.82 247.363 81.94C247.363 82.42 247.323 82.8 247.263 83.1H240.123C240.303 85.2 241.603 86.46 243.523 86.46C244.503 86.46 245.343 86.18 246.143 85.64L246.943 87.1C245.923 87.8 244.663 88.26 243.223 88.26ZM245.383 81.52C245.383 79.6 244.523 78.52 242.923 78.52C241.563 78.52 240.323 79.6 240.103 81.52H245.383ZM249.851 77H251.731L251.911 78.98H251.971C252.751 77.54 253.891 76.72 255.091 76.72C255.631 76.72 255.991 76.8 256.331 76.96L255.911 78.96C255.531 78.82 255.271 78.78 254.811 78.78C253.911 78.78 252.831 79.4 252.131 81.14V88H249.851V77Z" fill="white"/>
<rect x="402.333" y="59" width="296.333" height="43" rx="8" fill="#12A4C5"/>
<path d="M512.802 83.8H507.682L506.422 88H504.062L508.942 73.28H511.622L516.502 88H514.042L512.802 83.8ZM512.242 81.98L511.662 80C511.162 78.4 510.722 76.78 510.262 75.1H510.182C509.762 76.78 509.302 78.4 508.822 80L508.222 81.98H512.242ZM521.247 88.26C518.907 88.26 517.887 86.74 517.887 83.92V77H520.187V83.64C520.187 85.56 520.727 86.28 522.027 86.28C523.047 86.28 523.767 85.78 524.667 84.64V77H526.967V88H525.087L524.907 86.34H524.847C523.827 87.54 522.767 88.26 521.247 88.26ZM534.029 88.26C531.549 88.26 530.689 86.72 530.689 84.4V78.84H529.089V77.12L530.789 77L531.049 73.96H532.989V77H535.849V78.84H532.989V84.42C532.989 85.78 533.449 86.42 534.589 86.42C534.969 86.42 535.449 86.3 535.769 86.16L536.189 87.86C535.569 88.08 534.829 88.26 534.029 88.26ZM542.247 88.26C539.527 88.26 537.067 86.14 537.067 82.52C537.067 78.84 539.527 76.72 542.247 76.72C544.967 76.72 547.427 78.84 547.427 82.52C547.427 86.14 544.967 88.26 542.247 88.26ZM542.247 86.38C543.987 86.38 545.067 84.84 545.067 82.52C545.067 80.18 544.007 78.62 542.247 78.62C540.487 78.62 539.447 80.18 539.447 82.52C539.447 84.84 540.547 86.38 542.247 86.38ZM550.032 77H551.912L552.092 78.54H552.152C553.092 77.52 554.192 76.72 555.552 76.72C557.232 76.72 558.112 77.46 558.592 78.74C559.712 77.54 560.792 76.72 562.172 76.72C564.512 76.72 565.552 78.26 565.552 81.08V88H563.252V81.36C563.252 79.44 562.692 78.7 561.412 78.7C560.672 78.7 559.852 79.2 558.932 80.2V88H556.632V81.36C556.632 79.44 556.072 78.7 554.792 78.7C554.052 78.7 553.232 79.2 552.312 80.2V88H550.032V77ZM571.359 88.26C569.459 88.26 568.119 87.02 568.119 85.08C568.119 83.86 568.519 82.66 569.659 81.96C570.779 81.34 572.439 81.16 574.699 81C574.699 79.7 574.219 78.6 572.599 78.6C571.399 78.6 570.219 79.14 569.279 79.76L568.599 78.08C569.739 77.36 571.239 76.72 572.999 76.72C575.739 76.72 576.999 78.4 576.999 81.38V88H575.119L574.919 86.8H574.859C573.839 87.66 572.719 88.26 571.359 88.26ZM572.059 86.44C573.019 86.44 573.799 86.04 574.699 85.22V82.5C572.579 82.76 571.539 82.76 570.839 83.4C570.259 83.94 570.339 84.46 570.339 84.92C570.339 86.04 571.079 86.44 572.059 86.44ZM583.531 88.26C581.051 88.26 580.191 86.72 580.191 84.4V78.84H578.591V77.12L580.291 77L580.551 73.96H582.491V77H585.351V78.84H582.491V84.42C582.491 85.78 582.951 86.42 584.091 86.42C584.471 86.42 584.951 86.3 585.271 86.16L585.691 87.86C585.071 88.08 584.331 88.26 583.531 88.26ZM591.909 88.26C588.929 88.26 586.549 86.14 586.549 82.52C586.549 78.92 588.989 76.72 591.569 76.72C594.489 76.72 596.049 78.82 596.049 81.94C596.049 82.42 596.009 82.8 595.949 83.1H588.809C588.989 85.2 590.289 86.46 592.209 86.46C593.189 86.46 594.029 86.18 594.829 85.64L595.629 87.1C594.609 87.8 593.349 88.26 591.909 88.26ZM594.069 81.52C594.069 79.6 593.209 78.52 591.609 78.52C590.249 78.52 589.009 79.6 588.789 81.52H594.069Z" fill="white"/>
<rect x="736.667" y="59" width="296.333" height="43" rx="8" fill="#12A4C5"/>
<path d="M854.333 88.26C850.553 88.26 847.933 85.32 847.933 80.58C847.933 75.84 850.553 73 854.333 73C858.113 73 860.753 75.84 860.753 80.58C860.753 85.32 858.113 88.26 854.333 88.26ZM854.333 86.24C856.773 86.24 858.373 84.04 858.373 80.58C858.373 77.12 856.773 75.02 854.333 75.02C851.893 75.02 850.313 77.12 850.313 80.58C850.313 84.04 851.893 86.24 854.333 86.24ZM863.511 77H865.391L865.571 78.2H865.631C866.591 77.4 867.791 76.72 869.011 76.72C871.811 76.72 873.371 78.94 873.371 82.32C873.371 86.08 871.111 88.26 868.631 88.26C867.651 88.26 866.671 87.82 865.731 87.02L865.791 88.9V92.46H863.511V77ZM868.191 86.36C869.791 86.36 870.991 84.94 870.991 82.36C870.991 80.02 870.251 78.64 868.411 78.64C867.551 78.64 866.731 79.08 865.791 79.98V85.36C866.651 86.1 867.491 86.36 868.191 86.36ZM880.569 88.26C877.589 88.26 875.209 86.14 875.209 82.52C875.209 78.92 877.649 76.72 880.229 76.72C883.149 76.72 884.709 78.82 884.709 81.94C884.709 82.42 884.669 82.8 884.609 83.1H877.469C877.649 85.2 878.949 86.46 880.869 86.46C881.849 86.46 882.689 86.18 883.489 85.64L884.289 87.1C883.269 87.8 882.009 88.26 880.569 88.26ZM882.729 81.52C882.729 79.6 881.869 78.52 880.269 78.52C878.909 78.52 877.669 79.6 877.449 81.52H882.729ZM887.198 77H889.078L889.258 78.98H889.318C890.098 77.54 891.238 76.72 892.438 76.72C892.978 76.72 893.338 76.8 893.678 76.96L893.258 78.96C892.878 78.82 892.618 78.78 892.158 78.78C891.258 78.78 890.178 79.4 889.478 81.14V88H887.198V77ZM897.315 88.26C895.415 88.26 894.075 87.02 894.075 85.08C894.075 83.86 894.475 82.66 895.615 81.96C896.735 81.34 898.395 81.16 900.655 81C900.655 79.7 900.175 78.6 898.555 78.6C897.355 78.6 896.175 79.14 895.235 79.76L894.555 78.08C895.695 77.36 897.195 76.72 898.955 76.72C901.695 76.72 902.955 78.4 902.955 81.38V88H901.075L900.875 86.8H900.815C899.795 87.66 898.675 88.26 897.315 88.26ZM898.015 86.44C898.975 86.44 899.755 86.04 900.655 85.22V82.5C898.535 82.76 897.495 82.76 896.795 83.4C896.215 83.94 896.295 84.46 896.295 84.92C896.295 86.04 897.035 86.44 898.015 86.44ZM909.487 88.26C907.007 88.26 906.147 86.72 906.147 84.4V78.84H904.547V77.12L906.247 77L906.507 73.96H908.447V77H911.307V78.84H908.447V84.42C908.447 85.78 908.907 86.42 910.047 86.42C910.427 86.42 910.907 86.3 911.227 86.16L911.647 87.86C911.027 88.08 910.287 88.26 909.487 88.26ZM917.864 88.26C914.884 88.26 912.504 86.14 912.504 82.52C912.504 78.92 914.944 76.72 917.524 76.72C920.444 76.72 922.004 78.82 922.004 81.94C922.004 82.42 921.964 82.8 921.904 83.1H914.764C914.944 85.2 916.244 86.46 918.164 86.46C919.144 86.46 919.984 86.18 920.784 85.64L921.584 87.1C920.564 87.8 919.304 88.26 917.864 88.26ZM920.024 81.52C920.024 79.6 919.164 78.52 917.564 78.52C916.204 78.52 914.964 79.6 914.744 81.52H920.024Z" fill="white"/>
<rect x="68.5" y="116.5" width="295" height="39" rx="7.5" stroke="#12A4C5"/>
<path d="M173.654 131.52V130.272H182.246V131.52H178.694V142H177.206V131.52H173.654ZM184.815 142.208C183.359 142.208 182.287 141.248 182.287 139.664C182.287 137.424 184.191 136.544 187.631 136.496C187.631 135.376 187.263 134.304 185.839 134.304C184.815 134.304 183.839 134.688 183.151 135.152L182.575 134.112C183.391 133.6 184.671 133.088 186.079 133.088C188.191 133.088 189.087 134.528 189.087 136.656V142H187.887L187.759 141.072H187.711C186.879 141.76 185.903 142.208 184.815 142.208ZM185.231 141.04C186.079 141.04 186.783 140.784 187.631 140.032V137.456C184.543 137.664 183.711 138.224 183.711 139.568C183.711 140.592 184.335 141.04 185.231 141.04ZM194.054 142.208C192.822 142.208 191.638 141.696 190.806 141.008L191.526 140.048C192.278 140.672 193.062 141.072 194.102 141.072C195.254 141.072 195.814 140.464 195.814 139.712C195.814 138.832 194.79 138.448 193.83 138.064C192.614 137.632 191.238 137.008 191.238 135.552C191.238 134.192 192.342 133.088 194.23 133.088C195.318 133.088 196.246 133.536 196.934 134.064L196.23 135.008C195.606 134.56 195.014 134.24 194.23 134.24C193.142 134.24 192.646 134.8 192.646 135.488C192.646 136.32 193.59 136.608 194.566 136.992C195.83 137.456 197.222 138 197.222 139.632C197.222 141.04 196.102 142.208 194.054 142.208ZM200.627 129.264V137.904H200.659L204.387 133.312H206.003L203.091 136.8L206.387 142H204.803L202.259 137.808L200.627 139.712V142H199.187V129.264H200.627ZM213.353 130.272L215.609 136.544C215.881 137.36 216.137 138.176 216.441 138.992H216.521C216.793 138.176 217.049 137.36 217.321 136.544L219.561 130.272H221.353V142H219.961V135.504C219.961 134.496 220.073 133.088 220.153 132.048H220.089L219.161 134.72L216.937 140.816H215.945L213.721 134.72L212.793 132.048H212.729C212.777 133.088 212.905 134.496 212.905 135.504V142H211.561V130.272H213.353ZM224.065 133.312H225.521V142H224.065V133.312ZM224.081 131.52V130.016H225.537V131.52H224.081ZM229.317 133.312L229.445 134.56H229.493C230.325 133.744 231.205 133.088 232.405 133.088C234.277 133.088 235.061 134.24 235.061 136.496V142H233.605V136.688C233.605 135.024 233.109 134.368 231.957 134.368C231.061 134.368 230.453 134.816 229.573 135.696V142H228.117V133.312H229.317ZM237.546 133.312H239.002V142H237.546V133.312ZM237.562 131.52V130.016H239.018V131.52H237.562ZM242.797 133.312L242.925 134.56H242.973C243.805 133.744 244.685 133.088 245.885 133.088C247.757 133.088 248.541 134.24 248.541 136.496V142H247.085V136.688C247.085 135.024 246.589 134.368 245.437 134.368C244.541 134.368 243.933 134.816 243.053 135.696V142H241.597V133.312H242.797ZM254.227 146C252.099 146 250.627 145.168 250.627 143.664C250.627 142.912 251.107 142.224 251.923 141.696V141.632C251.459 141.36 251.123 140.896 251.123 140.208C251.123 139.488 251.651 138.912 252.099 138.592V138.528C251.523 138.064 250.963 137.232 250.963 136.192C250.963 134.288 252.483 133.088 254.227 133.088C254.723 133.088 255.139 133.2 255.443 133.312H258.467V134.432H256.691C257.123 134.832 257.395 135.472 257.395 136.224C257.395 138.08 255.971 139.248 254.227 139.248C253.763 139.248 253.331 139.152 252.931 138.944C252.611 139.216 252.371 139.488 252.371 139.984C252.371 140.544 252.723 140.928 253.891 140.928H255.587C257.651 140.928 258.611 141.568 258.611 142.992C258.611 144.608 256.915 146 254.227 146ZM254.227 138.256C255.203 138.256 256.067 137.456 256.067 136.192C256.067 134.912 255.251 134.16 254.227 134.16C253.203 134.16 252.371 134.912 252.371 136.192C252.371 137.456 253.219 138.256 254.227 138.256ZM254.435 145.008C256.099 145.008 257.203 144.128 257.203 143.216C257.203 142.4 256.579 142.144 255.427 142.144H253.923C253.603 142.144 253.187 142.112 252.803 142C252.179 142.448 251.907 142.96 251.907 143.472C251.907 144.432 252.835 145.008 254.435 145.008Z" fill="#222222"/>
<rect x="402.5" y="116.5" width="296" height="39" rx="7.5" stroke="#12A4C5"/>
<path d="M507.559 142.208C505.175 142.208 503.351 140.928 503.351 137.152V130.272H504.839V137.2C504.839 140.016 506.023 140.912 507.559 140.912C509.143 140.912 510.359 140.016 510.359 137.2V130.272H511.783V137.152C511.783 140.928 509.959 142.208 507.559 142.208ZM514.451 133.312H515.907V142H514.451V133.312ZM514.467 131.52V130.016H515.923V131.52H514.467ZM521.974 130.272C524.598 130.272 526.374 131.152 526.374 133.712C526.374 136.208 524.614 137.344 522.054 137.344H520.118V142H518.63V130.272H521.974ZM521.862 136.144C523.926 136.144 524.902 135.392 524.902 133.712C524.902 132.032 523.862 131.472 521.798 131.472H520.118V136.144H521.862ZM529.75 142.208C528.294 142.208 527.222 141.248 527.222 139.664C527.222 137.424 529.126 136.544 532.566 136.496C532.566 135.376 532.198 134.304 530.774 134.304C529.75 134.304 528.774 134.688 528.086 135.152L527.51 134.112C528.326 133.6 529.606 133.088 531.014 133.088C533.126 133.088 534.022 134.528 534.022 136.656V142H532.822L532.694 141.072H532.646C531.814 141.76 530.838 142.208 529.75 142.208ZM530.166 141.04C531.014 141.04 531.718 140.784 532.566 140.032V137.456C529.478 137.664 528.646 138.224 528.646 139.568C528.646 140.592 529.27 141.04 530.166 141.04ZM539.453 142.208C537.597 142.208 536.973 141.056 536.973 139.312V134.496H535.677V133.392L537.037 133.312L537.213 130.88H538.429V133.312H540.781V134.496H538.429V139.344C538.429 140.432 538.749 141.024 539.773 141.024C540.077 141.024 540.461 140.912 540.765 140.8L541.053 141.888C540.557 142.064 539.981 142.208 539.453 142.208ZM544.124 129.264V132.752L544.076 134.544C544.892 133.728 545.756 133.088 546.956 133.088C548.828 133.088 549.612 134.24 549.612 136.496V142H548.156V136.688C548.156 135.024 547.66 134.368 546.508 134.368C545.612 134.368 545.004 134.816 544.124 135.696V142H542.668V129.264H544.124ZM559.533 137.024H557.421V142H555.933V130.272H559.613C561.997 130.272 563.709 131.12 563.709 133.568C563.709 135.44 562.653 136.48 561.053 136.864L564.061 142H562.381L559.533 137.024ZM559.389 135.824C561.261 135.824 562.237 135.104 562.237 133.568C562.237 132.016 561.261 131.472 559.389 131.472H557.421V135.824H559.389ZM569.257 142.208C567.129 142.208 565.225 140.544 565.225 137.664C565.225 134.768 567.129 133.088 569.257 133.088C571.385 133.088 573.289 134.768 573.289 137.664C573.289 140.544 571.385 142.208 569.257 142.208ZM569.257 140.992C570.745 140.992 571.785 139.664 571.785 137.664C571.785 135.664 570.745 134.304 569.257 134.304C567.769 134.304 566.745 135.664 566.745 137.664C566.745 139.664 567.769 140.992 569.257 140.992ZM579.329 142.208C578.513 142.208 577.617 141.808 576.849 141.104H576.801L576.673 142H575.505V129.264H576.961V132.752L576.913 134.32C577.697 133.632 578.673 133.088 579.633 133.088C581.889 133.088 583.105 134.864 583.105 137.504C583.105 140.512 581.313 142.208 579.329 142.208ZM579.089 140.992C580.545 140.992 581.585 139.696 581.585 137.536C581.585 135.616 580.945 134.32 579.297 134.32C578.545 134.32 577.793 134.736 576.961 135.52V140.08C577.729 140.768 578.513 140.992 579.089 140.992ZM588.691 142.208C586.563 142.208 584.659 140.544 584.659 137.664C584.659 134.768 586.563 133.088 588.691 133.088C590.819 133.088 592.723 134.768 592.723 137.664C592.723 140.544 590.819 142.208 588.691 142.208ZM588.691 140.992C590.179 140.992 591.219 139.664 591.219 137.664C591.219 135.664 590.179 134.304 588.691 134.304C587.203 134.304 586.179 135.664 586.179 137.664C586.179 139.664 587.203 140.992 588.691 140.992ZM597.377 142.208C595.521 142.208 594.897 141.056 594.897 139.312V134.496H593.601V133.392L594.961 133.312L595.137 130.88H596.353V133.312H598.705V134.496H596.353V139.344C596.353 140.432 596.673 141.024 597.697 141.024C598.001 141.024 598.385 140.912 598.689 140.8L598.977 141.888C598.481 142.064 597.905 142.208 597.377 142.208Z" fill="#222222"/>
<rect x="737.5" y="116.5" width="295" height="39" rx="7.5" stroke="#12A4C5"/>
<path d="M817.589 142.208C815.205 142.208 813.381 140.928 813.381 137.152V130.272H814.869V137.2C814.869 140.016 816.053 140.912 817.589 140.912C819.173 140.912 820.389 140.016 820.389 137.2V130.272H821.813V137.152C821.813 140.928 819.989 142.208 817.589 142.208ZM824.481 133.312H825.937V142H824.481V133.312ZM824.497 131.52V130.016H825.953V131.52H824.497ZM832.004 130.272C834.628 130.272 836.404 131.152 836.404 133.712C836.404 136.208 834.644 137.344 832.084 137.344H830.148V142H828.66V130.272H832.004ZM831.892 136.144C833.956 136.144 834.932 135.392 834.932 133.712C834.932 132.032 833.892 131.472 831.828 131.472H830.148V136.144H831.892ZM839.78 142.208C838.324 142.208 837.252 141.248 837.252 139.664C837.252 137.424 839.156 136.544 842.596 136.496C842.596 135.376 842.228 134.304 840.804 134.304C839.78 134.304 838.804 134.688 838.116 135.152L837.54 134.112C838.356 133.6 839.636 133.088 841.044 133.088C843.156 133.088 844.052 134.528 844.052 136.656V142H842.852L842.724 141.072H842.676C841.844 141.76 840.868 142.208 839.78 142.208ZM840.196 141.04C841.044 141.04 841.748 140.784 842.596 140.032V137.456C839.508 137.664 838.676 138.224 838.676 139.568C838.676 140.592 839.3 141.04 840.196 141.04ZM849.483 142.208C847.627 142.208 847.003 141.056 847.003 139.312V134.496H845.707V133.392L847.067 133.312L847.243 130.88H848.459V133.312H850.811V134.496H848.459V139.344C848.459 140.432 848.779 141.024 849.803 141.024C850.107 141.024 850.491 140.912 850.795 140.8L851.083 141.888C850.587 142.064 850.011 142.208 849.483 142.208ZM854.154 129.264V132.752L854.106 134.544C854.922 133.728 855.786 133.088 856.986 133.088C858.858 133.088 859.642 134.24 859.642 136.496V142H858.186V136.688C858.186 135.024 857.69 134.368 856.538 134.368C855.642 134.368 855.034 134.816 854.154 135.696V142H852.698V129.264H854.154ZM870.299 142.208C867.355 142.208 865.291 139.872 865.291 136.096C865.291 132.336 867.355 130.048 870.299 130.048C873.243 130.048 875.307 132.336 875.307 136.096C875.307 139.872 873.243 142.208 870.299 142.208ZM870.299 140.912C872.411 140.912 873.787 139.024 873.787 136.096C873.787 133.152 872.411 131.344 870.299 131.344C868.187 131.344 866.811 133.152 866.811 136.096C866.811 139.024 868.187 140.912 870.299 140.912ZM878.83 133.312L878.958 134.896H879.006C879.63 133.792 880.494 133.088 881.47 133.088C881.854 133.088 882.126 133.136 882.398 133.28L882.126 134.56C881.822 134.448 881.646 134.416 881.278 134.416C880.574 134.416 879.646 134.928 879.086 136.416V142H877.63V133.312H878.83ZM887.177 142.208C884.873 142.208 883.097 140.544 883.097 137.664C883.097 134.768 885.065 133.088 887.289 133.088C888.441 133.088 889.209 133.552 889.833 134.112L889.081 135.088C888.569 134.624 888.041 134.304 887.337 134.304C885.769 134.304 884.617 135.664 884.617 137.664C884.617 139.664 885.705 140.992 887.305 140.992C888.121 140.992 888.793 140.624 889.353 140.128L889.977 141.104C889.209 141.808 888.217 142.208 887.177 142.208ZM893.27 129.264V132.752L893.222 134.544C894.038 133.728 894.902 133.088 896.102 133.088C897.974 133.088 898.758 134.24 898.758 136.496V142H897.302V136.688C897.302 135.024 896.806 134.368 895.654 134.368C894.758 134.368 894.15 134.816 893.27 135.696V142H891.814V129.264H893.27ZM904.957 142.208C902.653 142.208 900.797 140.544 900.797 137.664C900.797 134.848 902.701 133.088 904.717 133.088C906.925 133.088 908.173 134.688 908.173 137.168C908.173 137.488 908.157 137.792 908.109 138H902.253C902.365 139.872 903.469 141.04 905.133 141.04C905.981 141.04 906.669 140.784 907.309 140.352L907.837 141.312C907.069 141.808 906.173 142.208 904.957 142.208ZM906.893 136.96C906.893 135.152 906.093 134.256 904.733 134.256C903.501 134.256 902.413 135.248 902.237 136.96H906.893ZM912.504 142.208C911.272 142.208 910.088 141.696 909.256 141.008L909.976 140.048C910.728 140.672 911.512 141.072 912.552 141.072C913.704 141.072 914.264 140.464 914.264 139.712C914.264 138.832 913.24 138.448 912.28 138.064C911.064 137.632 909.688 137.008 909.688 135.552C909.688 134.192 910.792 133.088 912.68 133.088C913.768 133.088 914.696 133.536 915.384 134.064L914.68 135.008C914.056 134.56 913.464 134.24 912.68 134.24C911.592 134.24 911.096 134.8 911.096 135.488C911.096 136.32 912.04 136.608 913.016 136.992C914.28 137.456 915.672 138 915.672 139.632C915.672 141.04 914.552 142.208 912.504 142.208ZM920.013 142.208C918.157 142.208 917.533 141.056 917.533 139.312V134.496H916.237V133.392L917.597 133.312L917.773 130.88H918.989V133.312H921.341V134.496H918.989V139.344C918.989 140.432 919.309 141.024 920.333 141.024C920.637 141.024 921.021 140.912 921.325 140.8L921.613 141.888C921.117 142.064 920.541 142.208 920.013 142.208ZM924.428 133.312L924.556 134.896H924.604C925.228 133.792 926.092 133.088 927.068 133.088C927.452 133.088 927.724 133.136 927.996 133.28L927.724 134.56C927.42 134.448 927.244 134.416 926.876 134.416C926.172 134.416 925.244 134.928 924.684 136.416V142H923.228V133.312H924.428ZM930.898 142.208C929.442 142.208 928.37 141.248 928.37 139.664C928.37 137.424 930.274 136.544 933.714 136.496C933.714 135.376 933.346 134.304 931.922 134.304C930.898 134.304 929.922 134.688 929.234 135.152L928.658 134.112C929.474 133.6 930.754 133.088 932.162 133.088C934.274 133.088 935.17 134.528 935.17 136.656V142H933.97L933.842 141.072H933.794C932.962 141.76 931.986 142.208 930.898 142.208ZM931.314 141.04C932.162 141.04 932.866 140.784 933.714 140.032V137.456C930.626 137.664 929.794 138.224 929.794 139.568C929.794 140.592 930.418 141.04 931.314 141.04ZM940.601 142.208C938.745 142.208 938.121 141.056 938.121 139.312V134.496H936.825V133.392L938.185 133.312L938.361 130.88H939.577V133.312H941.929V134.496H939.577V139.344C939.577 140.432 939.897 141.024 940.921 141.024C941.225 141.024 941.609 140.912 941.913 140.8L942.201 141.888C941.705 142.064 941.129 142.208 940.601 142.208ZM947.192 142.208C945.064 142.208 943.16 140.544 943.16 137.664C943.16 134.768 945.064 133.088 947.192 133.088C949.32 133.088 951.224 134.768 951.224 137.664C951.224 140.544 949.32 142.208 947.192 142.208ZM947.192 140.992C948.68 140.992 949.72 139.664 949.72 137.664C949.72 135.664 948.68 134.304 947.192 134.304C945.704 134.304 944.68 135.664 944.68 137.664C944.68 139.664 945.704 140.992 947.192 140.992ZM954.639 133.312L954.767 134.896H954.815C955.439 133.792 956.303 133.088 957.279 133.088C957.663 133.088 957.935 133.136 958.207 133.28L957.935 134.56C957.631 134.448 957.455 134.416 957.087 134.416C956.383 134.416 955.455 134.928 954.895 136.416V142H953.439V133.312H954.639Z" fill="#222222"/>
<rect x="68.5" y="170.5" width="296" height="39" rx="7.5" stroke="#12A4C5"/>
<path d="M166.737 184.272C169.361 184.272 171.137 185.152 171.137 187.712C171.137 190.208 169.377 191.344 166.817 191.344H164.881V196H163.393V184.272H166.737ZM166.625 190.144C168.689 190.144 169.665 189.392 169.665 187.712C169.665 186.032 168.625 185.472 166.561 185.472H164.881V190.144H166.625ZM174.495 187.312L174.623 188.896H174.671C175.295 187.792 176.159 187.088 177.135 187.088C177.519 187.088 177.791 187.136 178.063 187.28L177.791 188.56C177.487 188.448 177.311 188.416 176.943 188.416C176.239 188.416 175.311 188.928 174.751 190.416V196H173.295V187.312H174.495ZM182.794 196.208C180.666 196.208 178.762 194.544 178.762 191.664C178.762 188.768 180.666 187.088 182.794 187.088C184.922 187.088 186.826 188.768 186.826 191.664C186.826 194.544 184.922 196.208 182.794 196.208ZM182.794 194.992C184.282 194.992 185.322 193.664 185.322 191.664C185.322 189.664 184.282 188.304 182.794 188.304C181.306 188.304 180.282 189.664 180.282 191.664C180.282 193.664 181.306 194.992 182.794 194.992ZM192.465 196.208C190.161 196.208 188.385 194.544 188.385 191.664C188.385 188.768 190.353 187.088 192.577 187.088C193.729 187.088 194.497 187.552 195.121 188.112L194.369 189.088C193.857 188.624 193.329 188.304 192.625 188.304C191.057 188.304 189.905 189.664 189.905 191.664C189.905 193.664 190.993 194.992 192.593 194.992C193.409 194.992 194.081 194.624 194.641 194.128L195.265 195.104C194.497 195.808 193.505 196.208 192.465 196.208ZM200.215 196.208C197.911 196.208 196.055 194.544 196.055 191.664C196.055 188.848 197.959 187.088 199.975 187.088C202.183 187.088 203.431 188.688 203.431 191.168C203.431 191.488 203.415 191.792 203.367 192H197.511C197.623 193.872 198.727 195.04 200.391 195.04C201.239 195.04 201.927 194.784 202.567 194.352L203.095 195.312C202.327 195.808 201.431 196.208 200.215 196.208ZM202.151 190.96C202.151 189.152 201.351 188.256 199.991 188.256C198.759 188.256 197.671 189.248 197.495 190.96H202.151ZM207.762 196.208C206.53 196.208 205.346 195.696 204.514 195.008L205.234 194.048C205.986 194.672 206.77 195.072 207.81 195.072C208.962 195.072 209.522 194.464 209.522 193.712C209.522 192.832 208.498 192.448 207.538 192.064C206.322 191.632 204.946 191.008 204.946 189.552C204.946 188.192 206.05 187.088 207.938 187.088C209.026 187.088 209.954 187.536 210.642 188.064L209.938 189.008C209.314 188.56 208.722 188.24 207.938 188.24C206.85 188.24 206.354 188.8 206.354 189.488C206.354 190.32 207.298 190.608 208.274 190.992C209.538 191.456 210.93 192 210.93 193.632C210.93 195.04 209.81 196.208 207.762 196.208ZM215.167 196.208C213.935 196.208 212.751 195.696 211.919 195.008L212.639 194.048C213.391 194.672 214.175 195.072 215.215 195.072C216.367 195.072 216.927 194.464 216.927 193.712C216.927 192.832 215.903 192.448 214.943 192.064C213.727 191.632 212.351 191.008 212.351 189.552C212.351 188.192 213.455 187.088 215.343 187.088C216.431 187.088 217.359 187.536 218.047 188.064L217.343 189.008C216.719 188.56 216.127 188.24 215.343 188.24C214.255 188.24 213.759 188.8 213.759 189.488C213.759 190.32 214.703 190.608 215.679 190.992C216.943 191.456 218.335 192 218.335 193.632C218.335 195.04 217.215 196.208 215.167 196.208ZM225.717 184.272L227.973 190.544C228.245 191.36 228.501 192.176 228.805 192.992H228.885C229.157 192.176 229.413 191.36 229.685 190.544L231.925 184.272H233.717V196H232.325V189.504C232.325 188.496 232.437 187.088 232.517 186.048H232.453L231.525 188.72L229.301 194.816H228.309L226.085 188.72L225.157 186.048H225.093C225.141 187.088 225.269 188.496 225.269 189.504V196H223.925V184.272H225.717ZM236.43 187.312H237.886V196H236.43V187.312ZM236.446 185.52V184.016H237.902V185.52H236.446ZM241.681 187.312L241.809 188.56H241.857C242.689 187.744 243.569 187.088 244.769 187.088C246.641 187.088 247.425 188.24 247.425 190.496V196H245.969V190.688C245.969 189.024 245.473 188.368 244.321 188.368C243.425 188.368 242.817 188.816 241.937 189.696V196H240.481V187.312H241.681ZM249.91 187.312H251.366V196H249.91V187.312ZM249.926 185.52V184.016H251.382V185.52H249.926ZM255.162 187.312L255.29 188.56H255.338C256.17 187.744 257.05 187.088 258.25 187.088C260.122 187.088 260.906 188.24 260.906 190.496V196H259.45V190.688C259.45 189.024 258.954 188.368 257.802 188.368C256.906 188.368 256.298 188.816 255.418 189.696V196H253.962V187.312H255.162ZM266.591 200C264.463 200 262.991 199.168 262.991 197.664C262.991 196.912 263.471 196.224 264.287 195.696V195.632C263.823 195.36 263.487 194.896 263.487 194.208C263.487 193.488 264.015 192.912 264.463 192.592V192.528C263.887 192.064 263.327 191.232 263.327 190.192C263.327 188.288 264.847 187.088 266.591 187.088C267.087 187.088 267.503 187.2 267.807 187.312H270.831V188.432H269.055C269.487 188.832 269.759 189.472 269.759 190.224C269.759 192.08 268.335 193.248 266.591 193.248C266.127 193.248 265.695 193.152 265.295 192.944C264.975 193.216 264.735 193.488 264.735 193.984C264.735 194.544 265.087 194.928 266.255 194.928H267.951C270.015 194.928 270.975 195.568 270.975 196.992C270.975 198.608 269.279 200 266.591 200ZM266.591 192.256C267.567 192.256 268.431 191.456 268.431 190.192C268.431 188.912 267.615 188.16 266.591 188.16C265.567 188.16 264.735 188.912 264.735 190.192C264.735 191.456 265.583 192.256 266.591 192.256ZM266.799 199.008C268.463 199.008 269.567 198.128 269.567 197.216C269.567 196.4 268.943 196.144 267.791 196.144H266.287C265.967 196.144 265.551 196.112 265.167 196C264.543 196.448 264.271 196.96 264.271 197.472C264.271 198.432 265.199 199.008 266.799 199.008Z" fill="#222222"/>
<rect x="403.5" y="170.5" width="296" height="39" rx="7.5" stroke="#12A4C5"/>
<path d="M498.024 196.208C495.64 196.208 493.816 194.928 493.816 191.152V184.272H495.304V191.2C495.304 194.016 496.488 194.912 498.024 194.912C499.608 194.912 500.824 194.016 500.824 191.2V184.272H502.248V191.152C502.248 194.928 500.424 196.208 498.024 196.208ZM504.915 187.312H506.371V196H504.915V187.312ZM504.931 185.52V184.016H506.387V185.52H504.931ZM512.439 184.272C515.063 184.272 516.839 185.152 516.839 187.712C516.839 190.208 515.079 191.344 512.519 191.344H510.583V196H509.095V184.272H512.439ZM512.327 190.144C514.391 190.144 515.367 189.392 515.367 187.712C515.367 186.032 514.327 185.472 512.263 185.472H510.583V190.144H512.327ZM520.214 196.208C518.758 196.208 517.686 195.248 517.686 193.664C517.686 191.424 519.59 190.544 523.03 190.496C523.03 189.376 522.662 188.304 521.238 188.304C520.214 188.304 519.238 188.688 518.55 189.152L517.974 188.112C518.79 187.6 520.07 187.088 521.478 187.088C523.59 187.088 524.486 188.528 524.486 190.656V196H523.286L523.158 195.072H523.11C522.278 195.76 521.302 196.208 520.214 196.208ZM520.63 195.04C521.478 195.04 522.182 194.784 523.03 194.032V191.456C519.942 191.664 519.11 192.224 519.11 193.568C519.11 194.592 519.734 195.04 520.63 195.04ZM529.918 196.208C528.062 196.208 527.438 195.056 527.438 193.312V188.496H526.142V187.392L527.502 187.312L527.678 184.88H528.894V187.312H531.246V188.496H528.894V193.344C528.894 194.432 529.214 195.024 530.238 195.024C530.542 195.024 530.926 194.912 531.23 194.8L531.518 195.888C531.022 196.064 530.446 196.208 529.918 196.208ZM534.589 183.264V186.752L534.541 188.544C535.357 187.728 536.221 187.088 537.421 187.088C539.293 187.088 540.077 188.24 540.077 190.496V196H538.621V190.688C538.621 189.024 538.125 188.368 536.973 188.368C536.077 188.368 535.469 188.816 534.589 189.696V196H533.133V183.264H534.589ZM547.486 192.416L546.35 196H544.846L548.83 184.272H550.478L554.462 196H552.894L551.774 192.416H547.486ZM550.846 189.44C550.414 188.096 550.046 186.832 549.662 185.472H549.598C549.23 186.88 548.862 188.096 548.43 189.44L547.854 191.232H551.406L550.846 189.44ZM558.602 196.208C557.37 196.208 556.186 195.696 555.354 195.008L556.074 194.048C556.826 194.672 557.61 195.072 558.65 195.072C559.802 195.072 560.362 194.464 560.362 193.712C560.362 192.832 559.338 192.448 558.378 192.064C557.162 191.632 555.786 191.008 555.786 189.552C555.786 188.192 556.89 187.088 558.778 187.088C559.866 187.088 560.794 187.536 561.482 188.064L560.778 189.008C560.154 188.56 559.562 188.24 558.778 188.24C557.69 188.24 557.194 188.8 557.194 189.488C557.194 190.32 558.138 190.608 559.114 190.992C560.378 191.456 561.77 192 561.77 193.632C561.77 195.04 560.65 196.208 558.602 196.208ZM566.007 196.208C564.775 196.208 563.591 195.696 562.759 195.008L563.479 194.048C564.231 194.672 565.015 195.072 566.055 195.072C567.207 195.072 567.767 194.464 567.767 193.712C567.767 192.832 566.743 192.448 565.783 192.064C564.567 191.632 563.191 191.008 563.191 189.552C563.191 188.192 564.295 187.088 566.183 187.088C567.271 187.088 568.199 187.536 568.887 188.064L568.183 189.008C567.559 188.56 566.967 188.24 566.183 188.24C565.095 188.24 564.599 188.8 564.599 189.488C564.599 190.32 565.543 190.608 566.519 190.992C567.783 191.456 569.175 192 569.175 193.632C569.175 195.04 568.055 196.208 566.007 196.208ZM570.867 187.312H572.323V196H570.867V187.312ZM570.883 185.52V184.016H572.339V185.52H570.883ZM577.191 196.208C575.959 196.208 574.775 195.696 573.943 195.008L574.663 194.048C575.415 194.672 576.199 195.072 577.239 195.072C578.391 195.072 578.951 194.464 578.951 193.712C578.951 192.832 577.927 192.448 576.967 192.064C575.751 191.632 574.375 191.008 574.375 189.552C574.375 188.192 575.479 187.088 577.367 187.088C578.455 187.088 579.383 187.536 580.071 188.064L579.367 189.008C578.743 188.56 578.151 188.24 577.367 188.24C576.279 188.24 575.783 188.8 575.783 189.488C575.783 190.32 576.727 190.608 577.703 190.992C578.967 191.456 580.359 192 580.359 193.632C580.359 195.04 579.239 196.208 577.191 196.208ZM584.7 196.208C582.844 196.208 582.22 195.056 582.22 193.312V188.496H580.924V187.392L582.284 187.312L582.46 184.88H583.676V187.312H586.028V188.496H583.676V193.344C583.676 194.432 583.996 195.024 585.02 195.024C585.324 195.024 585.708 194.912 586.012 194.8L586.3 195.888C585.804 196.064 585.228 196.208 584.7 196.208ZM589.508 196.208C588.052 196.208 586.98 195.248 586.98 193.664C586.98 191.424 588.884 190.544 592.324 190.496C592.324 189.376 591.956 188.304 590.532 188.304C589.508 188.304 588.532 188.688 587.844 189.152L587.268 188.112C588.084 187.6 589.364 187.088 590.772 187.088C592.884 187.088 593.78 188.528 593.78 190.656V196H592.58L592.452 195.072H592.404C591.572 195.76 590.596 196.208 589.508 196.208ZM589.924 195.04C590.772 195.04 591.476 194.784 592.324 194.032V191.456C589.236 191.664 588.404 192.224 588.404 193.568C588.404 194.592 589.028 195.04 589.924 195.04ZM597.675 187.312L597.803 188.56H597.851C598.683 187.744 599.563 187.088 600.763 187.088C602.635 187.088 603.419 188.24 603.419 190.496V196H601.963V190.688C601.963 189.024 601.467 188.368 600.315 188.368C599.419 188.368 598.811 188.816 597.931 189.696V196H596.475V187.312H597.675ZM608.913 196.208C607.057 196.208 606.433 195.056 606.433 193.312V188.496H605.137V187.392L606.497 187.312L606.673 184.88H607.889V187.312H610.241V188.496H607.889V193.344C607.889 194.432 608.209 195.024 609.233 195.024C609.537 195.024 609.921 194.912 610.225 194.8L610.513 195.888C610.017 196.064 609.441 196.208 608.913 196.208Z" fill="#222222"/>
<rect x="68.5" y="442.5" width="462" height="69" rx="7.5" stroke="#12A4C5"/>
<path d="M208.853 471.272C212.549 471.272 214.389 473.272 214.389 477.096C214.389 480.808 212.437 483 208.917 483H205.909V471.272H208.853ZM208.725 481.784C211.493 481.784 212.853 480.056 212.853 477.096C212.853 474.072 211.557 472.472 208.725 472.472H207.397V481.784H208.725ZM220.061 483.208C217.933 483.208 216.029 481.544 216.029 478.664C216.029 475.768 217.933 474.088 220.061 474.088C222.189 474.088 224.093 475.768 224.093 478.664C224.093 481.544 222.189 483.208 220.061 483.208ZM220.061 481.992C221.549 481.992 222.589 480.664 222.589 478.664C222.589 476.664 221.549 475.304 220.061 475.304C218.573 475.304 217.549 476.664 217.549 478.664C217.549 480.664 218.573 481.992 220.061 481.992ZM229.732 483.208C227.428 483.208 225.652 481.544 225.652 478.664C225.652 475.768 227.62 474.088 229.844 474.088C230.996 474.088 231.764 474.552 232.388 475.112L231.636 476.088C231.124 475.624 230.596 475.304 229.892 475.304C228.324 475.304 227.172 476.664 227.172 478.664C227.172 480.664 228.26 481.992 229.86 481.992C230.676 481.992 231.348 481.624 231.908 481.128L232.532 482.104C231.764 482.808 230.772 483.208 229.732 483.208ZM236.897 483.208C235.025 483.208 234.257 482.072 234.257 479.816V474.312H235.713V479.64C235.713 481.256 236.193 481.944 237.345 481.944C238.241 481.944 238.865 481.512 239.697 480.472V474.312H241.153V483H239.937L239.825 481.64H239.777C238.961 482.584 238.097 483.208 236.897 483.208ZM245.208 474.312L245.336 475.576H245.384C246.136 474.744 247.048 474.088 248.088 474.088C249.432 474.088 250.12 474.728 250.488 475.752C251.384 474.776 252.264 474.088 253.352 474.088C255.16 474.088 255.992 475.24 255.992 477.496V483H254.536V477.688C254.536 476.024 254.024 475.368 252.92 475.368C252.28 475.368 251.544 475.816 250.728 476.696V483H249.272V477.688C249.272 476.024 248.76 475.368 247.656 475.368C246.984 475.368 246.248 475.816 245.464 476.696V483H244.008V474.312H245.208ZM262.244 483.208C259.94 483.208 258.084 481.544 258.084 478.664C258.084 475.848 259.988 474.088 262.004 474.088C264.212 474.088 265.46 475.688 265.46 478.168C265.46 478.488 265.444 478.792 265.396 479H259.54C259.652 480.872 260.756 482.04 262.42 482.04C263.268 482.04 263.956 481.784 264.596 481.352L265.124 482.312C264.356 482.808 263.46 483.208 262.244 483.208ZM264.18 477.96C264.18 476.152 263.38 475.256 262.02 475.256C260.788 475.256 259.7 476.248 259.524 477.96H264.18ZM268.72 474.312L268.848 475.56H268.896C269.728 474.744 270.608 474.088 271.808 474.088C273.68 474.088 274.464 475.24 274.464 477.496V483H273.008V477.688C273.008 476.024 272.512 475.368 271.36 475.368C270.464 475.368 269.856 475.816 268.976 476.696V483H267.52V474.312H268.72ZM279.957 483.208C278.101 483.208 277.477 482.056 277.477 480.312V475.496H276.181V474.392L277.541 474.312L277.717 471.88H278.933V474.312H281.285V475.496H278.933V480.344C278.933 481.432 279.253 482.024 280.277 482.024C280.581 482.024 280.965 481.912 281.269 481.8L281.557 482.888C281.061 483.064 280.485 483.208 279.957 483.208ZM290.958 483.208C288.574 483.208 286.75 481.928 286.75 478.152V471.272H288.238V478.2C288.238 481.016 289.422 481.912 290.958 481.912C292.542 481.912 293.758 481.016 293.758 478.2V471.272H295.182V478.152C295.182 481.928 293.358 483.208 290.958 483.208ZM299.321 474.312L299.449 475.56H299.497C300.329 474.744 301.209 474.088 302.409 474.088C304.281 474.088 305.065 475.24 305.065 477.496V483H303.609V477.688C303.609 476.024 303.113 475.368 301.961 475.368C301.065 475.368 300.457 475.816 299.577 476.696V483H298.121V474.312H299.321ZM310.783 483.208C308.607 483.208 307.199 481.56 307.199 478.664C307.199 475.848 308.975 474.088 310.959 474.088C311.983 474.088 312.639 474.472 313.407 475.112L313.327 473.608V470.264H314.783V483H313.599L313.455 481.976H313.423C312.735 482.664 311.823 483.208 310.783 483.208ZM311.103 481.992C311.919 481.992 312.607 481.608 313.327 480.792V476.232C312.575 475.576 311.935 475.32 311.215 475.32C309.807 475.32 308.703 476.664 308.703 478.648C308.703 480.776 309.567 481.992 311.103 481.992ZM321.169 483.208C318.865 483.208 317.009 481.544 317.009 478.664C317.009 475.848 318.913 474.088 320.929 474.088C323.137 474.088 324.385 475.688 324.385 478.168C324.385 478.488 324.369 478.792 324.321 479H318.465C318.577 480.872 319.681 482.04 321.345 482.04C322.193 482.04 322.881 481.784 323.521 481.352L324.049 482.312C323.281 482.808 322.385 483.208 321.169 483.208ZM323.105 477.96C323.105 476.152 322.305 475.256 320.945 475.256C319.713 475.256 318.625 476.248 318.449 477.96H323.105ZM327.644 474.312L327.772 475.896H327.82C328.444 474.792 329.308 474.088 330.284 474.088C330.668 474.088 330.94 474.136 331.212 474.28L330.94 475.56C330.636 475.448 330.46 475.416 330.092 475.416C329.388 475.416 328.46 475.928 327.9 477.416V483H326.444V474.312H327.644ZM334.839 483.208C333.607 483.208 332.423 482.696 331.591 482.008L332.311 481.048C333.063 481.672 333.847 482.072 334.887 482.072C336.039 482.072 336.599 481.464 336.599 480.712C336.599 479.832 335.575 479.448 334.615 479.064C333.399 478.632 332.023 478.008 332.023 476.552C332.023 475.192 333.127 474.088 335.015 474.088C336.103 474.088 337.031 474.536 337.719 475.064L337.015 476.008C336.391 475.56 335.799 475.24 335.015 475.24C333.927 475.24 333.431 475.8 333.431 476.488C333.431 477.32 334.375 477.608 335.351 477.992C336.615 478.456 338.007 479 338.007 480.632C338.007 482.04 336.887 483.208 334.839 483.208ZM342.348 483.208C340.492 483.208 339.868 482.056 339.868 480.312V475.496H338.572V474.392L339.932 474.312L340.108 471.88H341.324V474.312H343.676V475.496H341.324V480.344C341.324 481.432 341.644 482.024 342.668 482.024C342.972 482.024 343.356 481.912 343.66 481.8L343.948 482.888C343.452 483.064 342.876 483.208 342.348 483.208ZM347.157 483.208C345.701 483.208 344.629 482.248 344.629 480.664C344.629 478.424 346.533 477.544 349.973 477.496C349.973 476.376 349.605 475.304 348.181 475.304C347.157 475.304 346.181 475.688 345.493 476.152L344.917 475.112C345.733 474.6 347.013 474.088 348.421 474.088C350.533 474.088 351.429 475.528 351.429 477.656V483H350.229L350.101 482.072H350.053C349.221 482.76 348.245 483.208 347.157 483.208ZM347.573 482.04C348.421 482.04 349.125 481.784 349.973 481.032V478.456C346.885 478.664 346.053 479.224 346.053 480.568C346.053 481.592 346.677 482.04 347.573 482.04ZM355.324 474.312L355.452 475.56H355.5C356.332 474.744 357.212 474.088 358.412 474.088C360.284 474.088 361.068 475.24 361.068 477.496V483H359.612V477.688C359.612 476.024 359.116 475.368 357.964 475.368C357.068 475.368 356.46 475.816 355.58 476.696V483H354.124V474.312H355.324ZM366.785 483.208C364.609 483.208 363.201 481.56 363.201 478.664C363.201 475.848 364.977 474.088 366.961 474.088C367.985 474.088 368.641 474.472 369.409 475.112L369.329 473.608V470.264H370.785V483H369.601L369.457 481.976H369.425C368.737 482.664 367.825 483.208 366.785 483.208ZM367.105 481.992C367.921 481.992 368.609 481.608 369.329 480.792V476.232C368.577 475.576 367.937 475.32 367.217 475.32C365.809 475.32 364.705 476.664 364.705 478.648C364.705 480.776 365.569 481.992 367.105 481.992ZM373.395 474.312H374.851V483H373.395V474.312ZM373.411 472.52V471.016H374.867V472.52H373.411ZM378.646 474.312L378.774 475.56H378.822C379.654 474.744 380.534 474.088 381.734 474.088C383.606 474.088 384.39 475.24 384.39 477.496V483H382.934V477.688C382.934 476.024 382.438 475.368 381.286 475.368C380.39 475.368 379.782 475.816 378.902 476.696V483H377.446V474.312H378.646ZM390.076 487C387.948 487 386.476 486.168 386.476 484.664C386.476 483.912 386.956 483.224 387.772 482.696V482.632C387.308 482.36 386.972 481.896 386.972 481.208C386.972 480.488 387.5 479.912 387.948 479.592V479.528C387.372 479.064 386.812 478.232 386.812 477.192C386.812 475.288 388.332 474.088 390.076 474.088C390.572 474.088 390.988 474.2 391.292 474.312H394.316V475.432H392.54C392.972 475.832 393.244 476.472 393.244 477.224C393.244 479.08 391.82 480.248 390.076 480.248C389.612 480.248 389.18 480.152 388.78 479.944C388.46 480.216 388.22 480.488 388.22 480.984C388.22 481.544 388.572 481.928 389.74 481.928H391.436C393.5 481.928 394.46 482.568 394.46 483.992C394.46 485.608 392.764 487 390.076 487ZM390.076 479.256C391.052 479.256 391.916 478.456 391.916 477.192C391.916 475.912 391.1 475.16 390.076 475.16C389.052 475.16 388.22 475.912 388.22 477.192C388.22 478.456 389.068 479.256 390.076 479.256ZM390.284 486.008C391.948 486.008 393.052 485.128 393.052 484.216C393.052 483.4 392.428 483.144 391.276 483.144H389.772C389.452 483.144 389.036 483.112 388.652 483C388.028 483.448 387.756 483.96 387.756 484.472C387.756 485.432 388.684 486.008 390.284 486.008Z" fill="#222222"/>
<rect x="574.5" y="442.5" width="458" height="69" rx="7.5" stroke="#12A4C5"/>
<path d="M706.825 472.52V471.272H715.417V472.52H711.865V483H710.377V472.52H706.825ZM717.986 483.208C716.53 483.208 715.458 482.248 715.458 480.664C715.458 478.424 717.362 477.544 720.802 477.496C720.802 476.376 720.434 475.304 719.01 475.304C717.986 475.304 717.01 475.688 716.322 476.152L715.746 475.112C716.562 474.6 717.842 474.088 719.25 474.088C721.362 474.088 722.258 475.528 722.258 477.656V483H721.058L720.93 482.072H720.882C720.05 482.76 719.074 483.208 717.986 483.208ZM718.402 482.04C719.25 482.04 719.954 481.784 720.802 481.032V478.456C717.714 478.664 716.882 479.224 716.882 480.568C716.882 481.592 717.506 482.04 718.402 482.04ZM728.778 483.208C727.962 483.208 727.066 482.808 726.298 482.104H726.25L726.122 483H724.954V470.264H726.41V473.752L726.362 475.32C727.146 474.632 728.122 474.088 729.082 474.088C731.338 474.088 732.554 475.864 732.554 478.504C732.554 481.512 730.762 483.208 728.778 483.208ZM728.538 481.992C729.994 481.992 731.034 480.696 731.034 478.536C731.034 476.616 730.394 475.32 728.746 475.32C727.994 475.32 727.242 475.736 726.41 476.52V481.08C727.178 481.768 727.962 481.992 728.538 481.992ZM737.292 483.208C735.42 483.208 734.652 482.072 734.652 479.816V474.312H736.108V479.64C736.108 481.256 736.588 481.944 737.74 481.944C738.636 481.944 739.26 481.512 740.092 480.472V474.312H741.548V483H740.332L740.22 481.64H740.172C739.356 482.584 738.492 483.208 737.292 483.208ZM744.403 470.264H745.859V483H744.403V470.264ZM750.682 483.208C749.226 483.208 748.154 482.248 748.154 480.664C748.154 478.424 750.058 477.544 753.498 477.496C753.498 476.376 753.13 475.304 751.706 475.304C750.682 475.304 749.706 475.688 749.018 476.152L748.442 475.112C749.258 474.6 750.538 474.088 751.946 474.088C754.058 474.088 754.954 475.528 754.954 477.656V483H753.754L753.626 482.072H753.578C752.746 482.76 751.77 483.208 750.682 483.208ZM751.098 482.04C751.946 482.04 752.65 481.784 753.498 481.032V478.456C750.41 478.664 749.578 479.224 749.578 480.568C749.578 481.592 750.202 482.04 751.098 482.04ZM758.849 474.312L758.977 475.896H759.025C759.649 474.792 760.513 474.088 761.489 474.088C761.873 474.088 762.145 474.136 762.417 474.28L762.145 475.56C761.841 475.448 761.665 475.416 761.297 475.416C760.593 475.416 759.665 475.928 759.105 477.416V483H757.649V474.312H758.849ZM770.342 471.272C774.038 471.272 775.878 473.272 775.878 477.096C775.878 480.808 773.926 483 770.406 483H767.398V471.272H770.342ZM770.214 481.784C772.982 481.784 774.342 480.056 774.342 477.096C774.342 474.072 773.046 472.472 770.214 472.472H768.886V481.784H770.214ZM780.159 483.208C778.703 483.208 777.631 482.248 777.631 480.664C777.631 478.424 779.535 477.544 782.975 477.496C782.975 476.376 782.607 475.304 781.183 475.304C780.159 475.304 779.183 475.688 778.495 476.152L777.919 475.112C778.735 474.6 780.015 474.088 781.423 474.088C783.535 474.088 784.431 475.528 784.431 477.656V483H783.231L783.103 482.072H783.055C782.223 482.76 781.247 483.208 780.159 483.208ZM780.575 482.04C781.423 482.04 782.127 481.784 782.975 481.032V478.456C779.887 478.664 779.055 479.224 779.055 480.568C779.055 481.592 779.679 482.04 780.575 482.04ZM789.862 483.208C788.006 483.208 787.382 482.056 787.382 480.312V475.496H786.086V474.392L787.446 474.312L787.622 471.88H788.838V474.312H791.19V475.496H788.838V480.344C788.838 481.432 789.158 482.024 790.182 482.024C790.486 482.024 790.87 481.912 791.174 481.8L791.462 482.888C790.966 483.064 790.39 483.208 789.862 483.208ZM794.671 483.208C793.215 483.208 792.143 482.248 792.143 480.664C792.143 478.424 794.047 477.544 797.487 477.496C797.487 476.376 797.119 475.304 795.695 475.304C794.671 475.304 793.695 475.688 793.007 476.152L792.431 475.112C793.247 474.6 794.527 474.088 795.935 474.088C798.047 474.088 798.943 475.528 798.943 477.656V483H797.743L797.615 482.072H797.567C796.735 482.76 795.759 483.208 794.671 483.208ZM795.087 482.04C795.935 482.04 796.639 481.784 797.487 481.032V478.456C794.399 478.664 793.567 479.224 793.567 480.568C793.567 481.592 794.191 482.04 795.087 482.04ZM809.696 483.208C806.8 483.208 804.592 480.936 804.592 477.144C804.592 473.352 806.8 471.048 809.792 471.048C811.216 471.048 812.336 471.752 813.008 472.504L812.208 473.464C811.584 472.808 810.832 472.344 809.808 472.344C807.584 472.344 806.112 474.152 806.112 477.096C806.112 480.056 807.52 481.912 809.76 481.912C810.912 481.912 811.728 481.416 812.48 480.6L813.296 481.528C812.336 482.616 811.232 483.208 809.696 483.208ZM815.259 470.264H816.715V483H815.259V470.264ZM821.538 483.208C820.082 483.208 819.01 482.248 819.01 480.664C819.01 478.424 820.914 477.544 824.354 477.496C824.354 476.376 823.986 475.304 822.562 475.304C821.538 475.304 820.562 475.688 819.874 476.152L819.298 475.112C820.114 474.6 821.394 474.088 822.802 474.088C824.914 474.088 825.81 475.528 825.81 477.656V483H824.61L824.482 482.072H824.434C823.602 482.76 822.626 483.208 821.538 483.208ZM821.954 482.04C822.802 482.04 823.506 481.784 824.354 481.032V478.456C821.266 478.664 820.434 479.224 820.434 480.568C820.434 481.592 821.058 482.04 821.954 482.04ZM830.777 483.208C829.545 483.208 828.361 482.696 827.529 482.008L828.249 481.048C829.001 481.672 829.785 482.072 830.825 482.072C831.977 482.072 832.537 481.464 832.537 480.712C832.537 479.832 831.513 479.448 830.553 479.064C829.337 478.632 827.961 478.008 827.961 476.552C827.961 475.192 829.065 474.088 830.953 474.088C832.041 474.088 832.969 474.536 833.657 475.064L832.953 476.008C832.329 475.56 831.737 475.24 830.953 475.24C829.865 475.24 829.369 475.8 829.369 476.488C829.369 477.32 830.313 477.608 831.289 477.992C832.553 478.456 833.945 479 833.945 480.632C833.945 482.04 832.825 483.208 830.777 483.208ZM838.182 483.208C836.95 483.208 835.766 482.696 834.934 482.008L835.654 481.048C836.406 481.672 837.19 482.072 838.23 482.072C839.382 482.072 839.942 481.464 839.942 480.712C839.942 479.832 838.918 479.448 837.958 479.064C836.742 478.632 835.366 478.008 835.366 476.552C835.366 475.192 836.47 474.088 838.358 474.088C839.446 474.088 840.374 474.536 841.062 475.064L840.358 476.008C839.734 475.56 839.142 475.24 838.358 475.24C837.27 475.24 836.774 475.8 836.774 476.488C836.774 477.32 837.718 477.608 838.694 477.992C839.958 478.456 841.35 479 841.35 480.632C841.35 482.04 840.23 483.208 838.182 483.208ZM843.042 474.312H844.498V483H843.042V474.312ZM843.058 472.52V471.016H844.514V472.52H843.058ZM850.998 471.448C850.614 471.304 850.294 471.224 850.022 471.224C849.206 471.224 848.79 471.8 848.79 472.936V474.312H850.63V475.496H848.79V483H847.334V475.496H846.15V474.392L847.334 474.312V472.92C847.334 471.112 848.134 470.056 849.862 470.056C850.39 470.056 850.886 470.168 851.318 470.344L850.998 471.448ZM851.945 474.312H853.401V483H851.945V474.312ZM851.961 472.52V471.016H853.417V472.52H851.961ZM859.42 483.208C857.116 483.208 855.34 481.544 855.34 478.664C855.34 475.768 857.308 474.088 859.532 474.088C860.684 474.088 861.452 474.552 862.076 475.112L861.324 476.088C860.812 475.624 860.284 475.304 859.58 475.304C858.012 475.304 856.86 476.664 856.86 478.664C856.86 480.664 857.948 481.992 859.548 481.992C860.364 481.992 861.036 481.624 861.596 481.128L862.22 482.104C861.452 482.808 860.46 483.208 859.42 483.208ZM866.041 483.208C864.585 483.208 863.513 482.248 863.513 480.664C863.513 478.424 865.417 477.544 868.857 477.496C868.857 476.376 868.489 475.304 867.065 475.304C866.041 475.304 865.065 475.688 864.377 476.152L863.801 475.112C864.617 474.6 865.897 474.088 867.305 474.088C869.417 474.088 870.313 475.528 870.313 477.656V483H869.113L868.985 482.072H868.937C868.105 482.76 867.129 483.208 866.041 483.208ZM866.457 482.04C867.305 482.04 868.009 481.784 868.857 481.032V478.456C865.769 478.664 864.937 479.224 864.937 480.568C864.937 481.592 865.561 482.04 866.457 482.04ZM875.744 483.208C873.888 483.208 873.264 482.056 873.264 480.312V475.496H871.968V474.392L873.328 474.312L873.504 471.88H874.72V474.312H877.072V475.496H874.72V480.344C874.72 481.432 875.04 482.024 876.064 482.024C876.368 482.024 876.752 481.912 877.056 481.8L877.344 482.888C876.848 483.064 876.272 483.208 875.744 483.208ZM878.687 474.312H880.143V483H878.687V474.312ZM878.703 472.52V471.016H880.159V472.52H878.703ZM886.115 483.208C883.987 483.208 882.083 481.544 882.083 478.664C882.083 475.768 883.987 474.088 886.115 474.088C888.243 474.088 890.147 475.768 890.147 478.664C890.147 481.544 888.243 483.208 886.115 483.208ZM886.115 481.992C887.603 481.992 888.643 480.664 888.643 478.664C888.643 476.664 887.603 475.304 886.115 475.304C884.627 475.304 883.603 476.664 883.603 478.664C883.603 480.664 884.627 481.992 886.115 481.992ZM893.562 474.312L893.69 475.56H893.738C894.57 474.744 895.45 474.088 896.65 474.088C898.522 474.088 899.306 475.24 899.306 477.496V483H897.85V477.688C897.85 476.024 897.354 475.368 896.202 475.368C895.306 475.368 894.698 475.816 893.818 476.696V483H892.362V474.312H893.562Z" fill="#222222"/>
<rect x="68.5" y="526.5" width="462" height="69" rx="7.5" stroke="#12A4C5"/>
<path d="M234.837 555.272V565.736H239.957V567H233.349V555.272H234.837ZM243.797 567.208C242.341 567.208 241.269 566.248 241.269 564.664C241.269 562.424 243.173 561.544 246.613 561.496C246.613 560.376 246.245 559.304 244.821 559.304C243.797 559.304 242.821 559.688 242.133 560.152L241.557 559.112C242.373 558.6 243.653 558.088 245.061 558.088C247.173 558.088 248.069 559.528 248.069 561.656V567H246.869L246.741 566.072H246.693C245.861 566.76 244.885 567.208 243.797 567.208ZM244.213 566.04C245.061 566.04 245.765 565.784 246.613 565.032V562.456C243.525 562.664 242.693 563.224 242.693 564.568C242.693 565.592 243.317 566.04 244.213 566.04ZM251.964 558.312L252.092 559.56H252.14C252.972 558.744 253.852 558.088 255.052 558.088C256.924 558.088 257.708 559.24 257.708 561.496V567H256.252V561.688C256.252 560.024 255.756 559.368 254.604 559.368C253.708 559.368 253.1 559.816 252.22 560.696V567H250.764V558.312H251.964ZM263.394 571C261.266 571 259.794 570.168 259.794 568.664C259.794 567.912 260.274 567.224 261.09 566.696V566.632C260.626 566.36 260.29 565.896 260.29 565.208C260.29 564.488 260.818 563.912 261.266 563.592V563.528C260.69 563.064 260.13 562.232 260.13 561.192C260.13 559.288 261.65 558.088 263.394 558.088C263.89 558.088 264.306 558.2 264.61 558.312H267.634V559.432H265.858C266.29 559.832 266.562 560.472 266.562 561.224C266.562 563.08 265.138 564.248 263.394 564.248C262.93 564.248 262.498 564.152 262.098 563.944C261.778 564.216 261.538 564.488 261.538 564.984C261.538 565.544 261.89 565.928 263.058 565.928H264.754C266.818 565.928 267.778 566.568 267.778 567.992C267.778 569.608 266.082 571 263.394 571ZM263.394 563.256C264.37 563.256 265.234 562.456 265.234 561.192C265.234 559.912 264.418 559.16 263.394 559.16C262.37 559.16 261.538 559.912 261.538 561.192C261.538 562.456 262.386 563.256 263.394 563.256ZM263.602 570.008C265.266 570.008 266.37 569.128 266.37 568.216C266.37 567.4 265.746 567.144 264.594 567.144H263.09C262.77 567.144 262.354 567.112 261.97 567C261.346 567.448 261.074 567.96 261.074 568.472C261.074 569.432 262.002 570.008 263.602 570.008ZM271.929 567.208C270.057 567.208 269.289 566.072 269.289 563.816V558.312H270.745V563.64C270.745 565.256 271.225 565.944 272.377 565.944C273.273 565.944 273.897 565.512 274.729 564.472V558.312H276.185V567H274.969L274.857 565.64H274.809C273.993 566.584 273.129 567.208 271.929 567.208ZM281.024 567.208C279.568 567.208 278.496 566.248 278.496 564.664C278.496 562.424 280.4 561.544 283.84 561.496C283.84 560.376 283.472 559.304 282.048 559.304C281.024 559.304 280.048 559.688 279.36 560.152L278.784 559.112C279.6 558.6 280.88 558.088 282.288 558.088C284.4 558.088 285.296 559.528 285.296 561.656V567H284.096L283.968 566.072H283.92C283.088 566.76 282.112 567.208 281.024 567.208ZM281.44 566.04C282.288 566.04 282.992 565.784 283.84 565.032V562.456C280.752 562.664 279.92 563.224 279.92 564.568C279.92 565.592 280.544 566.04 281.44 566.04ZM290.919 571C288.791 571 287.319 570.168 287.319 568.664C287.319 567.912 287.799 567.224 288.615 566.696V566.632C288.151 566.36 287.815 565.896 287.815 565.208C287.815 564.488 288.343 563.912 288.791 563.592V563.528C288.215 563.064 287.655 562.232 287.655 561.192C287.655 559.288 289.175 558.088 290.919 558.088C291.415 558.088 291.831 558.2 292.135 558.312H295.159V559.432H293.383C293.815 559.832 294.087 560.472 294.087 561.224C294.087 563.08 292.663 564.248 290.919 564.248C290.455 564.248 290.023 564.152 289.623 563.944C289.303 564.216 289.063 564.488 289.063 564.984C289.063 565.544 289.415 565.928 290.583 565.928H292.279C294.343 565.928 295.303 566.568 295.303 567.992C295.303 569.608 293.607 571 290.919 571ZM290.919 563.256C291.895 563.256 292.759 562.456 292.759 561.192C292.759 559.912 291.943 559.16 290.919 559.16C289.895 559.16 289.063 559.912 289.063 561.192C289.063 562.456 289.911 563.256 290.919 563.256ZM291.127 570.008C292.791 570.008 293.895 569.128 293.895 568.216C293.895 567.4 293.271 567.144 292.119 567.144H290.615C290.295 567.144 289.879 567.112 289.495 567C288.871 567.448 288.599 567.96 288.599 568.472C288.599 569.432 289.527 570.008 291.127 570.008ZM300.431 567.208C298.127 567.208 296.271 565.544 296.271 562.664C296.271 559.848 298.175 558.088 300.191 558.088C302.399 558.088 303.647 559.688 303.647 562.168C303.647 562.488 303.631 562.792 303.583 563H297.727C297.839 564.872 298.943 566.04 300.607 566.04C301.455 566.04 302.143 565.784 302.783 565.352L303.311 566.312C302.543 566.808 301.647 567.208 300.431 567.208ZM302.367 561.96C302.367 560.152 301.567 559.256 300.207 559.256C298.975 559.256 297.887 560.248 297.711 561.96H302.367ZM310.42 563.416L309.284 567H307.78L311.764 555.272H313.412L317.396 567H315.828L314.708 563.416H310.42ZM313.78 560.44C313.348 559.096 312.98 557.832 312.596 556.472H312.532C312.164 557.88 311.796 559.096 311.364 560.44L310.788 562.232H314.34L313.78 560.44ZM320.043 558.312L320.171 559.56H320.219C321.051 558.744 321.931 558.088 323.131 558.088C325.003 558.088 325.787 559.24 325.787 561.496V567H324.331V561.688C324.331 560.024 323.835 559.368 322.683 559.368C321.787 559.368 321.179 559.816 320.299 560.696V567H318.843V558.312H320.043ZM330.529 567.208C329.073 567.208 328.001 566.248 328.001 564.664C328.001 562.424 329.905 561.544 333.345 561.496C333.345 560.376 332.977 559.304 331.553 559.304C330.529 559.304 329.553 559.688 328.865 560.152L328.289 559.112C329.105 558.6 330.385 558.088 331.793 558.088C333.905 558.088 334.801 559.528 334.801 561.656V567H333.601L333.473 566.072H333.425C332.593 566.76 331.617 567.208 330.529 567.208ZM330.945 566.04C331.793 566.04 332.497 565.784 333.345 565.032V562.456C330.257 562.664 329.425 563.224 329.425 564.568C329.425 565.592 330.049 566.04 330.945 566.04ZM337.496 554.264H338.952V567H337.496V554.264ZM344.031 566.92L340.543 558.312H342.063L343.839 563.048C344.095 563.8 344.399 564.696 344.671 565.48H344.751C344.991 564.696 345.247 563.816 345.487 563.048L347.039 558.312H348.463L344.031 570.744H342.671L344.031 566.92ZM352.326 567.208C351.094 567.208 349.91 566.696 349.078 566.008L349.798 565.048C350.55 565.672 351.334 566.072 352.374 566.072C353.526 566.072 354.086 565.464 354.086 564.712C354.086 563.832 353.062 563.448 352.102 563.064C350.886 562.632 349.51 562.008 349.51 560.552C349.51 559.192 350.614 558.088 352.502 558.088C353.59 558.088 354.518 558.536 355.206 559.064L354.502 560.008C353.878 559.56 353.286 559.24 352.502 559.24C351.414 559.24 350.918 559.8 350.918 560.488C350.918 561.32 351.862 561.608 352.838 561.992C354.102 562.456 355.494 563 355.494 564.632C355.494 566.04 354.374 567.208 352.326 567.208ZM357.187 558.312H358.643V567H357.187V558.312ZM357.203 556.52V555.016H358.659V556.52H357.203ZM363.51 567.208C362.278 567.208 361.094 566.696 360.262 566.008L360.982 565.048C361.734 565.672 362.518 566.072 363.558 566.072C364.71 566.072 365.27 565.464 365.27 564.712C365.27 563.832 364.246 563.448 363.286 563.064C362.07 562.632 360.694 562.008 360.694 560.552C360.694 559.192 361.798 558.088 363.686 558.088C364.774 558.088 365.702 558.536 366.39 559.064L365.686 560.008C365.062 559.56 364.47 559.24 363.686 559.24C362.598 559.24 362.102 559.8 362.102 560.488C362.102 561.32 363.046 561.608 364.022 561.992C365.286 562.456 366.678 563 366.678 564.632C366.678 566.04 365.558 567.208 363.51 567.208Z" fill="#222222"/>
<rect x="574.5" y="526.5" width="458" height="69" rx="7.5" stroke="#12A4C5"/>
<path d="M733.332 555.272V567H731.844V555.272H733.332ZM737.524 558.312L737.652 559.576H737.7C738.452 558.744 739.364 558.088 740.404 558.088C741.748 558.088 742.436 558.728 742.804 559.752C743.7 558.776 744.58 558.088 745.668 558.088C747.476 558.088 748.308 559.24 748.308 561.496V567H746.852V561.688C746.852 560.024 746.34 559.368 745.236 559.368C744.596 559.368 743.86 559.816 743.044 560.696V567H741.588V561.688C741.588 560.024 741.076 559.368 739.972 559.368C739.3 559.368 738.564 559.816 737.78 560.696V567H736.324V558.312H737.524ZM753.04 567.208C751.584 567.208 750.512 566.248 750.512 564.664C750.512 562.424 752.416 561.544 755.856 561.496C755.856 560.376 755.488 559.304 754.064 559.304C753.04 559.304 752.064 559.688 751.376 560.152L750.8 559.112C751.616 558.6 752.896 558.088 754.304 558.088C756.416 558.088 757.312 559.528 757.312 561.656V567H756.112L755.984 566.072H755.936C755.104 566.76 754.128 567.208 753.04 567.208ZM753.456 566.04C754.304 566.04 755.008 565.784 755.856 565.032V562.456C752.768 562.664 751.936 563.224 751.936 564.568C751.936 565.592 752.56 566.04 753.456 566.04ZM762.936 571C760.808 571 759.336 570.168 759.336 568.664C759.336 567.912 759.816 567.224 760.632 566.696V566.632C760.168 566.36 759.832 565.896 759.832 565.208C759.832 564.488 760.36 563.912 760.808 563.592V563.528C760.232 563.064 759.672 562.232 759.672 561.192C759.672 559.288 761.192 558.088 762.936 558.088C763.432 558.088 763.848 558.2 764.152 558.312H767.176V559.432H765.4C765.832 559.832 766.104 560.472 766.104 561.224C766.104 563.08 764.68 564.248 762.936 564.248C762.472 564.248 762.04 564.152 761.64 563.944C761.32 564.216 761.08 564.488 761.08 564.984C761.08 565.544 761.432 565.928 762.6 565.928H764.296C766.36 565.928 767.32 566.568 767.32 567.992C767.32 569.608 765.624 571 762.936 571ZM762.936 563.256C763.912 563.256 764.776 562.456 764.776 561.192C764.776 559.912 763.96 559.16 762.936 559.16C761.912 559.16 761.08 559.912 761.08 561.192C761.08 562.456 761.928 563.256 762.936 563.256ZM763.144 570.008C764.808 570.008 765.912 569.128 765.912 568.216C765.912 567.4 765.288 567.144 764.136 567.144H762.632C762.312 567.144 761.896 567.112 761.512 567C760.888 567.448 760.616 567.96 760.616 568.472C760.616 569.432 761.544 570.008 763.144 570.008ZM772.447 567.208C770.143 567.208 768.287 565.544 768.287 562.664C768.287 559.848 770.191 558.088 772.207 558.088C774.415 558.088 775.663 559.688 775.663 562.168C775.663 562.488 775.647 562.792 775.599 563H769.743C769.855 564.872 770.959 566.04 772.623 566.04C773.471 566.04 774.159 565.784 774.799 565.352L775.327 566.312C774.559 566.808 773.663 567.208 772.447 567.208ZM774.383 561.96C774.383 560.152 773.583 559.256 772.223 559.256C770.991 559.256 769.903 560.248 769.727 561.96H774.383ZM785.781 567.208C782.885 567.208 780.677 564.936 780.677 561.144C780.677 557.352 782.885 555.048 785.877 555.048C787.301 555.048 788.421 555.752 789.093 556.504L788.293 557.464C787.669 556.808 786.917 556.344 785.893 556.344C783.669 556.344 782.197 558.152 782.197 561.096C782.197 564.056 783.605 565.912 785.845 565.912C786.997 565.912 787.813 565.416 788.565 564.6L789.381 565.528C788.421 566.616 787.317 567.208 785.781 567.208ZM791.344 554.264H792.8V567H791.344V554.264ZM797.623 567.208C796.167 567.208 795.095 566.248 795.095 564.664C795.095 562.424 796.999 561.544 800.439 561.496C800.439 560.376 800.071 559.304 798.647 559.304C797.623 559.304 796.647 559.688 795.959 560.152L795.383 559.112C796.199 558.6 797.479 558.088 798.887 558.088C800.999 558.088 801.895 559.528 801.895 561.656V567H800.695L800.567 566.072H800.519C799.687 566.76 798.711 567.208 797.623 567.208ZM798.039 566.04C798.887 566.04 799.591 565.784 800.439 565.032V562.456C797.351 562.664 796.519 563.224 796.519 564.568C796.519 565.592 797.143 566.04 798.039 566.04ZM806.862 567.208C805.63 567.208 804.446 566.696 803.614 566.008L804.334 565.048C805.086 565.672 805.87 566.072 806.91 566.072C808.062 566.072 808.622 565.464 808.622 564.712C808.622 563.832 807.598 563.448 806.638 563.064C805.422 562.632 804.046 562.008 804.046 560.552C804.046 559.192 805.15 558.088 807.038 558.088C808.126 558.088 809.054 558.536 809.742 559.064L809.038 560.008C808.414 559.56 807.822 559.24 807.038 559.24C805.95 559.24 805.454 559.8 805.454 560.488C805.454 561.32 806.398 561.608 807.374 561.992C808.638 562.456 810.03 563 810.03 564.632C810.03 566.04 808.91 567.208 806.862 567.208ZM814.267 567.208C813.035 567.208 811.851 566.696 811.019 566.008L811.739 565.048C812.491 565.672 813.275 566.072 814.315 566.072C815.467 566.072 816.027 565.464 816.027 564.712C816.027 563.832 815.003 563.448 814.043 563.064C812.827 562.632 811.451 562.008 811.451 560.552C811.451 559.192 812.555 558.088 814.443 558.088C815.531 558.088 816.459 558.536 817.147 559.064L816.443 560.008C815.819 559.56 815.227 559.24 814.443 559.24C813.355 559.24 812.859 559.8 812.859 560.488C812.859 561.32 813.803 561.608 814.779 561.992C816.043 562.456 817.435 563 817.435 564.632C817.435 566.04 816.315 567.208 814.267 567.208ZM819.127 558.312H820.583V567H819.127V558.312ZM819.143 556.52V555.016H820.599V556.52H819.143ZM827.082 555.448C826.698 555.304 826.378 555.224 826.106 555.224C825.29 555.224 824.874 555.8 824.874 556.936V558.312H826.714V559.496H824.874V567H823.418V559.496H822.234V558.392L823.418 558.312V556.92C823.418 555.112 824.218 554.056 825.946 554.056C826.474 554.056 826.97 554.168 827.402 554.344L827.082 555.448ZM828.029 558.312H829.485V567H828.029V558.312ZM828.045 556.52V555.016H829.501V556.52H828.045ZM835.505 567.208C833.201 567.208 831.425 565.544 831.425 562.664C831.425 559.768 833.393 558.088 835.617 558.088C836.769 558.088 837.537 558.552 838.161 559.112L837.409 560.088C836.897 559.624 836.369 559.304 835.665 559.304C834.097 559.304 832.945 560.664 832.945 562.664C832.945 564.664 834.033 565.992 835.633 565.992C836.449 565.992 837.121 565.624 837.681 565.128L838.305 566.104C837.537 566.808 836.545 567.208 835.505 567.208ZM842.125 567.208C840.669 567.208 839.597 566.248 839.597 564.664C839.597 562.424 841.501 561.544 844.941 561.496C844.941 560.376 844.573 559.304 843.149 559.304C842.125 559.304 841.149 559.688 840.461 560.152L839.885 559.112C840.701 558.6 841.981 558.088 843.389 558.088C845.501 558.088 846.397 559.528 846.397 561.656V567H845.197L845.069 566.072H845.021C844.189 566.76 843.213 567.208 842.125 567.208ZM842.541 566.04C843.389 566.04 844.093 565.784 844.941 565.032V562.456C841.853 562.664 841.021 563.224 841.021 564.568C841.021 565.592 841.645 566.04 842.541 566.04ZM851.829 567.208C849.973 567.208 849.349 566.056 849.349 564.312V559.496H848.053V558.392L849.413 558.312L849.589 555.88H850.805V558.312H853.157V559.496H850.805V564.344C850.805 565.432 851.125 566.024 852.149 566.024C852.453 566.024 852.837 565.912 853.141 565.8L853.429 566.888C852.933 567.064 852.357 567.208 851.829 567.208ZM854.772 558.312H856.228V567H854.772V558.312ZM854.788 556.52V555.016H856.244V556.52H854.788ZM862.199 567.208C860.071 567.208 858.167 565.544 858.167 562.664C858.167 559.768 860.071 558.088 862.199 558.088C864.327 558.088 866.231 559.768 866.231 562.664C866.231 565.544 864.327 567.208 862.199 567.208ZM862.199 565.992C863.687 565.992 864.727 564.664 864.727 562.664C864.727 560.664 863.687 559.304 862.199 559.304C860.711 559.304 859.687 560.664 859.687 562.664C859.687 564.664 860.711 565.992 862.199 565.992ZM869.646 558.312L869.774 559.56H869.822C870.654 558.744 871.534 558.088 872.734 558.088C874.606 558.088 875.39 559.24 875.39 561.496V567H873.934V561.688C873.934 560.024 873.438 559.368 872.286 559.368C871.39 559.368 870.782 559.816 869.902 560.696V567H868.446V558.312H869.646Z" fill="#222222"/>
<rect x="68.5" y="224.5" width="296" height="39" rx="7.5" stroke="#12A4C5"/>
<path d="M168.999 239.52V238.272H177.591V239.52H174.039V250H172.551V239.52H168.999ZM180.16 250.208C178.704 250.208 177.632 249.248 177.632 247.664C177.632 245.424 179.536 244.544 182.976 244.496C182.976 243.376 182.608 242.304 181.184 242.304C180.16 242.304 179.184 242.688 178.496 243.152L177.92 242.112C178.736 241.6 180.016 241.088 181.424 241.088C183.536 241.088 184.432 242.528 184.432 244.656V250H183.232L183.104 249.072H183.056C182.224 249.76 181.248 250.208 180.16 250.208ZM180.576 249.04C181.424 249.04 182.128 248.784 182.976 248.032V245.456C179.888 245.664 179.056 246.224 179.056 247.568C179.056 248.592 179.68 249.04 180.576 249.04ZM189.399 250.208C188.167 250.208 186.983 249.696 186.151 249.008L186.871 248.048C187.623 248.672 188.407 249.072 189.447 249.072C190.599 249.072 191.159 248.464 191.159 247.712C191.159 246.832 190.135 246.448 189.175 246.064C187.959 245.632 186.583 245.008 186.583 243.552C186.583 242.192 187.687 241.088 189.575 241.088C190.663 241.088 191.591 241.536 192.279 242.064L191.575 243.008C190.951 242.56 190.359 242.24 189.575 242.24C188.487 242.24 187.991 242.8 187.991 243.488C187.991 244.32 188.935 244.608 189.911 244.992C191.175 245.456 192.567 246 192.567 247.632C192.567 249.04 191.447 250.208 189.399 250.208ZM195.971 237.264V245.904H196.003L199.731 241.312H201.347L198.435 244.8L201.731 250H200.147L197.603 245.808L195.971 247.712V250H194.531V237.264H195.971ZM211.338 250.208C208.442 250.208 206.234 247.936 206.234 244.144C206.234 240.352 208.442 238.048 211.434 238.048C212.858 238.048 213.978 238.752 214.65 239.504L213.85 240.464C213.226 239.808 212.474 239.344 211.45 239.344C209.226 239.344 207.754 241.152 207.754 244.096C207.754 247.056 209.162 248.912 211.402 248.912C212.554 248.912 213.37 248.416 214.122 247.6L214.938 248.528C213.978 249.616 212.874 250.208 211.338 250.208ZM218.885 250.208C217.429 250.208 216.357 249.248 216.357 247.664C216.357 245.424 218.261 244.544 221.701 244.496C221.701 243.376 221.333 242.304 219.909 242.304C218.885 242.304 217.909 242.688 217.221 243.152L216.645 242.112C217.461 241.6 218.741 241.088 220.149 241.088C222.261 241.088 223.157 242.528 223.157 244.656V250H221.957L221.829 249.072H221.781C220.949 249.76 219.973 250.208 218.885 250.208ZM219.301 249.04C220.149 249.04 220.853 248.784 221.701 248.032V245.456C218.613 245.664 217.781 246.224 217.781 247.568C217.781 248.592 218.405 249.04 219.301 249.04ZM227.052 241.312L227.18 242.304H227.228C228.012 241.664 228.972 241.088 229.996 241.088C232.236 241.088 233.452 242.848 233.452 245.52C233.452 248.512 231.66 250.208 229.676 250.208C228.892 250.208 228.06 249.84 227.276 249.2L227.308 250.72V253.664H225.852V241.312H227.052ZM229.436 248.992C230.892 248.992 231.932 247.696 231.932 245.536C231.932 243.616 231.292 242.32 229.644 242.32C228.892 242.32 228.156 242.736 227.308 243.52V248.08C228.092 248.768 228.86 248.992 229.436 248.992ZM238.133 250.208C236.277 250.208 235.653 249.056 235.653 247.312V242.496H234.357V241.392L235.717 241.312L235.893 238.88H237.109V241.312H239.461V242.496H237.109V247.344C237.109 248.432 237.429 249.024 238.453 249.024C238.757 249.024 239.141 248.912 239.445 248.8L239.733 249.888C239.237 250.064 238.661 250.208 238.133 250.208ZM243.876 250.208C242.004 250.208 241.236 249.072 241.236 246.816V241.312H242.692V246.64C242.692 248.256 243.172 248.944 244.324 248.944C245.22 248.944 245.844 248.512 246.676 247.472V241.312H248.132V250H246.916L246.804 248.64H246.756C245.94 249.584 245.076 250.208 243.876 250.208ZM252.187 241.312L252.315 242.896H252.363C252.987 241.792 253.851 241.088 254.827 241.088C255.211 241.088 255.483 241.136 255.755 241.28L255.483 242.56C255.179 242.448 255.003 242.416 254.635 242.416C253.931 242.416 253.003 242.928 252.443 244.416V250H250.987V241.312H252.187ZM260.614 250.208C258.31 250.208 256.454 248.544 256.454 245.664C256.454 242.848 258.358 241.088 260.374 241.088C262.582 241.088 263.83 242.688 263.83 245.168C263.83 245.488 263.814 245.792 263.766 246H257.91C258.022 247.872 259.126 249.04 260.79 249.04C261.638 249.04 262.326 248.784 262.966 248.352L263.494 249.312C262.726 249.808 261.83 250.208 260.614 250.208ZM262.55 244.96C262.55 243.152 261.75 242.256 260.39 242.256C259.158 242.256 258.07 243.248 257.894 244.96H262.55Z" fill="#222222"/>
<rect x="403.5" y="224.5" width="296" height="39" rx="7.5" stroke="#12A4C5"/>
<path d="M507.021 250.208C504.637 250.208 502.813 248.928 502.813 245.152V238.272H504.301V245.2C504.301 248.016 505.485 248.912 507.021 248.912C508.605 248.912 509.821 248.016 509.821 245.2V238.272H511.245V245.152C511.245 248.928 509.421 250.208 507.021 250.208ZM513.912 241.312H515.368V250H513.912V241.312ZM513.928 239.52V238.016H515.384V239.52H513.928ZM521.436 238.272C524.06 238.272 525.836 239.152 525.836 241.712C525.836 244.208 524.076 245.344 521.516 245.344H519.58V250H518.092V238.272H521.436ZM521.324 244.144C523.388 244.144 524.364 243.392 524.364 241.712C524.364 240.032 523.324 239.472 521.26 239.472H519.58V244.144H521.324ZM529.212 250.208C527.756 250.208 526.684 249.248 526.684 247.664C526.684 245.424 528.588 244.544 532.028 244.496C532.028 243.376 531.66 242.304 530.236 242.304C529.212 242.304 528.236 242.688 527.548 243.152L526.972 242.112C527.788 241.6 529.068 241.088 530.476 241.088C532.588 241.088 533.484 242.528 533.484 244.656V250H532.284L532.156 249.072H532.108C531.276 249.76 530.3 250.208 529.212 250.208ZM529.628 249.04C530.476 249.04 531.18 248.784 532.028 248.032V245.456C528.94 245.664 528.108 246.224 528.108 247.568C528.108 248.592 528.732 249.04 529.628 249.04ZM538.915 250.208C537.059 250.208 536.435 249.056 536.435 247.312V242.496H535.139V241.392L536.499 241.312L536.675 238.88H537.891V241.312H540.243V242.496H537.891V247.344C537.891 248.432 538.211 249.024 539.235 249.024C539.539 249.024 539.923 248.912 540.227 248.8L540.515 249.888C540.019 250.064 539.443 250.208 538.915 250.208ZM543.586 237.264V240.752L543.538 242.544C544.354 241.728 545.218 241.088 546.418 241.088C548.29 241.088 549.074 242.24 549.074 244.496V250H547.618V244.688C547.618 243.024 547.122 242.368 545.97 242.368C545.074 242.368 544.466 242.816 543.586 243.696V250H542.13V237.264H543.586ZM558.659 250.208C556.995 250.208 555.571 249.552 554.547 248.464L555.427 247.456C556.275 248.352 557.459 248.912 558.675 248.912C560.211 248.912 561.139 248.144 561.139 246.992C561.139 245.792 560.291 245.424 559.187 244.912L557.491 244.176C556.419 243.712 555.107 242.896 555.107 241.168C555.107 239.36 556.675 238.048 558.803 238.048C560.211 238.048 561.427 238.608 562.259 239.504L561.475 240.448C560.755 239.76 559.891 239.344 558.803 239.344C557.459 239.344 556.611 239.984 556.611 241.072C556.611 242.224 557.635 242.64 558.547 243.024L560.227 243.744C561.587 244.336 562.643 245.136 562.643 246.88C562.643 248.736 561.107 250.208 558.659 250.208ZM567.032 250.208C565.176 250.208 564.552 249.056 564.552 247.312V242.496H563.256V241.392L564.616 241.312L564.792 238.88H566.008V241.312H568.36V242.496H566.008V247.344C566.008 248.432 566.328 249.024 567.352 249.024C567.656 249.024 568.04 248.912 568.344 248.8L568.632 249.888C568.136 250.064 567.56 250.208 567.032 250.208ZM572.776 250.208C570.904 250.208 570.136 249.072 570.136 246.816V241.312H571.592V246.64C571.592 248.256 572.072 248.944 573.224 248.944C574.12 248.944 574.744 248.512 575.576 247.472V241.312H577.032V250H575.816L575.704 248.64H575.656C574.84 249.584 573.976 250.208 572.776 250.208ZM582.846 250.208C580.67 250.208 579.262 248.56 579.262 245.664C579.262 242.848 581.038 241.088 583.022 241.088C584.046 241.088 584.702 241.472 585.47 242.112L585.39 240.608V237.264H586.846V250H585.662L585.518 248.976H585.486C584.798 249.664 583.886 250.208 582.846 250.208ZM583.166 248.992C583.982 248.992 584.67 248.608 585.39 247.792V243.232C584.638 242.576 583.998 242.32 583.278 242.32C581.87 242.32 580.766 243.664 580.766 245.648C580.766 247.776 581.63 248.992 583.166 248.992ZM589.456 241.312H590.912V250H589.456V241.312ZM589.472 239.52V238.016H590.928V239.52H589.472ZM596.884 250.208C594.756 250.208 592.852 248.544 592.852 245.664C592.852 242.768 594.756 241.088 596.884 241.088C599.012 241.088 600.916 242.768 600.916 245.664C600.916 248.544 599.012 250.208 596.884 250.208ZM596.884 248.992C598.372 248.992 599.412 247.664 599.412 245.664C599.412 243.664 598.372 242.304 596.884 242.304C595.396 242.304 594.372 243.664 594.372 245.664C594.372 247.664 595.396 248.992 596.884 248.992Z" fill="#222222"/>
<rect x="68.5" y="278.5" width="296" height="39" rx="7.5" stroke="#12A4C5"/>
<path d="M158.099 300.416L156.963 304H155.459L159.443 292.272H161.091L165.075 304H163.507L162.387 300.416H158.099ZM161.459 297.44C161.027 296.096 160.659 294.832 160.275 293.472H160.211C159.843 294.88 159.475 296.096 159.043 297.44L158.467 299.232H162.019L161.459 297.44ZM169.049 304.208C167.177 304.208 166.409 303.072 166.409 300.816V295.312H167.865V300.64C167.865 302.256 168.345 302.944 169.497 302.944C170.393 302.944 171.017 302.512 171.849 301.472V295.312H173.305V304H172.089L171.977 302.64H171.929C171.113 303.584 170.249 304.208 169.049 304.208ZM178.896 304.208C177.04 304.208 176.416 303.056 176.416 301.312V296.496H175.12V295.392L176.48 295.312L176.656 292.88H177.872V295.312H180.224V296.496H177.872V301.344C177.872 302.432 178.192 303.024 179.216 303.024C179.52 303.024 179.904 302.912 180.208 302.8L180.496 303.888C180 304.064 179.424 304.208 178.896 304.208ZM185.487 304.208C183.359 304.208 181.455 302.544 181.455 299.664C181.455 296.768 183.359 295.088 185.487 295.088C187.615 295.088 189.519 296.768 189.519 299.664C189.519 302.544 187.615 304.208 185.487 304.208ZM185.487 302.992C186.975 302.992 188.015 301.664 188.015 299.664C188.015 297.664 186.975 296.304 185.487 296.304C183.999 296.304 182.975 297.664 182.975 299.664C182.975 301.664 183.999 302.992 185.487 302.992ZM192.935 295.312L193.063 296.576H193.111C193.863 295.744 194.775 295.088 195.815 295.088C197.159 295.088 197.847 295.728 198.215 296.752C199.111 295.776 199.991 295.088 201.079 295.088C202.887 295.088 203.719 296.24 203.719 298.496V304H202.263V298.688C202.263 297.024 201.751 296.368 200.647 296.368C200.007 296.368 199.271 296.816 198.455 297.696V304H196.999V298.688C196.999 297.024 196.487 296.368 195.383 296.368C194.711 296.368 193.975 296.816 193.191 297.696V304H191.735V295.312H192.935ZM208.451 304.208C206.995 304.208 205.923 303.248 205.923 301.664C205.923 299.424 207.827 298.544 211.267 298.496C211.267 297.376 210.899 296.304 209.475 296.304C208.451 296.304 207.475 296.688 206.787 297.152L206.211 296.112C207.027 295.6 208.307 295.088 209.715 295.088C211.827 295.088 212.723 296.528 212.723 298.656V304H211.523L211.395 303.072H211.347C210.515 303.76 209.539 304.208 208.451 304.208ZM208.867 303.04C209.715 303.04 210.419 302.784 211.267 302.032V299.456C208.179 299.664 207.347 300.224 207.347 301.568C207.347 302.592 207.971 303.04 208.867 303.04ZM218.154 304.208C216.298 304.208 215.674 303.056 215.674 301.312V296.496H214.378V295.392L215.738 295.312L215.914 292.88H217.13V295.312H219.482V296.496H217.13V301.344C217.13 302.432 217.45 303.024 218.474 303.024C218.778 303.024 219.162 302.912 219.466 302.8L219.754 303.888C219.258 304.064 218.682 304.208 218.154 304.208ZM221.098 295.312H222.554V304H221.098V295.312ZM221.114 293.52V292.016H222.57V293.52H221.114ZM228.525 304.208C226.397 304.208 224.493 302.544 224.493 299.664C224.493 296.768 226.397 295.088 228.525 295.088C230.653 295.088 232.557 296.768 232.557 299.664C232.557 302.544 230.653 304.208 228.525 304.208ZM228.525 302.992C230.013 302.992 231.053 301.664 231.053 299.664C231.053 297.664 230.013 296.304 228.525 296.304C227.037 296.304 226.013 297.664 226.013 299.664C226.013 301.664 227.037 302.992 228.525 302.992ZM235.972 295.312L236.1 296.56H236.148C236.98 295.744 237.86 295.088 239.06 295.088C240.932 295.088 241.716 296.24 241.716 298.496V304H240.26V298.688C240.26 297.024 239.764 296.368 238.612 296.368C237.716 296.368 237.108 296.816 236.228 297.696V304H234.772V295.312H235.972ZM249.587 292.272V297.184H255.059V292.272H256.531V304H255.059V298.464H249.587V304H248.099V292.272H249.587ZM262.06 304.208C260.188 304.208 259.42 303.072 259.42 300.816V295.312H260.876V300.64C260.876 302.256 261.356 302.944 262.508 302.944C263.404 302.944 264.028 302.512 264.86 301.472V295.312H266.316V304H265.1L264.988 302.64H264.94C264.124 303.584 263.26 304.208 262.06 304.208ZM272.995 304.208C272.179 304.208 271.283 303.808 270.515 303.104H270.467L270.339 304H269.171V291.264H270.627V294.752L270.579 296.32C271.363 295.632 272.339 295.088 273.299 295.088C275.555 295.088 276.771 296.864 276.771 299.504C276.771 302.512 274.979 304.208 272.995 304.208ZM272.755 302.992C274.211 302.992 275.251 301.696 275.251 299.536C275.251 297.616 274.611 296.32 272.963 296.32C272.211 296.32 271.459 296.736 270.627 297.52V302.08C271.395 302.768 272.179 302.992 272.755 302.992Z" fill="#222222"/>
<rect x="403.5" y="278.5" width="296" height="39" rx="7.5" stroke="#12A4C5"/>
<path d="M500.437 304.208C498.053 304.208 496.229 302.928 496.229 299.152V292.272H497.717V299.2C497.717 302.016 498.901 302.912 500.437 302.912C502.021 302.912 503.237 302.016 503.237 299.2V292.272H504.661V299.152C504.661 302.928 502.837 304.208 500.437 304.208ZM507.328 295.312H508.784V304H507.328V295.312ZM507.344 293.52V292.016H508.8V293.52H507.344ZM514.852 292.272C517.476 292.272 519.252 293.152 519.252 295.712C519.252 298.208 517.492 299.344 514.932 299.344H512.996V304H511.508V292.272H514.852ZM514.74 298.144C516.804 298.144 517.78 297.392 517.78 295.712C517.78 294.032 516.74 293.472 514.676 293.472H512.996V298.144H514.74ZM522.628 304.208C521.172 304.208 520.1 303.248 520.1 301.664C520.1 299.424 522.004 298.544 525.444 298.496C525.444 297.376 525.076 296.304 523.652 296.304C522.628 296.304 521.652 296.688 520.964 297.152L520.388 296.112C521.204 295.6 522.484 295.088 523.892 295.088C526.004 295.088 526.9 296.528 526.9 298.656V304H525.7L525.572 303.072H525.524C524.692 303.76 523.716 304.208 522.628 304.208ZM523.044 303.04C523.892 303.04 524.596 302.784 525.444 302.032V299.456C522.356 299.664 521.524 300.224 521.524 301.568C521.524 302.592 522.148 303.04 523.044 303.04ZM532.331 304.208C530.475 304.208 529.851 303.056 529.851 301.312V296.496H528.555V295.392L529.915 295.312L530.091 292.88H531.307V295.312H533.659V296.496H531.307V301.344C531.307 302.432 531.627 303.024 532.651 303.024C532.955 303.024 533.339 302.912 533.643 302.8L533.931 303.888C533.435 304.064 532.859 304.208 532.331 304.208ZM537.002 291.264V294.752L536.954 296.544C537.77 295.728 538.634 295.088 539.834 295.088C541.706 295.088 542.49 296.24 542.49 298.496V304H541.034V298.688C541.034 297.024 540.538 296.368 539.386 296.368C538.49 296.368 537.882 296.816 537.002 297.696V304H535.546V291.264H537.002ZM552.075 304.208C550.411 304.208 548.987 303.552 547.963 302.464L548.843 301.456C549.691 302.352 550.875 302.912 552.091 302.912C553.627 302.912 554.555 302.144 554.555 300.992C554.555 299.792 553.707 299.424 552.603 298.912L550.907 298.176C549.835 297.712 548.523 296.896 548.523 295.168C548.523 293.36 550.091 292.048 552.219 292.048C553.627 292.048 554.843 292.608 555.675 293.504L554.891 294.448C554.171 293.76 553.307 293.344 552.219 293.344C550.875 293.344 550.027 293.984 550.027 295.072C550.027 296.224 551.051 296.64 551.963 297.024L553.643 297.744C555.003 298.336 556.059 299.136 556.059 300.88C556.059 302.736 554.523 304.208 552.075 304.208ZM560.448 304.208C558.592 304.208 557.968 303.056 557.968 301.312V296.496H556.672V295.392L558.032 295.312L558.208 292.88H559.424V295.312H561.776V296.496H559.424V301.344C559.424 302.432 559.744 303.024 560.768 303.024C561.072 303.024 561.456 302.912 561.76 302.8L562.048 303.888C561.552 304.064 560.976 304.208 560.448 304.208ZM566.192 304.208C564.32 304.208 563.552 303.072 563.552 300.816V295.312H565.008V300.64C565.008 302.256 565.488 302.944 566.64 302.944C567.536 302.944 568.16 302.512 568.992 301.472V295.312H570.448V304H569.232L569.12 302.64H569.072C568.256 303.584 567.392 304.208 566.192 304.208ZM576.262 304.208C574.086 304.208 572.678 302.56 572.678 299.664C572.678 296.848 574.454 295.088 576.438 295.088C577.462 295.088 578.118 295.472 578.886 296.112L578.806 294.608V291.264H580.262V304H579.078L578.934 302.976H578.902C578.214 303.664 577.302 304.208 576.262 304.208ZM576.582 302.992C577.398 302.992 578.086 302.608 578.806 301.792V297.232C578.054 296.576 577.414 296.32 576.694 296.32C575.286 296.32 574.182 297.664 574.182 299.648C574.182 301.776 575.046 302.992 576.582 302.992ZM582.872 295.312H584.328V304H582.872V295.312ZM582.888 293.52V292.016H584.344V293.52H582.888ZM590.3 304.208C588.172 304.208 586.268 302.544 586.268 299.664C586.268 296.768 588.172 295.088 590.3 295.088C592.428 295.088 594.332 296.768 594.332 299.664C594.332 302.544 592.428 304.208 590.3 304.208ZM590.3 302.992C591.788 302.992 592.828 301.664 592.828 299.664C592.828 297.664 591.788 296.304 590.3 296.304C588.812 296.304 587.788 297.664 587.788 299.664C587.788 301.664 588.812 302.992 590.3 302.992ZM595.571 292.272H597.203L598.803 295.264C599.107 295.824 599.347 296.288 599.731 296.976H599.795C600.115 296.288 600.323 295.824 600.627 295.264L602.195 292.272H603.747L600.547 298.016L603.971 304H602.339L600.611 300.832C600.307 300.256 599.987 299.648 599.603 298.944H599.539C599.203 299.632 598.899 300.272 598.595 300.832L596.899 304H595.347L598.771 297.936L595.571 292.272Z" fill="#222222"/>
<rect x="68" y="385" width="965" height="43" rx="8" fill="#12A4C5"/>
<path d="M488.132 409.8H483.012L481.752 414H479.392L484.272 399.28H486.952L491.832 414H489.372L488.132 409.8ZM487.572 407.98L486.992 406C486.492 404.4 486.052 402.78 485.592 401.1H485.512C485.092 402.78 484.632 404.4 484.152 406L483.552 407.98H487.572ZM497.293 414.26C494.473 414.26 492.753 412.22 492.753 408.52C492.753 404.92 495.013 402.72 497.473 402.72C498.753 402.72 499.533 403.18 500.433 403.96L500.333 402.14V398.06H502.633V414H500.753L500.553 412.76H500.493C499.673 413.62 498.573 414.26 497.293 414.26ZM497.833 412.36C498.733 412.36 499.553 411.92 500.333 411.02V405.64C499.513 404.9 498.733 404.64 497.913 404.64C496.373 404.64 495.133 406.1 495.133 408.48C495.133 410.98 496.073 412.36 497.833 412.36ZM509.791 414.26C506.971 414.26 505.251 412.22 505.251 408.52C505.251 404.92 507.511 402.72 509.971 402.72C511.251 402.72 512.031 403.18 512.931 403.96L512.831 402.14V398.06H515.131V414H513.251L513.051 412.76H512.991C512.171 413.62 511.071 414.26 509.791 414.26ZM510.331 412.36C511.231 412.36 512.051 411.92 512.831 411.02V405.64C512.011 404.9 511.231 404.64 510.411 404.64C508.871 404.64 507.631 406.1 507.631 408.48C507.631 410.98 508.571 412.36 510.331 412.36ZM517.748 405.78H524.548V407.48H517.748V405.78ZM531.597 414.26C528.877 414.26 526.417 412.14 526.417 408.52C526.417 404.84 528.877 402.72 531.597 402.72C534.317 402.72 536.777 404.84 536.777 408.52C536.777 412.14 534.317 414.26 531.597 414.26ZM531.597 412.38C533.337 412.38 534.417 410.84 534.417 408.52C534.417 406.18 533.357 404.62 531.597 404.62C529.837 404.62 528.797 406.18 528.797 408.52C528.797 410.84 529.897 412.38 531.597 412.38ZM539.362 403H541.242L541.422 404.52H541.482C542.502 403.54 543.622 402.72 545.122 402.72C547.462 402.72 548.502 404.26 548.502 407.08V414H546.202V407.36C546.202 405.44 545.642 404.7 544.342 404.7C543.322 404.7 542.622 405.22 541.642 406.2V414H539.362V403ZM563.115 409.8H557.995L556.735 414H554.375L559.255 399.28H561.935L566.815 414H564.355L563.115 409.8ZM562.555 407.98L561.975 406C561.475 404.4 561.035 402.78 560.575 401.1H560.495C560.075 402.78 559.615 404.4 559.135 406L558.535 407.98H562.555ZM568.677 399.28H570.997V414H568.677V399.28ZM582.101 401.22H577.781V399.28H588.761V401.22H584.421V414H582.101V401.22ZM594.026 414.26C591.046 414.26 588.666 412.14 588.666 408.52C588.666 404.92 591.106 402.72 593.686 402.72C596.606 402.72 598.166 404.82 598.166 407.94C598.166 408.42 598.126 408.8 598.066 409.1H590.926C591.106 411.2 592.406 412.46 594.326 412.46C595.306 412.46 596.146 412.18 596.946 411.64L597.746 413.1C596.726 413.8 595.466 414.26 594.026 414.26ZM596.186 407.52C596.186 405.6 595.326 404.52 593.726 404.52C592.366 404.52 591.126 405.6 590.906 407.52H596.186ZM605.154 414.26C602.174 414.26 599.894 412.14 599.894 408.52C599.894 404.84 602.434 402.72 605.334 402.72C606.774 402.72 607.754 403.28 608.554 403.98L607.414 405.48C606.794 404.94 606.214 404.62 605.434 404.62C603.614 404.62 602.274 406.18 602.274 408.52C602.274 410.84 603.534 412.38 605.374 412.38C606.314 412.38 607.114 411.94 607.774 411.38L608.714 412.9C607.694 413.8 606.434 414.26 605.154 414.26ZM610.906 398.06H613.186V402.28L613.106 404.46C614.066 403.52 615.146 402.72 616.666 402.72C619.006 402.72 620.046 404.26 620.046 407.08V414H617.746V407.36C617.746 405.44 617.186 404.7 615.886 404.7C614.866 404.7 614.166 405.22 613.186 406.2V414H610.906V398.06Z" fill="white"/>
</svg>
