<svg width="1093" height="79" viewBox="0 0 1093 79" fill="none" xmlns="http://www.w3.org/2000/svg">
<mask id="path-1-outside-1_719_1104" maskUnits="userSpaceOnUse" x="3" y="-1" width="1086" height="81" fill="black">
<rect fill="white" x="3" y="-1" width="1086" height="81"/>
<path d="M29.475 61.05C15.375 61.05 4.05 51 4.05 32.475C4.05 14.175 15.825 3.45 29.85 3.45C37.05 3.45 42.525 6.75 46.125 10.575L40.275 17.625C37.5 14.925 34.275 12.975 30.075 12.975C21.675 12.975 15.375 20.175 15.375 32.1C15.375 44.175 21.075 51.45 29.85 51.45C34.65 51.45 38.325 49.2 41.325 45.975L47.175 52.875C42.6 58.35 36.75 61.05 29.475 61.05ZM72.392 61.05C61.892 61.05 52.217 52.875 52.217 39.075C52.217 25.05 61.892 16.95 72.392 16.95C82.892 16.95 92.567 25.05 92.567 39.075C92.567 52.875 82.892 61.05 72.392 61.05ZM72.392 52.05C78.092 52.05 81.317 46.95 81.317 39.075C81.317 30.975 78.092 25.95 72.392 25.95C66.692 25.95 63.467 30.975 63.467 39.075C63.467 46.95 66.692 52.05 72.392 52.05ZM116.19 78.225C106.29 78.225 98.6402 74.85 98.6402 67.425C98.6402 63.9 100.815 60.9 104.64 58.725V58.35C102.465 56.925 100.815 54.825 100.815 51.3C100.815 48.075 102.99 45.225 105.465 43.425V43.125C102.54 41.025 99.9152 37.05 99.9152 32.175C99.9152 22.275 107.94 16.95 116.865 16.95C119.19 16.95 121.44 17.4 123.165 18H138.315V26.1H131.115C132.24 27.525 133.065 29.85 133.065 32.475C133.065 41.85 125.865 46.725 116.865 46.725C115.14 46.725 113.265 46.35 111.465 45.75C110.265 46.725 109.665 47.625 109.665 49.35C109.665 51.675 111.165 52.8 116.265 52.8H123.39C133.665 52.8 138.99 55.8 138.99 63.3C138.99 71.775 130.29 78.225 116.19 78.225ZM116.865 39.9C120.54 39.9 123.39 37.275 123.39 32.175C123.39 27.075 120.69 24.45 116.865 24.45C113.04 24.45 110.265 27.075 110.265 32.175C110.265 37.275 113.19 39.9 116.865 39.9ZM117.84 71.25C124.14 71.25 128.49 68.475 128.49 65.175C128.49 62.175 126.015 61.425 121.515 61.425H116.415C113.79 61.425 112.065 61.2 110.565 60.825C108.69 62.325 107.79 63.975 107.79 65.7C107.79 69.225 111.54 71.25 117.84 71.25ZM145.791 60V18H154.791L155.541 23.55H155.841C159.516 19.95 163.791 16.95 169.491 16.95C178.566 16.95 182.466 23.25 182.466 33.825V60H171.441V35.175C171.441 28.65 169.716 26.4 165.516 26.4C161.991 26.4 159.966 28.05 156.741 31.125V60H145.791ZM203.438 0.599996V11.25H192.488V0.599996H203.438ZM203.363 60H192.413V18H203.363V60ZM229.191 61.05C219.216 61.05 215.391 54.75 215.391 45.3V26.7H209.466V18.525L215.916 18L217.191 6.75H226.416V18H236.766V26.7H226.416V45.3C226.416 50.025 228.291 52.35 232.116 52.35C233.541 52.35 235.116 51.975 236.241 51.45L238.041 59.475C235.716 60.3 232.866 61.05 229.191 61.05ZM254.91 0.599996V11.25H243.96V0.599996H254.91ZM254.835 60H243.885V18H254.835V60ZM274.737 60L260.412 18H271.512L277.662 38.925C278.787 43.125 279.912 47.4 281.037 51.675H281.412C282.537 47.4 283.662 43.125 284.787 38.925L290.937 18H301.512L287.487 60H274.737ZM326.35 61.05C314.65 61.05 305.5 52.875 305.5 39.075C305.5 25.5 315.1 16.95 325.075 16.95C336.625 16.95 342.625 25.425 342.625 37.05C342.625 39.075 342.4 41.1 342.1 42.075H316.225C317.125 48.975 321.55 52.575 327.85 52.575C331.375 52.575 334.3 51.525 337.3 49.65L341.05 56.4C336.85 59.325 331.75 61.05 326.35 61.05ZM316.075 34.8H333.175C333.175 29.1 330.625 25.5 325.225 25.5C320.8 25.5 316.9 28.725 316.075 34.8ZM368.846 60V4.5H387.071C399.296 4.5 408.821 8.7 408.821 21.9C408.821 34.575 399.296 40.275 387.371 40.275H379.946V60H368.846ZM379.946 31.5H386.621C394.196 31.5 397.946 28.275 397.946 21.9C397.946 15.375 393.971 13.275 386.246 13.275H379.946V31.5ZM417.596 60V18H426.596L427.346 25.425H427.646C430.721 19.95 435.071 16.95 439.571 16.95C441.896 16.95 443.246 17.325 444.521 17.85L442.571 27.375C441.146 26.85 439.946 26.7 438.221 26.7C434.921 26.7 430.946 28.875 428.546 34.95V60H417.596ZM467.437 61.05C456.937 61.05 447.262 52.875 447.262 39.075C447.262 25.05 456.937 16.95 467.437 16.95C477.937 16.95 487.612 25.05 487.612 39.075C487.612 52.875 477.937 61.05 467.437 61.05ZM467.437 52.05C473.137 52.05 476.362 46.95 476.362 39.075C476.362 30.975 473.137 25.95 467.437 25.95C461.737 25.95 458.512 30.975 458.512 39.075C458.512 46.95 461.737 52.05 467.437 52.05ZM514.31 61.05C502.685 61.05 493.835 52.875 493.835 39.075C493.835 25.05 503.885 16.95 515.285 16.95C520.46 16.95 524.435 18.975 527.51 21.6L522.26 28.725C520.16 26.925 518.21 25.95 515.81 25.95C509.435 25.95 505.085 30.975 505.085 39.075C505.085 45.45 508.235 52.05 515.51 52.05C518.51 52.05 521.36 50.7 523.685 48.675L528.035 55.95C524.06 59.475 519.11 61.05 514.31 61.05ZM551.59 61.05C539.89 61.05 530.74 52.875 530.74 39.075C530.74 25.5 540.34 16.95 550.315 16.95C561.865 16.95 567.865 25.425 567.865 37.05C567.865 39.075 567.64 41.1 567.34 42.075H541.465C542.365 48.975 546.79 52.575 553.09 52.575C556.615 52.575 559.54 51.525 562.54 49.65L566.29 56.4C562.09 59.325 556.99 61.05 551.59 61.05ZM541.315 34.8H558.415C558.415 29.1 555.865 25.5 550.465 25.5C546.04 25.5 542.14 28.725 541.315 34.8ZM588.57 61.05C582.87 61.05 576.795 58.65 572.595 55.125L577.62 48.225C581.445 51.15 584.97 52.8 588.87 52.8C593.07 52.8 594.945 51 594.945 48.375C594.945 45.225 590.595 43.875 586.17 42.075C580.845 40.125 574.695 36.825 574.695 29.85C574.695 22.275 580.92 16.95 590.295 16.95C596.595 16.95 601.095 19.5 604.62 22.125L599.67 28.8C596.67 26.7 593.82 25.2 590.595 25.2C586.77 25.2 585.045 26.85 585.045 29.25C585.045 32.25 589.17 33.525 593.595 35.1C599.145 37.275 605.295 39.9 605.295 47.775C605.295 55.125 599.52 61.05 588.57 61.05ZM625.328 61.05C619.628 61.05 613.553 58.65 609.353 55.125L614.378 48.225C618.203 51.15 621.728 52.8 625.628 52.8C629.828 52.8 631.703 51 631.703 48.375C631.703 45.225 627.353 43.875 622.928 42.075C617.603 40.125 611.453 36.825 611.453 29.85C611.453 22.275 617.678 16.95 627.053 16.95C633.353 16.95 637.853 19.5 641.378 22.125L636.428 28.8C633.428 26.7 630.578 25.2 627.353 25.2C623.528 25.2 621.803 26.85 621.803 29.25C621.803 32.25 625.928 33.525 630.353 35.1C635.903 37.275 642.053 39.9 642.053 47.775C642.053 55.125 636.278 61.05 625.328 61.05ZM697.529 60L693.629 45.75H675.629L671.729 60H660.479L678.254 4.5H691.304L709.154 60H697.529ZM678.029 37.125H691.229L689.579 31.05C687.854 25.275 686.429 18.9 684.704 12.9H684.404C682.979 18.975 681.404 25.275 679.679 31.05L678.029 37.125ZM726.826 61.05C717.826 61.05 713.926 54.75 713.926 44.25V18H724.951V42.825C724.951 49.425 726.601 51.6 730.801 51.6C734.326 51.6 736.426 50.175 739.351 46.35V18H750.376V60H741.376L740.551 54H740.251C736.651 58.275 732.601 61.05 726.826 61.05ZM777.13 61.05C767.155 61.05 763.33 54.75 763.33 45.3V26.7H757.405V18.525L763.855 18L765.13 6.75H774.355V18H784.705V26.7H774.355V45.3C774.355 50.025 776.23 52.35 780.055 52.35C781.48 52.35 783.055 51.975 784.18 51.45L785.98 59.475C783.655 60.3 780.805 61.05 777.13 61.05ZM809.033 61.05C798.533 61.05 788.858 52.875 788.858 39.075C788.858 25.05 798.533 16.95 809.033 16.95C819.533 16.95 829.208 25.05 829.208 39.075C829.208 52.875 819.533 61.05 809.033 61.05ZM809.033 52.05C814.733 52.05 817.958 46.95 817.958 39.075C817.958 30.975 814.733 25.95 809.033 25.95C803.333 25.95 800.108 30.975 800.108 39.075C800.108 46.95 803.333 52.05 809.033 52.05ZM838.056 60V18H847.056L847.806 23.625H848.106C851.631 19.95 855.531 16.95 861.006 16.95C867.006 16.95 870.531 19.5 872.556 24.3C876.381 20.1 880.431 16.95 885.906 16.95C894.906 16.95 898.956 23.25 898.956 33.825V60H887.931V35.175C887.931 28.575 886.056 26.4 882.081 26.4C879.681 26.4 876.981 27.975 873.981 31.125V60H862.956V35.175C862.956 28.575 861.081 26.4 857.106 26.4C854.706 26.4 852.006 27.975 849.006 31.125V60H838.056ZM920.321 60.75C912.821 60.75 907.871 55.875 907.871 48.6C907.346 38.325 914.621 33.6 932.021 33.075C932.246 31.275 931.871 29.475 931.046 27.75C930.146 26.475 928.121 25.8 924.896 25.8C920.996 25.8 916.571 27.3 912.746 29.775L909.446 21.9C914.021 19.125 920.321 16.95 926.921 16.95C937.646 16.95 943.046 23.1 943.046 35.475V60H934.046L933.221 55.725H932.996C929.396 58.8 925.121 60.75 920.321 60.75ZM923.696 52.35C926.921 52.275 929.396 50.925 932.021 48.3V39.825C929.396 40.05 926.846 40.275 924.446 40.65C919.646 41.325 917.921 43.725 917.996 46.725C918.071 50.25 920.471 52.35 923.696 52.35ZM967.891 61.05C957.916 61.05 954.091 54.75 954.091 45.3V26.7H948.166V18.525L954.616 18L955.891 6.75H965.116V18H975.466V26.7H965.116V45.3C965.116 50.025 966.991 52.35 970.816 52.35C972.241 52.35 973.816 51.975 974.941 51.45L976.741 59.475C974.416 60.3 971.566 61.05 967.891 61.05ZM993.61 0.599996V11.25H982.66V0.599996H993.61ZM993.535 60H982.585V18H993.535V60ZM1021.54 61.05C1011.04 61.05 1001.36 52.875 1001.36 39.075C1001.36 25.05 1011.04 16.95 1021.54 16.95C1032.04 16.95 1041.71 25.05 1041.71 39.075C1041.71 52.875 1032.04 61.05 1021.54 61.05ZM1021.54 52.05C1027.24 52.05 1030.46 46.95 1030.46 39.075C1030.46 30.975 1027.24 25.95 1021.54 25.95C1015.84 25.95 1012.61 30.975 1012.61 39.075C1012.61 46.95 1015.84 52.05 1021.54 52.05ZM1050.56 60V18H1059.56L1060.31 23.55H1060.61C1064.29 19.95 1068.56 16.95 1074.26 16.95C1083.34 16.95 1087.24 23.25 1087.24 33.825V60H1076.21V35.175C1076.21 28.65 1074.49 26.4 1070.29 26.4C1066.76 26.4 1064.74 28.05 1061.51 31.125V60H1050.56Z"/>
</mask>
<path d="M46.125 10.575L46.8946 11.2136L47.459 10.5333L46.8532 9.88963L46.125 10.575ZM40.275 17.625L39.5776 18.3417L40.3534 19.0965L41.0446 18.2636L40.275 17.625ZM41.325 45.975L42.0878 45.3283L41.3597 44.4695L40.5928 45.2939L41.325 45.975ZM47.175 52.875L47.9424 53.5162L48.4821 52.8703L47.9378 52.2283L47.175 52.875ZM29.475 60.05C22.6681 60.05 16.5842 57.6286 12.1995 53.0201C7.81433 48.4112 5.05 41.5309 5.05 32.475H3.05C3.05 41.9441 5.94817 49.3513 10.7505 54.3987C15.5533 59.4464 22.1819 62.05 29.475 62.05V60.05ZM5.05 32.475C5.05 23.5442 7.91941 16.5452 12.4173 11.7869C16.9161 7.02772 23.0988 4.45 29.85 4.45V2.45C22.5762 2.45 15.8589 5.23478 10.9639 10.4131C6.06809 15.5923 3.05 23.1058 3.05 32.475H5.05ZM29.85 4.45C36.72 4.45 41.9451 7.59292 45.3968 11.2604L46.8532 9.88963C43.1049 5.90708 37.38 2.45 29.85 2.45V4.45ZM45.3554 9.93642L39.5054 16.9864L41.0446 18.2636L46.8946 11.2136L45.3554 9.93642ZM40.9724 16.9083C38.0903 14.1041 34.6287 11.975 30.075 11.975V13.975C33.9213 13.975 36.9097 15.7459 39.5776 18.3417L40.9724 16.9083ZM30.075 11.975C25.5652 11.975 21.6045 13.9179 18.7933 17.442C15.9946 20.9503 14.375 25.9689 14.375 32.1H16.375C16.375 26.3061 17.9054 21.7622 20.3567 18.6892C22.7955 15.6321 26.1848 13.975 30.075 13.975V11.975ZM14.375 32.1C14.375 38.2813 15.8325 43.354 18.5248 46.9071C21.239 50.489 25.1549 52.45 29.85 52.45V50.45C25.7701 50.45 22.4485 48.7735 20.1189 45.6992C17.7675 42.596 16.375 37.9937 16.375 32.1H14.375ZM29.85 52.45C35.0099 52.45 38.9324 50.0153 42.0572 46.6561L40.5928 45.2939C37.7176 48.3847 34.2901 50.45 29.85 50.45V52.45ZM40.5622 46.6217L46.4122 53.5217L47.9378 52.2283L42.0878 45.3283L40.5622 46.6217ZM46.4076 52.2338C42.0271 57.4761 36.4607 60.05 29.475 60.05V62.05C37.0393 62.05 43.1729 59.2239 47.9424 53.5162L46.4076 52.2338ZM72.392 60.05C62.4537 60.05 53.217 52.3322 53.217 39.075H51.217C51.217 53.4178 61.3303 62.05 72.392 62.05V60.05ZM53.217 39.075C53.217 25.5905 62.456 17.95 72.392 17.95V15.95C61.328 15.95 51.217 24.5095 51.217 39.075H53.217ZM72.392 17.95C82.328 17.95 91.567 25.5905 91.567 39.075H93.567C93.567 24.5095 83.456 15.95 72.392 15.95V17.95ZM91.567 39.075C91.567 52.3322 82.3303 60.05 72.392 60.05V62.05C83.4537 62.05 93.567 53.4178 93.567 39.075H91.567ZM72.392 53.05C75.5888 53.05 78.1252 51.5976 79.8219 49.0735C81.4897 46.5924 82.317 43.1295 82.317 39.075H80.317C80.317 42.8955 79.5318 45.9201 78.1621 47.9577C76.8213 49.9524 74.8952 51.05 72.392 51.05V53.05ZM82.317 39.075C82.317 34.9129 81.4916 31.4114 79.823 28.9187C78.1235 26.38 75.5844 24.95 72.392 24.95V26.95C74.8996 26.95 76.823 28.0325 78.161 30.0313C79.5299 32.0761 80.317 35.1371 80.317 39.075H82.317ZM72.392 24.95C69.1996 24.95 66.6605 26.38 64.961 28.9187C63.2924 31.4114 62.467 34.9129 62.467 39.075H64.467C64.467 35.1371 65.2541 32.0761 66.623 30.0313C67.961 28.0325 69.8844 26.95 72.392 26.95V24.95ZM62.467 39.075C62.467 43.1295 63.2943 46.5924 64.9621 49.0735C66.6588 51.5976 69.1952 53.05 72.392 53.05V51.05C69.8888 51.05 67.9627 49.9524 66.6219 47.9577C65.2522 45.9201 64.467 42.8955 64.467 39.075H62.467ZM104.64 58.725L105.135 59.5943L105.64 59.3067V58.725H104.64ZM104.64 58.35H105.64V57.8097L105.188 57.5135L104.64 58.35ZM105.465 43.425L106.053 44.2337L106.465 43.9342V43.425H105.465ZM105.465 43.125H106.465V42.6119L106.048 42.3127L105.465 43.125ZM123.165 18L122.837 18.9445L122.996 19H123.165V18ZM138.315 18H139.315V17H138.315V18ZM138.315 26.1V27.1H139.315V26.1H138.315ZM131.115 26.1V25.1H129.052L130.33 26.7196L131.115 26.1ZM111.465 45.75L111.781 44.8013L111.261 44.6277L110.835 44.9739L111.465 45.75ZM110.565 60.825L110.808 59.8549L110.327 59.7347L109.941 60.0441L110.565 60.825ZM116.19 77.225C111.33 77.225 107.135 76.3928 104.193 74.7378C101.301 73.1112 99.6402 70.7156 99.6402 67.425H97.6402C97.6402 71.5594 99.8043 74.5638 103.212 76.4809C106.57 78.3697 111.151 79.225 116.19 79.225V77.225ZM99.6402 67.425C99.6402 64.3783 101.503 61.6592 105.135 59.5943L104.146 57.8557C100.127 60.1408 97.6402 63.4217 97.6402 67.425H99.6402ZM105.64 58.725V58.35H103.64V58.725H105.64ZM105.188 57.5135C103.238 56.2355 101.815 54.4241 101.815 51.3H99.8152C99.8152 55.2259 101.693 57.6145 104.092 59.1865L105.188 57.5135ZM101.815 51.3C101.815 48.5245 103.711 45.9376 106.053 44.2337L104.877 42.6163C102.27 44.5124 99.8152 47.6255 99.8152 51.3H101.815ZM106.465 43.425V43.125H104.465V43.425H106.465ZM106.048 42.3127C103.351 40.3763 100.915 36.6884 100.915 32.175H98.9152C98.9152 37.4115 101.729 41.6737 104.882 43.9373L106.048 42.3127ZM100.915 32.175C100.915 27.5231 102.788 24.0005 105.679 21.6222C108.591 19.2261 112.591 17.95 116.865 17.95V15.95C112.214 15.95 107.74 17.3364 104.408 20.0778C101.055 22.837 98.9152 26.9269 98.9152 32.175H100.915ZM116.865 17.95C119.07 17.95 121.209 18.3784 122.837 18.9445L123.494 17.0555C121.671 16.4216 119.31 15.95 116.865 15.95V17.95ZM123.165 19H138.315V17H123.165V19ZM137.315 18V26.1H139.315V18H137.315ZM138.315 25.1H131.115V27.1H138.315V25.1ZM130.33 26.7196C131.295 27.9411 132.065 30.0377 132.065 32.475H134.065C134.065 29.6623 133.186 27.1089 131.9 25.4804L130.33 26.7196ZM132.065 32.475C132.065 36.8805 130.386 40.1518 127.707 42.3413C125.003 44.5513 121.196 45.725 116.865 45.725V47.725C121.534 47.725 125.827 46.4612 128.973 43.8899C132.144 41.2982 134.065 37.4445 134.065 32.475H132.065ZM116.865 45.725C115.276 45.725 113.51 45.3777 111.781 44.8013L111.149 46.6987C113.02 47.3223 115.004 47.725 116.865 47.725V45.725ZM110.835 44.9739C110.186 45.5007 109.622 46.0685 109.233 46.7982C108.838 47.5388 108.665 48.3658 108.665 49.35H110.665C110.665 48.6092 110.793 48.1237 110.998 47.7393C111.208 47.344 111.544 46.9743 112.096 46.5261L110.835 44.9739ZM108.665 49.35C108.665 50.0344 108.775 50.7092 109.088 51.3239C109.408 51.9509 109.904 52.4463 110.561 52.8176C111.815 53.5261 113.694 53.8 116.265 53.8V51.8C113.736 51.8 112.315 51.5114 111.545 51.0762C111.189 50.8755 110.991 50.6538 110.87 50.416C110.743 50.1658 110.665 49.8281 110.665 49.35H108.665ZM116.265 53.8H123.39V51.8H116.265V53.8ZM123.39 53.8C128.469 53.8 132.132 54.5489 134.501 56.0778C136.782 57.5493 137.99 59.8264 137.99 63.3H139.99C139.99 59.2736 138.536 56.3007 135.585 54.3972C132.724 52.5511 128.586 51.8 123.39 51.8V53.8ZM137.99 63.3C137.99 67.1539 136.026 70.5961 132.316 73.1132C128.588 75.6429 123.1 77.225 116.19 77.225V79.225C123.38 79.225 129.292 77.5821 133.439 74.7681C137.605 71.9414 139.99 67.9211 139.99 63.3H137.99ZM116.865 40.9C118.95 40.9 120.863 40.1492 122.247 38.6213C123.624 37.1007 124.39 34.9083 124.39 32.175H122.39C122.39 34.5417 121.731 36.2118 120.765 37.2787C119.805 38.3383 118.456 38.9 116.865 38.9V40.9ZM124.39 32.175C124.39 29.4555 123.669 27.2612 122.309 25.7346C120.937 24.1956 119.016 23.45 116.865 23.45V25.45C118.539 25.45 119.881 26.0169 120.816 27.0654C121.761 28.1263 122.39 29.7945 122.39 32.175H124.39ZM116.865 23.45C114.715 23.45 112.779 24.1945 111.39 25.7287C110.009 27.2534 109.265 29.4486 109.265 32.175H111.265C111.265 29.8014 111.909 28.1341 112.872 27.0713C113.826 26.018 115.19 25.45 116.865 25.45V23.45ZM109.265 32.175C109.265 34.9151 110.054 37.1085 111.451 38.6272C112.853 40.1504 114.782 40.9 116.865 40.9V38.9C115.273 38.9 113.902 38.3371 112.923 37.2728C111.939 36.204 111.265 34.5349 111.265 32.175H109.265ZM117.84 72.25C121.125 72.25 123.973 71.5283 126.036 70.3113C128.086 69.1019 129.49 67.3076 129.49 65.175H127.49C127.49 66.3424 126.72 67.5856 125.02 68.5887C123.332 69.5842 120.855 70.25 117.84 70.25V72.25ZM129.49 65.175C129.49 64.2867 129.306 63.4851 128.885 62.8C128.462 62.1118 127.849 61.619 127.12 61.2721C125.718 60.6043 123.771 60.425 121.515 60.425V62.425C123.759 62.425 125.3 62.6207 126.26 63.0779C126.713 63.2935 126.999 63.5507 127.181 63.8469C127.365 64.1462 127.49 64.5633 127.49 65.175H129.49ZM121.515 60.425H116.415V62.425H121.515V60.425ZM116.415 60.425C113.852 60.425 112.211 60.2057 110.808 59.8549L110.323 61.7951C111.919 62.1943 113.728 62.425 116.415 62.425V60.425ZM109.941 60.0441C107.908 61.6699 106.79 63.5817 106.79 65.7H108.79C108.79 64.3683 109.472 62.9801 111.19 61.6059L109.941 60.0441ZM106.79 65.7C106.79 67.8966 107.992 69.587 109.972 70.6735C111.904 71.7341 114.607 72.25 117.84 72.25V70.25C114.774 70.25 112.452 69.7534 110.934 68.9203C109.463 68.113 108.79 67.0284 108.79 65.7H106.79ZM145.791 60H144.791V61H145.791V60ZM145.791 18V17H144.791V18H145.791ZM154.791 18L155.782 17.8661L155.665 17H154.791V18ZM155.541 23.55L154.55 23.6839L154.667 24.55H155.541V23.55ZM155.841 23.55V24.55H156.249L156.541 24.2644L155.841 23.55ZM182.466 60V61H183.466V60H182.466ZM171.441 60H170.441V61H171.441V60ZM156.741 31.125L156.051 30.4013L155.741 30.6968V31.125H156.741ZM156.741 60V61H157.741V60H156.741ZM146.791 60V18H144.791V60H146.791ZM145.791 19H154.791V17H145.791V19ZM153.8 18.1339L154.55 23.6839L156.532 23.4161L155.782 17.8661L153.8 18.1339ZM155.541 24.55H155.841V22.55H155.541V24.55ZM156.541 24.2644C160.15 20.7293 164.183 17.95 169.491 17.95V15.95C163.399 15.95 158.883 19.1707 155.141 22.8356L156.541 24.2644ZM169.491 17.95C173.77 17.95 176.686 19.4177 178.573 22.0105C180.503 24.6611 181.466 28.6316 181.466 33.825H183.466C183.466 28.4434 182.479 23.9764 180.19 20.8332C177.859 17.6323 174.287 15.95 169.491 15.95V17.95ZM181.466 33.825V60H183.466V33.825H181.466ZM182.466 59H171.441V61H182.466V59ZM172.441 60V35.175H170.441V60H172.441ZM172.441 35.175C172.441 31.8788 172.017 29.4158 170.875 27.7705C169.663 26.0236 167.801 25.4 165.516 25.4V27.4C167.432 27.4 168.532 27.9014 169.232 28.9107C170.003 30.0217 170.441 31.9462 170.441 35.175H172.441ZM165.516 25.4C161.558 25.4 159.274 27.3281 156.051 30.4013L157.431 31.8487C160.658 28.7719 162.425 27.4 165.516 27.4V25.4ZM155.741 31.125V60H157.741V31.125H155.741ZM156.741 59H145.791V61H156.741V59ZM203.438 0.599996H204.438V-0.400004H203.438V0.599996ZM203.438 11.25V12.25H204.438V11.25H203.438ZM192.488 11.25H191.488V12.25H192.488V11.25ZM192.488 0.599996V-0.400004H191.488V0.599996H192.488ZM203.363 60V61H204.363V60H203.363ZM192.413 60H191.413V61H192.413V60ZM192.413 18V17H191.413V18H192.413ZM203.363 18H204.363V17H203.363V18ZM202.438 0.599996V11.25H204.438V0.599996H202.438ZM203.438 10.25H192.488V12.25H203.438V10.25ZM193.488 11.25V0.599996H191.488V11.25H193.488ZM192.488 1.6H203.438V-0.400004H192.488V1.6ZM203.363 59H192.413V61H203.363V59ZM193.413 60V18H191.413V60H193.413ZM192.413 19H203.363V17H192.413V19ZM202.363 18V60H204.363V18H202.363ZM215.391 26.7H216.391V25.7H215.391V26.7ZM209.466 26.7H208.466V27.7H209.466V26.7ZM209.466 18.525L209.384 17.5283L208.466 17.6031V18.525H209.466ZM215.916 18L215.997 18.9967L216.817 18.93L216.909 18.1126L215.916 18ZM217.191 6.75V5.75H216.298L216.197 6.63738L217.191 6.75ZM226.416 6.75H227.416V5.75H226.416V6.75ZM226.416 18H225.416V19H226.416V18ZM236.766 18H237.766V17H236.766V18ZM236.766 26.7V27.7H237.766V26.7H236.766ZM226.416 26.7V25.7H225.416V26.7H226.416ZM236.241 51.45L237.216 51.2311L236.944 50.0181L235.818 50.5438L236.241 51.45ZM238.041 59.475L238.375 60.4174L239.21 60.121L239.016 59.2561L238.041 59.475ZM229.191 60.05C224.427 60.05 221.3 58.5571 219.331 56.0944C217.329 53.5895 216.391 49.9158 216.391 45.3H214.391C214.391 50.1342 215.365 54.3355 217.769 57.3431C220.207 60.3929 223.979 62.05 229.191 62.05V60.05ZM216.391 45.3V26.7H214.391V45.3H216.391ZM215.391 25.7H209.466V27.7H215.391V25.7ZM210.466 26.7V18.525H208.466V26.7H210.466ZM209.547 19.5217L215.997 18.9967L215.835 17.0033L209.384 17.5283L209.547 19.5217ZM216.909 18.1126L218.184 6.86261L216.197 6.63738L214.922 17.8874L216.909 18.1126ZM217.191 7.75H226.416V5.75H217.191V7.75ZM225.416 6.75V18H227.416V6.75H225.416ZM226.416 19H236.766V17H226.416V19ZM235.766 18V26.7H237.766V18H235.766ZM236.766 25.7H226.416V27.7H236.766V25.7ZM225.416 26.7V45.3H227.416V26.7H225.416ZM225.416 45.3C225.416 47.7672 225.901 49.7985 227.053 51.2254C228.24 52.6942 229.991 53.35 232.116 53.35V51.35C230.415 51.35 229.316 50.8433 228.609 49.9684C227.868 49.0515 227.416 47.5578 227.416 45.3H225.416ZM232.116 53.35C233.689 53.35 235.408 52.942 236.664 52.3562L235.818 50.5438C234.823 51.008 233.392 51.35 232.116 51.35V53.35ZM235.265 51.6689L237.065 59.6939L239.016 59.2561L237.216 51.2311L235.265 51.6689ZM237.706 58.5326C235.453 59.332 232.72 60.05 229.191 60.05V62.05C233.012 62.05 235.978 61.268 238.375 60.4174L237.706 58.5326ZM254.91 0.599996H255.91V-0.400004H254.91V0.599996ZM254.91 11.25V12.25H255.91V11.25H254.91ZM243.96 11.25H242.96V12.25H243.96V11.25ZM243.96 0.599996V-0.400004H242.96V0.599996H243.96ZM254.835 60V61H255.835V60H254.835ZM243.885 60H242.885V61H243.885V60ZM243.885 18V17H242.885V18H243.885ZM254.835 18H255.835V17H254.835V18ZM253.91 0.599996V11.25H255.91V0.599996H253.91ZM254.91 10.25H243.96V12.25H254.91V10.25ZM244.96 11.25V0.599996H242.96V11.25H244.96ZM243.96 1.6H254.91V-0.400004H243.96V1.6ZM254.835 59H243.885V61H254.835V59ZM244.885 60V18H242.885V60H244.885ZM243.885 19H254.835V17H243.885V19ZM253.835 18V60H255.835V18H253.835ZM274.737 60L273.791 60.3228L274.022 61H274.737V60ZM260.412 18V17H259.015L259.466 18.3228L260.412 18ZM271.512 18L272.472 17.718L272.261 17H271.512V18ZM277.662 38.925L278.628 38.6663L278.625 38.6546L278.622 38.643L277.662 38.925ZM281.037 51.675L280.07 51.9295L280.266 52.675H281.037V51.675ZM281.412 51.675V52.675H282.183L282.379 51.9295L281.412 51.675ZM284.787 38.925L283.828 38.643L283.824 38.6546L283.821 38.6663L284.787 38.925ZM290.937 18V17H290.189L289.978 17.718L290.937 18ZM301.512 18L302.461 18.3167L302.901 17H301.512V18ZM287.487 60V61H288.208L288.436 60.3167L287.487 60ZM275.684 59.6772L261.359 17.6772L259.466 18.3228L273.791 60.3228L275.684 59.6772ZM260.412 19H271.512V17H260.412V19ZM270.553 18.282L276.703 39.207L278.622 38.643L272.472 17.718L270.553 18.282ZM276.696 39.1837C277.821 43.3813 278.945 47.6541 280.07 51.9295L282.004 51.4205C280.879 47.1459 279.754 42.8687 278.628 38.6663L276.696 39.1837ZM281.037 52.675H281.412V50.675H281.037V52.675ZM282.379 51.9295C283.504 47.6541 284.629 43.3813 285.753 39.1837L283.821 38.6663C282.696 42.8687 281.57 47.1459 280.445 51.4205L282.379 51.9295ZM285.747 39.207L291.897 18.282L289.978 17.718L283.828 38.643L285.747 39.207ZM290.937 19H301.512V17H290.937V19ZM300.564 17.6833L286.539 59.6833L288.436 60.3167L302.461 18.3167L300.564 17.6833ZM287.487 59H274.737V61H287.487V59ZM342.1 42.075V43.075H342.839L343.056 42.3691L342.1 42.075ZM316.225 42.075V41.075H315.086L315.234 42.2043L316.225 42.075ZM337.3 49.65L338.174 49.1644L337.663 48.244L336.77 48.802L337.3 49.65ZM341.05 56.4L341.622 57.2206L342.363 56.7042L341.924 55.9144L341.05 56.4ZM316.075 34.8L315.084 34.6654L314.93 35.8H316.075V34.8ZM333.175 34.8V35.8H334.175V34.8H333.175ZM326.35 60.05C320.737 60.05 315.789 58.0922 312.247 54.5322C308.707 50.9751 306.5 45.747 306.5 39.075H304.5C304.5 46.203 306.868 51.9624 310.829 55.9428C314.786 59.9203 320.264 62.05 326.35 62.05V60.05ZM306.5 39.075C306.5 26.0044 315.699 17.95 325.075 17.95V15.95C314.501 15.95 304.5 24.9956 304.5 39.075H306.5ZM325.075 17.95C330.583 17.95 334.675 19.9585 337.41 23.2766C340.166 26.6206 341.625 31.3973 341.625 37.05H343.625C343.625 31.0777 342.085 25.8044 338.953 22.0046C335.8 18.179 331.117 15.95 325.075 15.95V17.95ZM341.625 37.05C341.625 39.042 341.4 40.9489 341.144 41.7809L343.056 42.3691C343.4 41.2511 343.625 39.108 343.625 37.05H341.625ZM342.1 41.075H316.225V43.075H342.1V41.075ZM315.234 42.2043C315.708 45.8435 317.129 48.7098 319.353 50.6638C321.576 52.617 324.508 53.575 327.85 53.575V51.575C324.893 51.575 322.462 50.733 320.673 49.1612C318.884 47.5902 317.642 45.2065 317.217 41.9457L315.234 42.2043ZM327.85 53.575C331.604 53.575 334.71 52.4479 337.83 50.498L336.77 48.802C333.89 50.6021 331.146 51.575 327.85 51.575V53.575ZM336.426 50.1356L340.176 56.8856L341.924 55.9144L338.174 49.1644L336.426 50.1356ZM340.479 55.5794C336.438 58.3935 331.536 60.05 326.35 60.05V62.05C331.965 62.05 337.262 60.2565 341.622 57.2206L340.479 55.5794ZM316.075 35.8H333.175V33.8H316.075V35.8ZM334.175 34.8C334.175 31.8202 333.511 29.2368 332.001 27.3812C330.463 25.4915 328.164 24.5 325.225 24.5V26.5C327.686 26.5 329.363 27.3085 330.45 28.6438C331.564 30.0132 332.175 32.0798 332.175 34.8H334.175ZM325.225 24.5C320.219 24.5 315.965 28.1793 315.084 34.6654L317.066 34.9346C317.835 29.2707 321.381 26.5 325.225 26.5V24.5ZM368.846 60H367.846V61H368.846V60ZM368.846 4.5V3.5H367.846V4.5H368.846ZM379.946 40.275V39.275H378.946V40.275H379.946ZM379.946 60V61H380.946V60H379.946ZM379.946 31.5H378.946V32.5H379.946V31.5ZM379.946 13.275V12.275H378.946V13.275H379.946ZM369.846 60V4.5H367.846V60H369.846ZM368.846 5.5H387.071V3.5H368.846V5.5ZM387.071 5.5C393.101 5.5 398.297 6.54137 401.963 9.07283C405.561 11.5578 407.821 15.5753 407.821 21.9H409.821C409.821 15.0247 407.32 10.3422 403.099 7.42717C398.946 4.55863 393.267 3.5 387.071 3.5V5.5ZM407.821 21.9C407.821 27.9577 405.561 32.2482 401.955 35.0511C398.312 37.882 393.192 39.275 387.371 39.275V41.275C393.476 41.275 399.081 39.818 403.182 36.6302C407.32 33.4143 409.821 28.5173 409.821 21.9H407.821ZM387.371 39.275H379.946V41.275H387.371V39.275ZM378.946 40.275V60H380.946V40.275H378.946ZM379.946 59H368.846V61H379.946V59ZM379.946 32.5H386.621V30.5H379.946V32.5ZM386.621 32.5C390.527 32.5 393.634 31.6719 395.773 29.8523C397.942 28.0063 398.946 25.288 398.946 21.9H396.946C396.946 24.887 396.076 26.9687 394.477 28.329C392.847 29.7155 390.291 30.5 386.621 30.5V32.5ZM398.946 21.9C398.946 18.4175 397.87 15.8969 395.558 14.3153C393.337 12.796 390.152 12.275 386.246 12.275V14.275C390.066 14.275 392.73 14.804 394.429 15.9659C396.036 17.0656 396.946 18.8575 396.946 21.9H398.946ZM386.246 12.275H379.946V14.275H386.246V12.275ZM378.946 13.275V31.5H380.946V13.275H378.946ZM417.596 60H416.596V61H417.596V60ZM417.596 18V17H416.596V18H417.596ZM426.596 18L427.591 17.8995L427.5 17H426.596V18ZM427.346 25.425L426.351 25.5255L426.442 26.425H427.346V25.425ZM427.646 25.425V26.425H428.231L428.518 25.9147L427.646 25.425ZM444.521 17.85L445.501 18.0506L445.666 17.2402L444.902 16.9253L444.521 17.85ZM442.571 27.375L442.225 28.3133L443.317 28.7156L443.551 27.5756L442.571 27.375ZM428.546 34.95L427.616 34.5826L427.546 34.7596V34.95H428.546ZM428.546 60V61H429.546V60H428.546ZM418.596 60V18H416.596V60H418.596ZM417.596 19H426.596V17H417.596V19ZM425.601 18.1005L426.351 25.5255L428.341 25.3245L427.591 17.8995L425.601 18.1005ZM427.346 26.425H427.646V24.425H427.346V26.425ZM428.518 25.9147C431.484 20.6328 435.553 17.95 439.571 17.95V15.95C434.588 15.95 429.957 19.2671 426.774 24.9353L428.518 25.9147ZM439.571 17.95C441.759 17.95 442.98 18.2971 444.14 18.7747L444.902 16.9253C443.511 16.3529 442.032 15.95 439.571 15.95V17.95ZM443.541 17.6494L441.591 27.1744L443.551 27.5756L445.501 18.0506L443.541 17.6494ZM442.917 26.4367C441.347 25.8584 440.022 25.7 438.221 25.7V27.7C439.87 27.7 440.945 27.8416 442.225 28.3133L442.917 26.4367ZM438.221 25.7C434.425 25.7 430.133 28.2115 427.616 34.5826L429.476 35.3174C431.759 29.5385 435.416 27.7 438.221 27.7V25.7ZM427.546 34.95V60H429.546V34.95H427.546ZM428.546 59H417.596V61H428.546V59ZM467.437 60.05C457.499 60.05 448.262 52.3322 448.262 39.075H446.262C446.262 53.4178 456.375 62.05 467.437 62.05V60.05ZM448.262 39.075C448.262 25.5905 457.501 17.95 467.437 17.95V15.95C456.373 15.95 446.262 24.5095 446.262 39.075H448.262ZM467.437 17.95C477.373 17.95 486.612 25.5905 486.612 39.075H488.612C488.612 24.5095 478.501 15.95 467.437 15.95V17.95ZM486.612 39.075C486.612 52.3322 477.375 60.05 467.437 60.05V62.05C478.499 62.05 488.612 53.4178 488.612 39.075H486.612ZM467.437 53.05C470.634 53.05 473.17 51.5976 474.867 49.0735C476.535 46.5924 477.362 43.1295 477.362 39.075H475.362C475.362 42.8955 474.577 45.9201 473.207 47.9577C471.866 49.9524 469.94 51.05 467.437 51.05V53.05ZM477.362 39.075C477.362 34.9129 476.537 31.4114 474.868 28.9187C473.168 26.38 470.629 24.95 467.437 24.95V26.95C469.945 26.95 471.868 28.0325 473.206 30.0313C474.575 32.0761 475.362 35.1371 475.362 39.075H477.362ZM467.437 24.95C464.245 24.95 461.705 26.38 460.006 28.9187C458.337 31.4114 457.512 34.9129 457.512 39.075H459.512C459.512 35.1371 460.299 32.0761 461.668 30.0313C463.006 28.0325 464.929 26.95 467.437 26.95V24.95ZM457.512 39.075C457.512 43.1295 458.339 46.5924 460.007 49.0735C461.704 51.5976 464.24 53.05 467.437 53.05V51.05C464.934 51.05 463.008 49.9524 461.667 47.9577C460.297 45.9201 459.512 42.8955 459.512 39.075H457.512ZM527.51 21.6L528.315 22.1932L528.867 21.4438L528.159 20.8394L527.51 21.6ZM522.26 28.725L521.609 29.4843L522.427 30.1848L523.065 29.3182L522.26 28.725ZM523.685 48.675L524.543 48.1618L523.93 47.1357L523.028 47.9209L523.685 48.675ZM528.035 55.95L528.699 56.6982L529.319 56.1482L528.893 55.4368L528.035 55.95ZM514.31 60.05C508.737 60.05 503.887 58.0948 500.43 54.5403C496.973 50.9863 494.835 45.7566 494.835 39.075H492.835C492.835 46.1934 495.122 51.9512 498.996 55.9347C502.87 59.9177 508.258 62.05 514.31 62.05V60.05ZM494.835 39.075C494.835 32.3145 497.251 27.0506 500.978 23.4747C504.713 19.8902 509.821 17.95 515.285 17.95V15.95C509.35 15.95 503.732 18.0598 499.593 22.0316C495.445 26.0119 492.835 31.8105 492.835 39.075H494.835ZM515.285 17.95C520.172 17.95 523.924 19.8537 526.861 22.3606L528.159 20.8394C524.946 18.0963 520.749 15.95 515.285 15.95V17.95ZM526.705 21.0068L521.455 28.1318L523.065 29.3182L528.315 22.1932L526.705 21.0068ZM522.911 27.9657C520.707 26.0764 518.534 24.95 515.81 24.95V26.95C517.887 26.95 519.614 27.7736 521.609 29.4843L522.911 27.9657ZM515.81 24.95C512.339 24.95 509.371 26.3283 507.288 28.8361C505.219 31.3268 504.085 34.8535 504.085 39.075H506.085C506.085 35.1965 507.126 32.1607 508.826 30.1139C510.512 28.0842 512.906 26.95 515.81 26.95V24.95ZM504.085 39.075C504.085 42.4075 504.905 45.8662 506.748 48.523C508.617 51.2183 511.52 53.05 515.51 53.05V51.05C512.225 51.05 509.916 49.5817 508.391 47.3833C506.84 45.1463 506.085 42.1175 506.085 39.075H504.085ZM515.51 53.05C518.814 53.05 521.888 51.5664 524.342 49.4291L523.028 47.9209C520.832 49.8336 518.206 51.05 515.51 51.05V53.05ZM522.827 49.1882L527.177 56.4632L528.893 55.4368L524.543 48.1618L522.827 49.1882ZM527.372 55.2018C523.6 58.5466 518.894 60.05 514.31 60.05V62.05C519.326 62.05 524.521 60.4034 528.699 56.6982L527.372 55.2018ZM567.34 42.075V43.075H568.079L568.296 42.3691L567.34 42.075ZM541.465 42.075V41.075H540.327L540.474 42.2043L541.465 42.075ZM562.54 49.65L563.415 49.1644L562.903 48.244L562.01 48.802L562.54 49.65ZM566.29 56.4L566.862 57.2206L567.603 56.7042L567.165 55.9144L566.29 56.4ZM541.315 34.8L540.325 34.6654L540.17 35.8H541.315V34.8ZM558.415 34.8V35.8H559.415V34.8H558.415ZM551.59 60.05C545.977 60.05 541.029 58.0922 537.487 54.5322C533.947 50.9751 531.74 45.747 531.74 39.075H529.74C529.74 46.203 532.108 51.9624 536.069 55.9428C540.027 59.9203 545.504 62.05 551.59 62.05V60.05ZM531.74 39.075C531.74 26.0044 540.939 17.95 550.315 17.95V15.95C539.742 15.95 529.74 24.9956 529.74 39.075H531.74ZM550.315 17.95C555.823 17.95 559.915 19.9585 562.65 23.2766C565.406 26.6206 566.865 31.3973 566.865 37.05H568.865C568.865 31.0777 567.325 25.8044 564.193 22.0046C561.041 18.179 556.358 15.95 550.315 15.95V17.95ZM566.865 37.05C566.865 39.042 566.641 40.9489 566.385 41.7809L568.296 42.3691C568.64 41.2511 568.865 39.108 568.865 37.05H566.865ZM567.34 41.075H541.465V43.075H567.34V41.075ZM540.474 42.2043C540.948 45.8435 542.369 48.7098 544.593 50.6638C546.816 52.617 549.748 53.575 553.09 53.575V51.575C550.133 51.575 547.702 50.733 545.913 49.1612C544.125 47.5902 542.882 45.2065 542.457 41.9457L540.474 42.2043ZM553.09 53.575C556.844 53.575 559.951 52.4479 563.07 50.498L562.01 48.802C559.13 50.6021 556.387 51.575 553.09 51.575V53.575ZM561.666 50.1356L565.416 56.8856L567.165 55.9144L563.415 49.1644L561.666 50.1356ZM565.719 55.5794C561.678 58.3935 556.776 60.05 551.59 60.05V62.05C557.205 62.05 562.503 60.2565 566.862 57.2206L565.719 55.5794ZM541.315 35.8H558.415V33.8H541.315V35.8ZM559.415 34.8C559.415 31.8202 558.751 29.2368 557.241 27.3812C555.703 25.4915 553.405 24.5 550.465 24.5V26.5C552.926 26.5 554.603 27.3085 555.69 28.6438C556.805 30.0132 557.415 32.0798 557.415 34.8H559.415ZM550.465 24.5C545.459 24.5 541.205 28.1793 540.325 34.6654L542.306 34.9346C543.076 29.2707 546.622 26.5 550.465 26.5V24.5ZM572.595 55.125L571.786 54.5363L571.237 55.2909L571.952 55.891L572.595 55.125ZM577.62 48.225L578.227 47.4306L577.414 46.8088L576.811 47.6363L577.62 48.225ZM586.17 42.075L586.546 41.1487L586.53 41.1421L586.513 41.136L586.17 42.075ZM604.62 22.125L605.423 22.7207L606.017 21.919L605.217 21.323L604.62 22.125ZM599.67 28.8L599.096 29.6192L599.893 30.1772L600.473 29.3957L599.67 28.8ZM593.595 35.1L593.959 34.1689L593.945 34.1632L593.93 34.1579L593.595 35.1ZM588.57 60.05C583.121 60.05 577.27 57.7439 573.237 54.359L571.952 55.891C576.319 59.5561 582.618 62.05 588.57 62.05V60.05ZM573.403 55.7137L578.428 48.8137L576.811 47.6363L571.786 54.5363L573.403 55.7137ZM577.012 49.0194C580.922 52.0093 584.659 53.8 588.87 53.8V51.8C585.28 51.8 581.967 50.2907 578.227 47.4306L577.012 49.0194ZM588.87 53.8C591.093 53.8 592.864 53.3263 594.099 52.3592C595.37 51.3638 595.945 49.9469 595.945 48.375H593.945C593.945 49.4281 593.582 50.2237 592.866 50.7845C592.113 51.3737 590.846 51.8 588.87 51.8V53.8ZM595.945 48.375C595.945 46.2422 594.44 44.8574 592.72 43.8548C590.998 42.8513 588.691 42.0211 586.546 41.1487L585.793 43.0013C588.073 43.9289 590.153 44.6737 591.713 45.5827C593.274 46.4926 593.945 47.3578 593.945 48.375H595.945ZM586.513 41.136C583.887 40.1742 581.158 38.913 579.096 37.0965C577.064 35.3064 575.695 32.9958 575.695 29.85H573.695C573.695 33.6792 575.4 36.5061 577.774 38.5973C580.118 40.662 583.127 42.0258 585.826 43.014L586.513 41.136ZM575.695 29.85C575.695 26.3576 577.12 23.4142 579.62 21.3269C582.133 19.2284 585.791 17.95 590.295 17.95V15.95C585.423 15.95 581.281 17.3341 578.338 19.7918C575.381 22.2608 573.695 25.7674 573.695 29.85H575.695ZM590.295 17.95C596.292 17.95 600.584 20.3663 604.022 22.927L605.217 21.323C601.605 18.6337 596.897 15.95 590.295 15.95V17.95ZM603.816 21.5293L598.866 28.2043L600.473 29.3957L605.423 22.7207L603.816 21.5293ZM600.243 27.9808C597.206 25.8546 594.141 24.2 590.595 24.2V26.2C593.498 26.2 596.133 27.5454 599.096 29.6192L600.243 27.9808ZM590.595 24.2C588.557 24.2 586.918 24.6368 585.768 25.5378C584.583 26.4667 584.045 27.7889 584.045 29.25H586.045C586.045 28.3111 586.369 27.6083 587.002 27.1122C587.671 26.5882 588.807 26.2 590.595 26.2V24.2ZM584.045 29.25C584.045 31.3111 585.496 32.6398 587.17 33.5811C588.849 34.525 591.095 35.272 593.259 36.0421L593.93 34.1579C591.669 33.353 589.64 32.675 588.15 31.8377C586.656 30.9977 586.045 30.1889 586.045 29.25H584.045ZM593.23 36.0311C596.024 37.1261 598.791 38.2731 600.875 40.0593C602.901 41.7962 604.295 44.1509 604.295 47.775H606.295C606.295 43.5241 604.613 40.6288 602.177 38.5407C599.798 36.5019 596.715 35.2489 593.959 34.1689L593.23 36.0311ZM604.295 47.775C604.295 51.1732 602.967 54.2081 600.389 56.4081C597.8 58.6174 593.869 60.05 588.57 60.05V62.05C594.22 62.05 598.651 60.5201 601.687 57.9294C604.734 55.3294 606.295 51.7268 606.295 47.775H604.295ZM609.353 55.125L608.545 54.5363L607.995 55.2909L608.71 55.891L609.353 55.125ZM614.378 48.225L614.986 47.4306L614.173 46.8088L613.57 47.6363L614.378 48.225ZM622.928 42.075L623.305 41.1487L623.289 41.1421L623.272 41.136L622.928 42.075ZM641.378 22.125L642.182 22.7207L642.776 21.919L641.976 21.323L641.378 22.125ZM636.428 28.8L635.855 29.6192L636.652 30.1772L637.232 29.3957L636.428 28.8ZM630.353 35.1L630.718 34.1689L630.703 34.1632L630.689 34.1579L630.353 35.1ZM625.328 60.05C619.88 60.05 614.029 57.7439 609.996 54.359L608.71 55.891C613.077 59.5561 619.377 62.05 625.328 62.05V60.05ZM610.162 55.7137L615.187 48.8137L613.57 47.6363L608.545 54.5363L610.162 55.7137ZM613.771 49.0194C617.681 52.0093 621.418 53.8 625.628 53.8V51.8C622.039 51.8 618.726 50.2907 614.986 47.4306L613.771 49.0194ZM625.628 53.8C627.852 53.8 629.622 53.3263 630.857 52.3592C632.129 51.3638 632.703 49.9469 632.703 48.375H630.703C630.703 49.4281 630.341 50.2237 629.624 50.7845C628.872 51.3737 627.605 51.8 625.628 51.8V53.8ZM632.703 48.375C632.703 46.2422 631.199 44.8574 629.479 43.8548C627.757 42.8513 625.45 42.0211 623.305 41.1487L622.552 43.0013C624.832 43.9289 626.912 44.6737 628.472 45.5827C630.033 46.4926 630.703 47.3578 630.703 48.375H632.703ZM623.272 41.136C620.646 40.1742 617.917 38.913 615.855 37.0965C613.823 35.3064 612.453 32.9958 612.453 29.85H610.453C610.453 33.6792 612.159 36.5061 614.533 38.5973C616.877 40.662 619.886 42.0258 622.584 43.014L623.272 41.136ZM612.453 29.85C612.453 26.3576 613.879 23.4142 616.379 21.3269C618.892 19.2284 622.55 17.95 627.053 17.95V15.95C622.182 15.95 618.04 17.3341 615.097 19.7918C612.14 22.2608 610.453 25.7674 610.453 29.85H612.453ZM627.053 17.95C633.051 17.95 637.342 20.3663 640.781 22.927L641.976 21.323C638.364 18.6337 633.656 15.95 627.053 15.95V17.95ZM640.575 21.5293L635.625 28.2043L637.232 29.3957L642.182 22.7207L640.575 21.5293ZM637.002 27.9808C633.964 25.8546 630.9 24.2 627.353 24.2V26.2C630.257 26.2 632.892 27.5454 635.855 29.6192L637.002 27.9808ZM627.353 24.2C625.316 24.2 623.677 24.6368 622.527 25.5378C621.342 26.4667 620.803 27.7889 620.803 29.25H622.803C622.803 28.3111 623.127 27.6083 623.761 27.1122C624.429 26.5882 625.565 26.2 627.353 26.2V24.2ZM620.803 29.25C620.803 31.3111 622.254 32.6398 623.929 33.5811C625.608 34.525 627.854 35.272 630.018 36.0421L630.689 34.1579C628.427 33.353 626.398 32.675 624.909 31.8377C623.415 30.9977 622.803 30.1889 622.803 29.25H620.803ZM629.988 36.0311C632.783 37.1261 635.55 38.2731 637.634 40.0593C639.66 41.7962 641.053 44.1509 641.053 47.775H643.053C643.053 43.5241 641.371 40.6288 638.935 38.5407C636.557 36.5019 633.474 35.2489 630.718 34.1689L629.988 36.0311ZM641.053 47.775C641.053 51.1732 639.726 54.2081 637.148 56.4081C634.559 58.6174 630.628 60.05 625.328 60.05V62.05C630.979 62.05 635.41 60.5201 638.446 57.9294C641.493 55.3294 643.053 51.7268 643.053 47.775H641.053ZM697.529 60L696.565 60.264L696.766 61H697.529V60ZM693.629 45.75L694.594 45.486L694.392 44.75H693.629V45.75ZM675.629 45.75V44.75H674.866L674.665 45.486L675.629 45.75ZM671.729 60V61H672.492L672.694 60.264L671.729 60ZM660.479 60L659.527 59.695L659.109 61H660.479V60ZM678.254 4.5V3.5H677.525L677.302 4.19499L678.254 4.5ZM691.304 4.5L692.256 4.19382L692.033 3.5H691.304V4.5ZM709.154 60V61H710.526L710.106 59.6938L709.154 60ZM678.029 37.125L677.064 36.8629L676.721 38.125H678.029V37.125ZM691.229 37.125V38.125H692.537L692.194 36.8629L691.229 37.125ZM689.579 31.05L690.544 30.7879L690.541 30.7758L690.537 30.7638L689.579 31.05ZM684.704 12.9L685.665 12.6237L685.457 11.9H684.704V12.9ZM684.404 12.9V11.9H683.612L683.431 12.6716L684.404 12.9ZM679.679 31.05L678.721 30.7638L678.718 30.7758L678.714 30.7879L679.679 31.05ZM698.494 59.736L694.594 45.486L692.665 46.014L696.565 60.264L698.494 59.736ZM693.629 44.75H675.629V46.75H693.629V44.75ZM674.665 45.486L670.765 59.736L672.694 60.264L676.594 46.014L674.665 45.486ZM671.729 59H660.479V61H671.729V59ZM661.432 60.305L679.207 4.80501L677.302 4.19499L659.527 59.695L661.432 60.305ZM678.254 5.5H691.304V3.5H678.254V5.5ZM690.352 4.80618L708.202 60.3062L710.106 59.6938L692.256 4.19382L690.352 4.80618ZM709.154 59H697.529V61H709.154V59ZM678.029 38.125H691.229V36.125H678.029V38.125ZM692.194 36.8629L690.544 30.7879L688.614 31.3121L690.264 37.3871L692.194 36.8629ZM690.537 30.7638C689.681 27.8975 688.898 24.8778 688.11 21.8106C687.324 18.7497 686.533 15.6404 685.665 12.6237L683.743 13.1763C684.601 16.1596 685.385 19.2378 686.173 22.3082C686.96 25.3722 687.752 28.4275 688.621 31.3362L690.537 30.7638ZM684.704 11.9H684.404V13.9H684.704V11.9ZM683.431 12.6716C682.007 18.7392 680.438 25.0169 678.721 30.7638L680.637 31.3362C682.371 25.5331 683.951 19.2108 685.378 13.1284L683.431 12.6716ZM678.714 30.7879L677.064 36.8629L678.994 37.3871L680.644 31.3121L678.714 30.7879ZM713.926 18V17H712.926V18H713.926ZM724.951 18H725.951V17H724.951V18ZM739.351 46.35L740.146 46.9575L740.351 46.6885V46.35H739.351ZM739.351 18V17H738.351V18H739.351ZM750.376 18H751.376V17H750.376V18ZM750.376 60V61H751.376V60H750.376ZM741.376 60L740.385 60.1362L740.504 61H741.376V60ZM740.551 54L741.542 53.8638L741.423 53H740.551V54ZM740.251 54V53H739.786L739.486 53.3559L740.251 54ZM726.826 60.05C722.588 60.05 719.69 58.5842 717.81 55.9993C715.888 53.3572 714.926 49.4045 714.926 44.25H712.926C712.926 49.5955 713.914 54.0428 716.192 57.1757C718.513 60.3658 722.065 62.05 726.826 62.05V60.05ZM714.926 44.25V18H712.926V44.25H714.926ZM713.926 19H724.951V17H713.926V19ZM723.951 18V42.825H725.951V18H723.951ZM723.951 42.825C723.951 46.1499 724.354 48.6149 725.476 50.2526C726.673 52.0002 728.526 52.6 730.801 52.6V50.6C728.876 50.6 727.804 50.1123 727.126 49.1224C726.373 48.0226 725.951 46.1001 725.951 42.825H723.951ZM730.801 52.6C732.717 52.6 734.315 52.2076 735.832 51.2567C737.317 50.3264 738.66 48.9002 740.146 46.9575L738.557 45.7425C737.117 47.6248 735.948 48.8236 734.77 49.562C733.625 50.2799 732.41 50.6 730.801 50.6V52.6ZM740.351 46.35V18H738.351V46.35H740.351ZM739.351 19H750.376V17H739.351V19ZM749.376 18V60H751.376V18H749.376ZM750.376 59H741.376V61H750.376V59ZM742.367 59.8638L741.542 53.8638L739.56 54.1362L740.385 60.1362L742.367 59.8638ZM740.551 53H740.251V55H740.551V53ZM739.486 53.3559C735.998 57.4986 732.203 60.05 726.826 60.05V62.05C733 62.05 737.305 59.0514 741.016 54.6441L739.486 53.3559ZM763.33 26.7H764.33V25.7H763.33V26.7ZM757.405 26.7H756.405V27.7H757.405V26.7ZM757.405 18.525L757.324 17.5283L756.405 17.6031V18.525H757.405ZM763.855 18L763.936 18.9967L764.756 18.93L764.849 18.1126L763.855 18ZM765.13 6.75V5.75H764.237L764.136 6.63738L765.13 6.75ZM774.355 6.75H775.355V5.75H774.355V6.75ZM774.355 18H773.355V19H774.355V18ZM784.705 18H785.705V17H784.705V18ZM784.705 26.7V27.7H785.705V26.7H784.705ZM774.355 26.7V25.7H773.355V26.7H774.355ZM784.18 51.45L785.156 51.2311L784.884 50.0181L783.757 50.5438L784.18 51.45ZM785.98 59.475L786.315 60.4174L787.15 60.121L786.956 59.2561L785.98 59.475ZM777.13 60.05C772.367 60.05 769.239 58.5571 767.271 56.0944C765.268 53.5895 764.33 49.9158 764.33 45.3H762.33C762.33 50.1342 763.304 54.3355 765.708 57.3431C768.146 60.3929 771.919 62.05 777.13 62.05V60.05ZM764.33 45.3V26.7H762.33V45.3H764.33ZM763.33 25.7H757.405V27.7H763.33V25.7ZM758.405 26.7V18.525H756.405V26.7H758.405ZM757.486 19.5217L763.936 18.9967L763.774 17.0033L757.324 17.5283L757.486 19.5217ZM764.849 18.1126L766.124 6.86261L764.136 6.63738L762.861 17.8874L764.849 18.1126ZM765.13 7.75H774.355V5.75H765.13V7.75ZM773.355 6.75V18H775.355V6.75H773.355ZM774.355 19H784.705V17H774.355V19ZM783.705 18V26.7H785.705V18H783.705ZM784.705 25.7H774.355V27.7H784.705V25.7ZM773.355 26.7V45.3H775.355V26.7H773.355ZM773.355 45.3C773.355 47.7672 773.84 49.7985 774.993 51.2254C776.18 52.6942 777.93 53.35 780.055 53.35V51.35C778.355 51.35 777.255 50.8433 776.549 49.9684C775.808 49.0515 775.355 47.5578 775.355 45.3H773.355ZM780.055 53.35C781.629 53.35 783.348 52.942 784.603 52.3562L783.757 50.5438C782.762 51.008 781.332 51.35 780.055 51.35V53.35ZM783.204 51.6689L785.004 59.6939L786.956 59.2561L785.156 51.2311L783.204 51.6689ZM785.646 58.5326C783.393 59.332 780.659 60.05 777.13 60.05V62.05C780.951 62.05 783.917 61.268 786.315 60.4174L785.646 58.5326ZM809.033 60.05C799.094 60.05 789.858 52.3322 789.858 39.075H787.858C787.858 53.4178 797.971 62.05 809.033 62.05V60.05ZM789.858 39.075C789.858 25.5905 799.097 17.95 809.033 17.95V15.95C797.969 15.95 787.858 24.5095 787.858 39.075H789.858ZM809.033 17.95C818.969 17.95 828.208 25.5905 828.208 39.075H830.208C830.208 24.5095 820.097 15.95 809.033 15.95V17.95ZM828.208 39.075C828.208 52.3322 818.971 60.05 809.033 60.05V62.05C820.094 62.05 830.208 53.4178 830.208 39.075H828.208ZM809.033 53.05C812.229 53.05 814.766 51.5976 816.463 49.0735C818.13 46.5924 818.958 43.1295 818.958 39.075H816.958C816.958 42.8955 816.172 45.9201 814.803 47.9577C813.462 49.9524 811.536 51.05 809.033 51.05V53.05ZM818.958 39.075C818.958 34.9129 818.132 31.4114 816.464 28.9187C814.764 26.38 812.225 24.95 809.033 24.95V26.95C811.54 26.95 813.464 28.0325 814.802 30.0313C816.17 32.0761 816.958 35.1371 816.958 39.075H818.958ZM809.033 24.95C805.84 24.95 803.301 26.38 801.602 28.9187C799.933 31.4114 799.108 34.9129 799.108 39.075H801.108C801.108 35.1371 801.895 32.0761 803.264 30.0313C804.602 28.0325 806.525 26.95 809.033 26.95V24.95ZM799.108 39.075C799.108 43.1295 799.935 46.5924 801.603 49.0735C803.299 51.5976 805.836 53.05 809.033 53.05V51.05C806.529 51.05 804.603 49.9524 803.263 47.9577C801.893 45.9201 801.108 42.8955 801.108 39.075H799.108ZM838.056 60H837.056V61H838.056V60ZM838.056 18V17H837.056V18H838.056ZM847.056 18L848.047 17.8678L847.931 17H847.056V18ZM847.806 23.625L846.815 23.7572L846.93 24.625H847.806V23.625ZM848.106 23.625V24.625H848.532L848.828 24.3172L848.106 23.625ZM872.556 24.3L871.635 24.6887L872.242 26.1294L873.295 24.9733L872.556 24.3ZM898.956 60V61H899.956V60H898.956ZM887.931 60H886.931V61H887.931V60ZM873.981 31.125L873.257 30.4353L872.981 30.725V31.125H873.981ZM873.981 60V61H874.981V60H873.981ZM862.956 60H861.956V61H862.956V60ZM849.006 31.125L848.282 30.4353L848.006 30.725V31.125H849.006ZM849.006 60V61H850.006V60H849.006ZM839.056 60V18H837.056V60H839.056ZM838.056 19H847.056V17H838.056V19ZM846.065 18.1322L846.815 23.7572L848.797 23.4928L848.047 17.8678L846.065 18.1322ZM847.806 24.625H848.106V22.625H847.806V24.625ZM848.828 24.3172C852.3 20.6968 855.952 17.95 861.006 17.95V15.95C855.11 15.95 850.961 19.2032 847.384 22.9328L848.828 24.3172ZM861.006 17.95C863.864 17.95 866.04 18.5561 867.723 19.6609C869.403 20.7645 870.679 22.4242 871.635 24.6887L873.477 23.9113C872.408 21.3758 870.909 19.3605 868.82 17.9891C866.734 16.6189 864.148 15.95 861.006 15.95V17.95ZM873.295 24.9733C877.073 20.8254 880.87 17.95 885.906 17.95V15.95C879.991 15.95 875.689 19.3746 871.817 23.6267L873.295 24.9733ZM885.906 17.95C890.146 17.95 893.084 19.4169 895.001 22.0156C896.958 24.6678 897.956 28.6384 897.956 33.825H899.956C899.956 28.4366 898.929 23.9697 896.611 20.8281C894.253 17.6331 890.666 15.95 885.906 15.95V17.95ZM897.956 33.825V60H899.956V33.825H897.956ZM898.956 59H887.931V61H898.956V59ZM888.931 60V35.175H886.931V60H888.931ZM888.931 35.175C888.931 31.8304 888.466 29.3696 887.314 27.736C886.095 26.0087 884.26 25.4 882.081 25.4V27.4C883.877 27.4 884.967 27.8788 885.679 28.889C886.458 29.9929 886.931 31.9196 886.931 35.175H888.931ZM882.081 25.4C879.255 25.4 876.305 27.2348 873.257 30.4353L874.705 31.8147C877.657 28.7152 880.107 27.4 882.081 27.4V25.4ZM872.981 31.125V60H874.981V31.125H872.981ZM873.981 59H862.956V61H873.981V59ZM863.956 60V35.175H861.956V60H863.956ZM863.956 35.175C863.956 31.8304 863.491 29.3696 862.339 27.736C861.12 26.0087 859.285 25.4 857.106 25.4V27.4C858.902 27.4 859.992 27.8788 860.704 28.889C861.483 29.9929 861.956 31.9196 861.956 35.175H863.956ZM857.106 25.4C854.28 25.4 851.33 27.2348 848.282 30.4353L849.73 31.8147C852.682 28.7152 855.132 27.4 857.106 27.4V25.4ZM848.006 31.125V60H850.006V31.125H848.006ZM849.006 59H838.056V61H849.006V59ZM907.871 48.6H908.871V48.5745L908.87 48.549L907.871 48.6ZM932.021 33.075L932.051 34.0745L932.907 34.0487L933.013 33.199L932.021 33.075ZM931.046 27.75L931.948 27.3185L931.912 27.2423L931.863 27.1733L931.046 27.75ZM912.746 29.775L911.824 30.1615L912.286 31.2639L913.289 30.6146L912.746 29.775ZM909.446 21.9L908.927 21.045L908.191 21.4918L908.524 22.2865L909.446 21.9ZM943.046 60V61H944.046V60H943.046ZM934.046 60L933.064 60.1895L933.22 61H934.046V60ZM933.221 55.725L934.203 55.5355L934.046 54.725H933.221V55.725ZM932.996 55.725V54.725H932.627L932.346 54.9646L932.996 55.725ZM923.696 52.35V53.35H923.708L923.719 53.3497L923.696 52.35ZM932.021 48.3L932.728 49.0071L933.021 48.7142V48.3H932.021ZM932.021 39.825H933.021V38.7356L931.935 38.8287L932.021 39.825ZM924.446 40.65L924.585 41.6403L924.593 41.6392L924.6 41.638L924.446 40.65ZM917.996 46.725L918.996 46.7037L918.996 46.7L917.996 46.725ZM920.321 59.75C916.791 59.75 913.943 58.6066 911.983 56.6884C910.024 54.7719 908.871 52.0041 908.871 48.6H906.871C906.871 52.4709 908.193 55.7781 910.584 58.1179C912.974 60.4559 916.351 61.75 920.321 61.75V59.75ZM908.87 48.549C908.745 46.1003 909.087 44.0486 909.883 42.3343C910.675 40.6277 911.943 39.1962 913.766 38.0218C917.455 35.6443 923.393 34.3358 932.051 34.0745L931.991 32.0755C923.249 32.3392 916.849 33.6557 912.682 36.3407C910.577 37.6975 909.037 39.4067 908.069 41.4923C907.104 43.5701 906.735 45.9622 906.872 48.651L908.87 48.549ZM933.013 33.199C933.266 31.1743 932.839 29.1817 931.948 27.3185L930.144 28.1815C930.903 29.7683 931.226 31.3757 931.029 32.951L933.013 33.199ZM931.863 27.1733C930.655 25.4616 928.155 24.8 924.896 24.8V26.8C928.087 26.8 929.637 27.4884 930.229 28.3267L931.863 27.1733ZM924.896 24.8C920.761 24.8 916.15 26.3811 912.203 28.9354L913.289 30.6146C916.992 28.2189 921.231 26.8 924.896 26.8V24.8ZM913.668 29.3885L910.368 21.5135L908.524 22.2865L911.824 30.1615L913.668 29.3885ZM909.965 22.755C914.406 20.0611 920.529 17.95 926.921 17.95V15.95C920.113 15.95 913.636 18.1889 908.927 21.045L909.965 22.755ZM926.921 17.95C932.091 17.95 935.806 19.426 938.252 22.2292C940.72 25.0586 942.046 29.4108 942.046 35.475H944.046C944.046 29.1642 942.672 24.2539 939.759 20.9145C936.823 17.549 932.476 15.95 926.921 15.95V17.95ZM942.046 35.475V60H944.046V35.475H942.046ZM943.046 59H934.046V61H943.046V59ZM935.028 59.8105L934.203 55.5355L932.239 55.9145L933.064 60.1895L935.028 59.8105ZM933.221 54.725H932.996V56.725H933.221V54.725ZM932.346 54.9646C928.886 57.9208 924.833 59.75 920.321 59.75V61.75C925.409 61.75 929.906 59.6792 933.645 56.4854L932.346 54.9646ZM923.719 53.3497C927.28 53.2669 929.986 51.7493 932.728 49.0071L931.314 47.5929C928.806 50.1007 926.562 51.2831 923.673 51.3503L923.719 53.3497ZM933.021 48.3V39.825H931.021V48.3H933.021ZM931.935 38.8287C929.315 39.0532 926.731 39.2808 924.292 39.662L924.6 41.638C926.961 41.2692 929.476 41.0468 932.106 40.8213L931.935 38.8287ZM924.307 39.6597C921.773 40.016 919.902 40.8475 918.673 42.1214C917.427 43.4128 916.954 45.0427 916.996 46.75L918.996 46.7C918.963 45.4073 919.315 44.3372 920.112 43.5099C920.927 42.665 922.319 41.959 924.585 41.6403L924.307 39.6597ZM916.996 46.7463C917.039 48.7397 917.745 50.4109 918.974 51.583C920.199 52.7509 921.865 53.35 923.696 53.35V51.35C922.302 51.35 921.155 50.8992 920.355 50.1357C919.559 49.3766 919.028 48.2353 918.996 46.7037L916.996 46.7463ZM954.091 26.7H955.091V25.7H954.091V26.7ZM948.166 26.7H947.166V27.7H948.166V26.7ZM948.166 18.525L948.085 17.5283L947.166 17.6031V18.525H948.166ZM954.616 18L954.697 18.9967L955.517 18.93L955.609 18.1126L954.616 18ZM955.891 6.75V5.75H954.998L954.897 6.63738L955.891 6.75ZM965.116 6.75H966.116V5.75H965.116V6.75ZM965.116 18H964.116V19H965.116V18ZM975.466 18H976.466V17H975.466V18ZM975.466 26.7V27.7H976.466V26.7H975.466ZM965.116 26.7V25.7H964.116V26.7H965.116ZM974.941 51.45L975.917 51.2311L975.644 50.0181L974.518 50.5438L974.941 51.45ZM976.741 59.475L977.075 60.4174L977.911 60.121L977.717 59.2561L976.741 59.475ZM967.891 60.05C963.127 60.05 960 58.5571 958.031 56.0944C956.029 53.5895 955.091 49.9158 955.091 45.3H953.091C953.091 50.1342 954.065 54.3355 956.469 57.3431C958.907 60.3929 962.679 62.05 967.891 62.05V60.05ZM955.091 45.3V26.7H953.091V45.3H955.091ZM954.091 25.7H948.166V27.7H954.091V25.7ZM949.166 26.7V18.525H947.166V26.7H949.166ZM948.247 19.5217L954.697 18.9967L954.535 17.0033L948.085 17.5283L948.247 19.5217ZM955.609 18.1126L956.884 6.86261L954.897 6.63738L953.622 17.8874L955.609 18.1126ZM955.891 7.75H965.116V5.75H955.891V7.75ZM964.116 6.75V18H966.116V6.75H964.116ZM965.116 19H975.466V17H965.116V19ZM974.466 18V26.7H976.466V18H974.466ZM975.466 25.7H965.116V27.7H975.466V25.7ZM964.116 26.7V45.3H966.116V26.7H964.116ZM964.116 45.3C964.116 47.7672 964.601 49.7985 965.754 51.2254C966.94 52.6942 968.691 53.35 970.816 53.35V51.35C969.115 51.35 968.016 50.8433 967.309 49.9684C966.568 49.0515 966.116 47.5578 966.116 45.3H964.116ZM970.816 53.35C972.389 53.35 974.108 52.942 975.364 52.3562L974.518 50.5438C973.523 51.008 972.092 51.35 970.816 51.35V53.35ZM973.965 51.6689L975.765 59.6939L977.717 59.2561L975.917 51.2311L973.965 51.6689ZM976.406 58.5326C974.154 59.332 971.42 60.05 967.891 60.05V62.05C971.712 62.05 974.678 61.268 977.075 60.4174L976.406 58.5326ZM993.61 0.599996H994.61V-0.400004H993.61V0.599996ZM993.61 11.25V12.25H994.61V11.25H993.61ZM982.66 11.25H981.66V12.25H982.66V11.25ZM982.66 0.599996V-0.400004H981.66V0.599996H982.66ZM993.535 60V61H994.535V60H993.535ZM982.585 60H981.585V61H982.585V60ZM982.585 18V17H981.585V18H982.585ZM993.535 18H994.535V17H993.535V18ZM992.61 0.599996V11.25H994.61V0.599996H992.61ZM993.61 10.25H982.66V12.25H993.61V10.25ZM983.66 11.25V0.599996H981.66V11.25H983.66ZM982.66 1.6H993.61V-0.400004H982.66V1.6ZM993.535 59H982.585V61H993.535V59ZM983.585 60V18H981.585V60H983.585ZM982.585 19H993.535V17H982.585V19ZM992.535 18V60H994.535V18H992.535ZM1021.54 60.05C1011.6 60.05 1002.36 52.3322 1002.36 39.075H1000.36C1000.36 53.4178 1010.48 62.05 1021.54 62.05V60.05ZM1002.36 39.075C1002.36 25.5905 1011.6 17.95 1021.54 17.95V15.95C1010.47 15.95 1000.36 24.5095 1000.36 39.075H1002.36ZM1021.54 17.95C1031.47 17.95 1040.71 25.5905 1040.71 39.075H1042.71C1042.71 24.5095 1032.6 15.95 1021.54 15.95V17.95ZM1040.71 39.075C1040.71 52.3322 1031.48 60.05 1021.54 60.05V62.05C1032.6 62.05 1042.71 53.4178 1042.71 39.075H1040.71ZM1021.54 53.05C1024.73 53.05 1027.27 51.5976 1028.97 49.0735C1030.64 46.5924 1031.46 43.1295 1031.46 39.075H1029.46C1029.46 42.8955 1028.68 45.9201 1027.31 47.9577C1025.97 49.9524 1024.04 51.05 1021.54 51.05V53.05ZM1031.46 39.075C1031.46 34.9129 1030.64 31.4114 1028.97 28.9187C1027.27 26.38 1024.73 24.95 1021.54 24.95V26.95C1024.05 26.95 1025.97 28.0325 1027.31 30.0313C1028.68 32.0761 1029.46 35.1371 1029.46 39.075H1031.46ZM1021.54 24.95C1018.35 24.95 1015.81 26.38 1014.11 28.9187C1012.44 31.4114 1011.61 34.9129 1011.61 39.075H1013.61C1013.61 35.1371 1014.4 32.0761 1015.77 30.0313C1017.11 28.0325 1019.03 26.95 1021.54 26.95V24.95ZM1011.61 39.075C1011.61 43.1295 1012.44 46.5924 1014.11 49.0735C1015.8 51.5976 1018.34 53.05 1021.54 53.05V51.05C1019.03 51.05 1017.11 49.9524 1015.77 47.9577C1014.4 45.9201 1013.61 42.8955 1013.61 39.075H1011.61ZM1050.56 60H1049.56V61H1050.56V60ZM1050.56 18V17H1049.56V18H1050.56ZM1059.56 18L1060.55 17.8661L1060.43 17H1059.56V18ZM1060.31 23.55L1059.32 23.6839L1059.44 24.55H1060.31V23.55ZM1060.61 23.55V24.55H1061.02L1061.31 24.2644L1060.61 23.55ZM1087.24 60V61H1088.24V60H1087.24ZM1076.21 60H1075.21V61H1076.21V60ZM1061.51 31.125L1060.82 30.4013L1060.51 30.6968V31.125H1061.51ZM1061.51 60V61H1062.51V60H1061.51ZM1051.56 60V18H1049.56V60H1051.56ZM1050.56 19H1059.56V17H1050.56V19ZM1058.57 18.1339L1059.32 23.6839L1061.3 23.4161L1060.55 17.8661L1058.57 18.1339ZM1060.31 24.55H1060.61V22.55H1060.31V24.55ZM1061.31 24.2644C1064.92 20.7293 1068.95 17.95 1074.26 17.95V15.95C1068.17 15.95 1063.65 19.1707 1059.91 22.8356L1061.31 24.2644ZM1074.26 17.95C1078.54 17.95 1081.46 19.4177 1083.34 22.0105C1085.27 24.6611 1086.24 28.6316 1086.24 33.825H1088.24C1088.24 28.4434 1087.25 23.9764 1084.96 20.8332C1082.63 17.6323 1079.06 15.95 1074.26 15.95V17.95ZM1086.24 33.825V60H1088.24V33.825H1086.24ZM1087.24 59H1076.21V61H1087.24V59ZM1077.21 60V35.175H1075.21V60H1077.21ZM1077.21 35.175C1077.21 31.8788 1076.79 29.4158 1075.64 27.7705C1074.43 26.0236 1072.57 25.4 1070.29 25.4V27.4C1072.2 27.4 1073.3 27.9014 1074 28.9107C1074.77 30.0217 1075.21 31.9462 1075.21 35.175H1077.21ZM1070.29 25.4C1066.33 25.4 1064.04 27.3281 1060.82 30.4013L1062.2 31.8487C1065.43 28.7719 1067.19 27.4 1070.29 27.4V25.4ZM1060.51 31.125V60H1062.51V31.125H1060.51ZM1061.51 59H1050.56V61H1061.51V59Z" fill="#12A4C5" mask="url(#path-1-outside-1_719_1104)"/>
</svg>
