<svg width="535" height="625" viewBox="0 0 535 625" fill="none" xmlns="http://www.w3.org/2000/svg">
<rect x="185" width="165" height="44" rx="8" fill="#12A4C5"/>
<path d="M251.511 29.376H249.511V22H248.183V28.688H246.215V14.912H248.183V20.304H249.511V14.624H251.511V29.376ZM241.367 24.32C242.775 24.272 243.991 24.208 245.399 23.952L245.559 25.664C243.767 26 242.183 26.064 240.311 26.064H239.287V16.336H244.743V18.048H241.367V24.32ZM266.853 27.76H253.493V26.064H256.789V23.296H254.629V21.632H256.549V17.488H254.549V15.808H265.749V17.488H263.749V21.632H265.717V23.296H263.525V26.064H266.853V27.76ZM261.653 21.632V17.488H258.645V21.632H261.653ZM261.429 26.064V23.296H258.885V26.064H261.429ZM280.356 29.408H278.244V14.624H280.356V29.408ZM272.436 15.664C274.66 15.664 276.308 17.68 276.308 20.912C276.308 24.16 274.66 26.192 272.436 26.192C270.212 26.192 268.564 24.16 268.564 20.912C268.564 17.68 270.212 15.664 272.436 15.664ZM272.436 17.568C271.348 17.568 270.596 18.72 270.596 20.912C270.596 23.104 271.348 24.272 272.436 24.272C273.524 24.272 274.276 23.104 274.276 20.912C274.276 18.72 273.524 17.568 272.436 17.568ZM294.323 22.064V29.376H292.211V14.64H294.323V20.304H296.467V22.064H294.323ZM288.211 17.92C288.211 20.576 289.251 23.264 291.619 24.416L290.339 26.08C288.803 25.296 287.779 23.92 287.155 22.112C286.515 23.984 285.411 25.536 283.747 26.352L282.483 24.64C284.963 23.488 286.083 20.656 286.083 17.92V15.776H288.211V17.92Z" fill="white"/>
<rect y="100" width="165" height="44" rx="8" fill="#12A4C5"/>
<path d="M73.4619 129.36H71.3339V114.624H73.4619V129.36ZM69.0779 116.16C69.0779 120.656 67.5579 124.368 62.3259 126.88L61.2219 125.216C64.9819 123.424 66.6139 121.104 66.9179 117.84H62.0059V116.16H69.0779ZM76.3246 117.232V115.728H79.6046V114.528H81.7166V115.728H84.9646V117.232H76.3246ZM88.1006 124.624H85.9726V114.656H88.1006V124.624ZM85.2526 123.76C82.1486 124.272 78.7566 124.336 76.1806 124.336L75.9086 122.752C77.0606 122.752 78.2606 122.768 79.6046 122.72V121.936C78.0046 121.696 76.9966 120.944 76.9966 119.792C76.9966 118.448 78.4686 117.6 80.6606 117.6C82.8206 117.6 84.2926 118.448 84.2926 119.792C84.2926 120.944 83.3166 121.696 81.7166 121.936V122.64C82.8686 122.576 84.0206 122.48 85.1086 122.352L85.2526 123.76ZM79.0126 119.792C79.0126 120.32 79.6366 120.624 80.6606 120.624C81.6846 120.624 82.2766 120.32 82.2766 119.792C82.2766 119.232 81.6846 118.976 80.6606 118.976C79.6366 118.976 79.0126 119.232 79.0126 119.792ZM88.1006 125.2V129.392H85.9726V126.832H77.9246V125.2H88.1006ZM100.579 122.08V114.656H102.691V122.08H100.579ZM98.4994 121.904C96.8194 121.408 95.6834 120.384 95.0274 119.104C94.3394 120.512 93.1554 121.616 91.4274 122.144L90.4034 120.496C92.8354 119.728 93.9234 117.888 93.9234 116.096V114.992H96.0674V116.096C96.0674 117.824 97.1234 119.568 99.5074 120.256L98.4994 121.904ZM103.075 129.264H92.8994V125.216H100.611V124.352H92.8834V122.736H102.707V126.72H94.9954V127.632H103.075V129.264Z" fill="white"/>
<rect x="370" y="201" width="165" height="44" rx="8" fill="#12A4C5"/>
<path d="M411.676 223V230.376H409.564V215.64H411.676V221.256H413.82V223H411.676ZM405.548 219.608C405.548 221.848 406.716 224.472 409.132 225.576L407.964 227.24C406.3 226.488 405.18 225.016 404.524 223.272C403.868 225.208 402.684 226.792 401.004 227.608L399.82 225.928C402.236 224.824 403.436 222.04 403.436 219.608V218.792H400.38V217.048H408.476V218.792H405.548V219.608ZM428.123 224.248H414.795V222.568H420.395V221.352H416.411V216.264H426.523V217.944H418.507V219.672H426.603V221.352H422.507V222.568H428.123V224.248ZM421.403 224.968C424.587 224.968 426.523 225.944 426.523 227.688C426.523 229.416 424.587 230.392 421.403 230.392C418.219 230.392 416.299 229.416 416.299 227.688C416.299 225.944 418.219 224.968 421.403 224.968ZM421.403 228.792C423.403 228.792 424.379 228.456 424.379 227.688C424.379 226.936 423.387 226.568 421.403 226.568C419.419 226.568 418.427 226.936 418.427 227.688C418.427 228.456 419.403 228.792 421.403 228.792ZM441.129 223.384V230.376H439.017V215.64H441.129V221.64H442.969V223.384H441.129ZM429.529 218.92V217.256H432.825V215.704H434.937V217.256H438.201V218.92H429.529ZM434.937 226.104C436.089 226.04 437.177 225.976 438.265 225.8L438.425 227.32C435.321 227.912 432.025 227.928 429.513 227.928L429.257 226.216C430.345 226.216 431.529 226.232 432.825 226.184V224.936C431.289 224.632 430.281 223.624 430.281 222.28C430.281 220.616 431.769 219.496 433.881 219.496C435.993 219.496 437.481 220.616 437.481 222.28C437.481 223.624 436.473 224.632 434.937 224.936V226.104ZM432.281 222.28C432.281 223.048 432.921 223.464 433.881 223.464C434.841 223.464 435.481 223.048 435.481 222.28C435.481 221.512 434.841 221.096 433.881 221.096C432.921 221.096 432.281 221.512 432.281 222.28ZM455.592 223.064V230.376H453.48V215.64H455.592V221.304H457.736V223.064H455.592ZM449.48 218.92C449.48 221.576 450.52 224.264 452.888 225.416L451.608 227.08C450.072 226.296 449.048 224.92 448.424 223.112C447.784 224.984 446.68 226.536 445.016 227.352L443.752 225.64C446.232 224.488 447.352 221.656 447.352 218.92V216.776H449.48V218.92ZM471.015 223.56H468.903V220.6H466.567C466.183 222.184 464.647 223.288 462.759 223.288C460.551 223.288 458.887 221.816 458.887 219.768C458.887 217.72 460.551 216.248 462.759 216.248C464.647 216.248 466.119 217.304 466.551 218.888H468.903V215.64H471.015V223.56ZM462.759 221.528C463.847 221.528 464.631 220.872 464.631 219.768C464.631 218.664 463.847 218.008 462.759 218.008C461.671 218.008 460.903 218.664 460.903 219.768C460.903 220.872 461.671 221.528 462.759 221.528ZM471.015 224.2V230.2H461.255V224.2H463.351V225.608H468.919V224.2H471.015ZM463.351 227.208V228.536H468.919V227.208H463.351ZM477.439 220.728C480.575 220.552 482.047 219.592 482.303 218.616H478.143V216.968H482.463V215.672H484.575V216.968H488.911V218.616H484.751C485.007 219.592 486.479 220.552 489.615 220.728L488.991 222.296C486.159 222.104 484.447 221.352 483.535 220.184C482.575 221.352 480.831 222.104 478.063 222.296L477.439 220.728ZM490.191 224.68H476.879V223.032H482.463V221.624H484.575V223.032H490.191V224.68ZM483.503 225.384C486.719 225.384 488.623 226.264 488.623 227.88C488.623 229.496 486.719 230.392 483.503 230.392C480.287 230.392 478.399 229.496 478.399 227.88C478.399 226.264 480.159 225.384 483.503 225.384ZM483.503 228.824C485.487 228.824 486.479 228.504 486.479 227.88C486.479 227.192 485.503 226.936 483.503 226.936C481.503 226.936 480.527 227.192 480.527 227.88C480.527 228.504 481.519 228.824 483.503 228.824ZM505.053 220.472H503.277V223.464H501.165V215.624H503.277V218.744H505.053V220.472ZM497.373 220.6C497.565 219.512 497.629 218.632 497.645 217.912H492.157V216.264H499.725V217.128C499.725 218.024 499.725 219.256 499.421 220.792L497.373 220.6ZM500.493 222.728C497.453 223.24 494.125 223.288 491.485 223.288L491.309 221.656C492.141 221.656 493.021 221.656 493.981 221.64V219.304H496.061V221.592C497.533 221.528 498.973 221.432 500.381 221.288L500.493 222.728ZM503.757 228.68V230.264H493.213V226.36H501.165V225.544H493.181V223.992H503.277V227.816H495.325V228.68H503.757Z" fill="white"/>
<rect y="413" width="535" height="44" rx="8" fill="#12A4C5"/>
<path d="M249.306 442.408H247.194V427.624H249.306V442.408ZM241.386 428.664C243.61 428.664 245.258 430.68 245.258 433.912C245.258 437.16 243.61 439.192 241.386 439.192C239.162 439.192 237.514 437.16 237.514 433.912C237.514 430.68 239.162 428.664 241.386 428.664ZM241.386 430.568C240.298 430.568 239.546 431.72 239.546 433.912C239.546 436.104 240.298 437.272 241.386 437.272C242.474 437.272 243.226 436.104 243.226 433.912C243.226 431.72 242.474 430.568 241.386 430.568ZM259.241 436.392V427.912H261.209V431.272H262.297V427.64H264.297V436.856H262.297V432.984H261.209V436.392H259.241ZM251.657 430.776V429.144H254.201V427.8H256.281V429.144H258.841V430.776H251.657ZM258.441 433.816C258.441 435.336 257.129 436.392 255.273 436.392C253.401 436.392 252.089 435.336 252.089 433.816C252.089 432.28 253.401 431.256 255.273 431.256C257.129 431.256 258.441 432.28 258.441 433.816ZM253.961 433.816C253.961 434.504 254.489 434.888 255.273 434.888C256.057 434.888 256.569 434.504 256.569 433.816C256.569 433.128 256.057 432.76 255.273 432.76C254.489 432.76 253.961 433.128 253.961 433.816ZM259.305 437.016C262.585 437.016 264.377 437.976 264.377 439.704C264.377 441.432 262.585 442.376 259.305 442.376C256.025 442.376 254.233 441.432 254.233 439.704C254.233 437.976 256.025 437.016 259.305 437.016ZM259.305 440.808C261.305 440.808 262.265 440.472 262.265 439.704C262.265 438.936 261.305 438.6 259.305 438.6C257.305 438.6 256.345 438.936 256.345 439.704C256.345 440.472 257.305 440.808 259.305 440.808ZM270.48 432.728C273.616 432.552 275.088 431.592 275.344 430.616H271.184V428.968H275.504V427.672H277.616V428.968H281.952V430.616H277.792C278.048 431.592 279.52 432.552 282.656 432.728L282.032 434.296C279.2 434.104 277.488 433.352 276.576 432.184C275.616 433.352 273.872 434.104 271.104 434.296L270.48 432.728ZM283.232 436.68H269.92V435.032H275.504V433.624H277.616V435.032H283.232V436.68ZM276.544 437.384C279.76 437.384 281.664 438.264 281.664 439.88C281.664 441.496 279.76 442.392 276.544 442.392C273.328 442.392 271.44 441.496 271.44 439.88C271.44 438.264 273.2 437.384 276.544 437.384ZM276.544 440.824C278.528 440.824 279.52 440.504 279.52 439.88C279.52 439.192 278.544 438.936 276.544 438.936C274.544 438.936 273.568 439.192 273.568 439.88C273.568 440.504 274.56 440.824 276.544 440.824ZM298.095 432.472H296.319V435.464H294.207V427.624H296.319V430.744H298.095V432.472ZM290.415 432.6C290.607 431.512 290.671 430.632 290.687 429.912H285.199V428.264H292.767V429.128C292.767 430.024 292.767 431.256 292.463 432.792L290.415 432.6ZM293.535 434.728C290.495 435.24 287.167 435.288 284.527 435.288L284.351 433.656C285.183 433.656 286.063 433.656 287.023 433.64V431.304H289.103V433.592C290.575 433.528 292.015 433.432 293.423 433.288L293.535 434.728ZM296.799 440.68V442.264H286.255V438.36H294.207V437.544H286.223V435.992H296.319V439.816H288.367V440.68H296.799Z" fill="white"/>
<rect y="201" width="165" height="44" rx="8" fill="#12A4C5"/>
<path d="M72.7743 229.224C69.7663 229.224 67.3502 227.08 67.3502 223.128C67.3502 219.224 69.8623 216.936 72.8543 216.936C74.3903 216.936 75.5583 217.64 76.3263 218.456L75.0782 219.96C74.4862 219.384 73.7983 218.968 72.9023 218.968C71.1102 218.968 69.7663 220.504 69.7663 223.048C69.7663 225.624 70.9823 227.176 72.8543 227.176C73.8783 227.176 74.6623 226.696 75.3022 226.008L76.5503 227.48C75.5743 228.648 74.3263 229.224 72.7743 229.224ZM85.6739 217.16V219.128H80.7459V222.216H84.9539V224.2H80.7459V229H78.3779V217.16H85.6739ZM92.3613 229.224C89.2253 229.224 87.0653 226.872 87.0653 223.032C87.0653 219.176 89.2253 216.936 92.3613 216.936C95.4973 216.936 97.6573 219.192 97.6573 223.032C97.6573 226.872 95.4973 229.224 92.3613 229.224ZM92.3613 227.176C94.1213 227.176 95.2413 225.544 95.2413 223.032C95.2413 220.456 94.1693 218.968 92.3613 218.968C90.5533 218.968 89.4813 220.456 89.4813 223.032C89.4813 225.544 90.6013 227.176 92.3613 227.176Z" fill="white"/>
<rect x="0.5" y="259.5" width="164" height="39" rx="7.5" stroke="#12A4C5"/>
<path d="M71.8139 282.328V271.848H73.1259V282.328H71.8139ZM69.1739 276.36C69.1739 278.44 67.5419 279.912 65.4139 279.912C63.2859 279.912 61.6859 278.44 61.6859 276.36C61.6859 274.296 63.2859 272.84 65.4139 272.84C67.5419 272.84 69.1739 274.296 69.1739 276.36ZM62.9659 276.36C62.9659 277.784 64.0059 278.776 65.4139 278.776C66.8379 278.776 67.8939 277.784 67.8939 276.36C67.8939 274.968 66.8379 273.976 65.4139 273.976C64.0059 273.976 62.9659 274.968 62.9659 276.36ZM73.5579 285.864H63.8939V281.256H65.2059V284.792H73.5579V285.864ZM87.0286 278.744V286.184H85.7166V271.848H87.0286V277.656H89.3966V278.744H87.0286ZM80.8046 275.656C80.8046 278.168 82.4526 280.776 84.4526 281.8L83.6366 282.84C82.1006 282.024 80.8046 280.36 80.1646 278.376C79.5406 280.504 78.2126 282.232 76.5966 283.128L75.8126 282.072C77.8766 281 79.5086 278.264 79.5086 275.656V273.08H80.8046V275.656ZM102.403 280.408H101.091V271.848H102.403V280.408ZM99.5874 279.112C97.4914 279.448 95.7314 279.528 92.6114 279.528H91.4434V272.712H98.2914V273.768H92.7554V275.544H97.8914V276.584H92.7554V278.472C95.7474 278.472 97.4274 278.408 99.4434 278.072L99.5874 279.112ZM102.403 281.112V285.992H93.1234V281.112H102.403ZM101.123 284.936V282.168H94.4034V284.936H101.123Z" fill="#222222"/>
<rect x="370.5" y="259.5" width="164" height="39" rx="7.5" stroke="#12A4C5"/>
<path d="M438.166 278.28C437.51 279.048 436.486 279.512 435.27 279.512C433.142 279.512 431.574 278.104 431.574 276.088C431.574 274.088 433.142 272.696 435.27 272.696C436.486 272.696 437.51 273.144 438.166 273.896H441.846V271.832H443.174V280.328H441.846V278.28H438.166ZM432.822 276.088C432.822 277.432 433.862 278.392 435.27 278.392C436.678 278.392 437.702 277.432 437.702 276.088C437.702 274.744 436.678 273.8 435.27 273.8C433.862 273.8 432.822 274.744 432.822 276.088ZM438.774 274.968C438.886 275.352 438.95 275.72 438.95 276.088C438.95 276.488 438.886 276.856 438.758 277.208H441.846V274.968H438.774ZM438.422 280.664C441.366 280.664 443.222 281.672 443.222 283.416C443.222 285.16 441.366 286.168 438.422 286.168C435.478 286.168 433.654 285.16 433.654 283.416C433.654 281.672 435.478 280.664 438.422 280.664ZM438.422 285.128C440.614 285.128 441.926 284.504 441.926 283.416C441.926 282.328 440.614 281.688 438.422 281.688C436.23 281.688 434.95 282.328 434.95 283.416C434.95 284.504 436.23 285.128 438.422 285.128ZM457.813 279.544H456.485V276.328H453.573C453.317 278.04 451.893 279.144 449.909 279.144C447.781 279.144 446.213 277.8 446.213 275.816C446.213 273.848 447.781 272.504 449.909 272.504C451.829 272.504 453.301 273.608 453.557 275.256H456.485V271.848H457.813V279.544ZM449.909 278.056C451.333 278.056 452.357 277.128 452.357 275.816C452.357 274.488 451.333 273.592 449.909 273.592C448.485 273.592 447.461 274.488 447.461 275.816C447.461 277.128 448.485 278.056 449.909 278.056ZM457.813 280.248V285.992H448.629V280.248H449.925V282.056H456.501V280.248H457.813ZM449.925 283.08V284.936H456.501V283.08H449.925ZM472.403 280.408H471.091V271.848H472.403V280.408ZM469.587 279.112C467.491 279.448 465.731 279.528 462.611 279.528H461.443V272.712H468.291V273.768H462.755V275.544H467.891V276.584H462.755V278.472C465.747 278.472 467.427 278.408 469.443 278.072L469.587 279.112ZM472.403 281.112V285.992H463.123V281.112H472.403ZM471.123 284.936V282.168H464.403V284.936H471.123Z" fill="#222222"/>
<rect y="581" width="165" height="44" rx="8" fill="#80D9F0"/>
<path d="M46.5494 604.024H44.4374V609H42.9494V597.272H46.6294C49.0134 597.272 50.7254 598.12 50.7254 600.568C50.7254 602.44 49.6694 603.48 48.0694 603.864L51.0774 609H49.3974L46.5494 604.024ZM46.4054 602.824C48.2774 602.824 49.2534 602.104 49.2534 600.568C49.2534 599.016 48.2774 598.472 46.4054 598.472H44.4374V602.824H46.4054ZM56.3696 597.272C58.9936 597.272 60.7696 598.152 60.7696 600.712C60.7696 603.208 59.0096 604.344 56.4496 604.344H54.5136V609H53.0256V597.272H56.3696ZM56.2576 603.144C58.3216 603.144 59.2976 602.392 59.2976 600.712C59.2976 599.032 58.2576 598.472 56.1936 598.472H54.5136V603.144H56.2576ZM63.2524 605.416L62.1164 609H60.6124L64.5964 597.272H66.2444L70.2284 609H68.6604L67.5404 605.416H63.2524ZM66.6124 602.44C66.1804 601.096 65.8124 599.832 65.4284 598.472H65.3644C64.9964 599.88 64.6284 601.096 64.1964 602.44L63.6204 604.232H67.1724L66.6124 602.44ZM83.2271 610.184H81.9631V602.68H80.0111V609.464H78.7791V596.216H80.0111V601.608H81.9631V595.832H83.2271V610.184ZM77.1951 597.688C77.1951 601.384 75.9151 604.808 71.8191 607.112L71.0511 606.168C74.3631 604.296 75.6911 601.752 75.8991 598.76H71.5951V597.688H77.1951ZM98.9539 600.008H96.8259V603.256H95.5139V595.848H96.8259V598.92H98.9539V600.008ZM86.2819 602.696V596.424H87.5779V598.488H91.6419V596.424H92.9219V602.696H86.2819ZM87.5779 599.496V601.64H91.6419V599.496H87.5779ZM97.3539 608.984V610.024H87.7539V606.44H95.5299V604.968H87.7059V603.928H96.8259V607.416H89.0339V608.984H97.3539ZM108.201 609H100.329V607.976L104.377 604.088C105.609 602.776 106.505 601.768 106.505 600.392C106.457 598.984 105.561 598.328 104.345 598.328C103.001 598.328 102.009 599.288 102.009 600.632L100.569 600.392C100.873 598.232 102.425 597.064 104.425 597.064C106.425 597.064 107.977 598.28 107.977 600.36C107.977 602.104 106.857 603.32 105.529 604.648L102.249 607.896C102.697 607.768 103.177 607.704 103.577 607.704H108.201V609ZM121.556 604.408H120.244V595.848H121.556V604.408ZM118.74 603.112C116.644 603.448 114.884 603.528 111.764 603.528H110.596V596.712H117.444V597.768H111.908V599.544H117.044V600.584H111.908V602.472C114.9 602.472 116.58 602.408 118.596 602.072L118.74 603.112ZM121.556 605.112V609.992H112.276V605.112H121.556ZM120.276 608.936V606.168H113.556V608.936H120.276Z" fill="white"/>
<rect y="524" width="165" height="44" rx="8" fill="#80D9F0"/>
<path d="M46.5494 547.024H44.4374V552H42.9494V540.272H46.6294C49.0134 540.272 50.7254 541.12 50.7254 543.568C50.7254 545.44 49.6694 546.48 48.0694 546.864L51.0774 552H49.3974L46.5494 547.024ZM46.4054 545.824C48.2774 545.824 49.2534 545.104 49.2534 543.568C49.2534 542.016 48.2774 541.472 46.4054 541.472H44.4374V545.824H46.4054ZM56.3696 540.272C58.9936 540.272 60.7696 541.152 60.7696 543.712C60.7696 546.208 59.0096 547.344 56.4496 547.344H54.5136V552H53.0256V540.272H56.3696ZM56.2576 546.144C58.3216 546.144 59.2976 545.392 59.2976 543.712C59.2976 542.032 58.2576 541.472 56.1936 541.472H54.5136V546.144H56.2576ZM63.2524 548.416L62.1164 552H60.6124L64.5964 540.272H66.2444L70.2284 552H68.6604L67.5404 548.416H63.2524ZM66.6124 545.44C66.1804 544.096 65.8124 542.832 65.4284 541.472H65.3644C64.9964 542.88 64.6284 544.096 64.1964 545.44L63.6204 547.232H67.1724L66.6124 545.44ZM83.2271 553.184H81.9631V545.68H80.0111V552.464H78.7791V539.216H80.0111V544.608H81.9631V538.832H83.2271V553.184ZM77.1951 540.688C77.1951 544.384 75.9151 547.808 71.8191 550.112L71.0511 549.168C74.3631 547.296 75.6911 544.752 75.8991 541.76H71.5951V540.688H77.1951ZM98.9539 543.008H96.8259V546.256H95.5139V538.848H96.8259V541.92H98.9539V543.008ZM86.2819 545.696V539.424H87.5779V541.488H91.6419V539.424H92.9219V545.696H86.2819ZM87.5779 542.496V544.64H91.6419V542.496H87.5779ZM97.3539 551.984V553.024H87.7539V549.44H95.5299V547.968H87.7059V546.928H96.8259V550.416H89.0339V551.984H97.3539ZM107.897 552H101.561V550.816H104.169V542.368C104.169 542.224 104.169 542.08 104.185 541.968L102.057 543.872L101.273 542.928L104.425 540.208H105.593V550.816H107.897V552ZM121.556 547.408H120.244V538.848H121.556V547.408ZM118.74 546.112C116.644 546.448 114.884 546.528 111.764 546.528H110.596V539.712H117.444V540.768H111.908V542.544H117.044V543.584H111.908V545.472C114.9 545.472 116.58 545.408 118.596 545.072L118.74 546.112ZM121.556 548.112V552.992H112.276V548.112H121.556ZM120.276 551.936V549.168H113.556V551.936H120.276Z" fill="white"/>
<rect x="185" y="524" width="165" height="44" rx="8" fill="#80D9F0"/>
<path d="M236.311 548.416L235.175 552H233.671L237.655 540.272H239.303L243.287 552H241.719L240.599 548.416H236.311ZM239.671 545.44C239.239 544.096 238.871 542.832 238.487 541.472H238.423C238.055 542.88 237.687 544.096 237.255 545.44L236.679 547.232H240.231L239.671 545.44ZM246.35 540.272V552H244.862V540.272H246.35ZM253.949 545.552V546.672H248.669V545.552H253.949ZM260.6 552.208C257.656 552.208 255.592 549.872 255.592 546.096C255.592 542.336 257.656 540.048 260.6 540.048C263.544 540.048 265.608 542.336 265.608 546.096C265.608 549.872 263.544 552.208 260.6 552.208ZM260.6 550.912C262.712 550.912 264.088 549.024 264.088 546.096C264.088 543.152 262.712 541.344 260.6 541.344C258.488 541.344 257.112 543.152 257.112 546.096C257.112 549.024 258.488 550.912 260.6 550.912ZM272.491 552.208C269.595 552.208 267.387 549.936 267.387 546.144C267.387 542.352 269.595 540.048 272.587 540.048C274.011 540.048 275.131 540.752 275.803 541.504L275.003 542.464C274.379 541.808 273.627 541.344 272.603 541.344C270.379 541.344 268.907 543.152 268.907 546.096C268.907 549.056 270.315 550.912 272.555 550.912C273.707 550.912 274.523 550.416 275.275 549.6L276.091 550.528C275.131 551.616 274.027 552.208 272.491 552.208ZM281.782 547.024H279.67V552H278.182V540.272H281.862C284.246 540.272 285.958 541.12 285.958 543.568C285.958 545.44 284.902 546.48 283.302 546.864L286.31 552H284.63L281.782 547.024ZM281.638 545.824C283.51 545.824 284.486 545.104 284.486 543.568C284.486 542.016 283.51 541.472 281.638 541.472H279.67V545.824H281.638ZM299.282 547.408H297.97V538.848H299.282V547.408ZM296.466 546.112C294.37 546.448 292.61 546.528 289.49 546.528H288.322V539.712H295.17V540.768H289.634V542.544H294.77V543.584H289.634V545.472C292.626 545.472 294.306 545.408 296.322 545.072L296.466 546.112ZM299.282 548.112V552.992H290.002V548.112H299.282ZM298.002 551.936V549.168H291.282V551.936H298.002Z" fill="white"/>
<rect x="370" y="524" width="165" height="44" rx="8" fill="#80D9F0"/>
<path d="M419.856 549.36V538.832H421.168V549.36H419.856ZM417.344 547.024C415.68 546.4 414.448 545.136 413.808 543.472C413.184 545.216 411.904 546.608 410.224 547.312L409.536 546.24C411.712 545.424 413.136 543.328 413.136 541.088V539.632H414.448V541.088C414.448 543.248 415.92 545.216 418.032 545.984L417.344 547.024ZM421.6 552.864H411.936V548.384H413.248V551.792H421.6V552.864ZM435.071 545.744V553.184H433.759V538.848H435.071V544.656H437.439V545.744H435.071ZM428.847 542.656C428.847 545.168 430.495 547.776 432.495 548.8L431.679 549.84C430.143 549.024 428.847 547.36 428.207 545.376C427.583 547.504 426.255 549.232 424.639 550.128L423.855 549.072C425.919 548 427.551 545.264 427.551 542.656V540.08H428.847V542.656ZM450.493 546.544H449.165V543.328H446.253C445.997 545.04 444.573 546.144 442.589 546.144C440.461 546.144 438.893 544.8 438.893 542.816C438.893 540.848 440.461 539.504 442.589 539.504C444.509 539.504 445.981 540.608 446.237 542.256H449.165V538.848H450.493V546.544ZM442.589 545.056C444.013 545.056 445.037 544.128 445.037 542.816C445.037 541.488 444.013 540.592 442.589 540.592C441.165 540.592 440.141 541.488 440.141 542.816C440.141 544.128 441.165 545.056 442.589 545.056ZM450.493 547.248V552.992H441.309V547.248H442.605V549.056H449.181V547.248H450.493ZM442.605 550.08V551.936H449.181V550.08H442.605ZM454.124 545.36C456.732 545.024 459.132 543.44 459.132 541.664H454.572V540.608H459.148V538.848H460.46V540.608H465.036V541.664H460.46C460.46 543.424 462.876 545.024 465.452 545.36L464.988 546.416C462.78 546.08 460.716 544.976 459.804 543.424C458.892 544.976 456.828 546.08 454.604 546.416L454.124 545.36ZM460.46 548.576V553.2H459.148V548.576H453.324V547.504H466.3V548.576H460.46ZM478.411 549.344V538.848H479.723V549.344H478.411ZM476.075 547.296C474.411 546.72 473.115 545.568 472.459 544.032C471.835 545.696 470.555 546.944 468.827 547.568L468.139 546.544C470.315 545.776 471.771 543.936 471.771 541.872V541.088H468.491V540.032H476.363V541.088H473.115V541.872C473.115 543.792 474.603 545.568 476.715 546.256L476.075 547.296ZM480.155 552.864H470.491V548.352H471.803V551.792H480.155V552.864ZM494.362 547.408H493.05V538.848H494.362V547.408ZM491.546 546.112C489.45 546.448 487.69 546.528 484.57 546.528H483.402V539.712H490.25V540.768H484.714V542.544H489.85V543.584H484.714V545.472C487.706 545.472 489.386 545.408 491.402 545.072L491.546 546.112ZM494.362 548.112V552.992H485.082V548.112H494.362ZM493.082 551.936V549.168H486.362V551.936H493.082Z" fill="white"/>
<rect x="0.5" y="313.5" width="164" height="39" rx="7.5" stroke="#12A4C5"/>
<path d="M55.8103 340.168H54.5463V325.816H55.8103V340.168ZM52.9143 326.152V339.432H51.6663V332.056H49.2983V330.984H51.6663V326.152H52.9143ZM47.8263 329.88C47.8263 332.376 48.8983 334.872 50.8823 335.992L50.0823 336.952C48.6743 336.12 47.6983 334.632 47.2023 332.76C46.7063 334.76 45.6663 336.408 44.2423 337.304L43.4423 336.328C45.4583 335.128 46.5623 332.52 46.5623 329.88V328.584H43.8423V327.512H50.3863V328.584H47.8263V329.88ZM59.9051 332.216V326.632H69.6011V332.216H59.9051ZM61.1851 327.688V331.176H68.3051V327.688H61.1851ZM65.3771 335.24V340.168H64.0651V335.24H58.2411V334.168H71.2651V335.24H65.3771ZM78.0798 325.512L73.2958 341.064H72.2238L77.0238 325.512H78.0798ZM79.4654 328.648V327.592H83.1774V325.848H84.4894V327.592H88.1854V328.648H79.4654ZM90.7774 340.184H89.4654V325.848H90.7774V340.184ZM84.4894 336.248C85.8494 336.184 87.2094 336.088 88.5534 335.912L88.6494 336.888C85.4494 337.4 82.0094 337.464 79.3534 337.464L79.1614 336.36C80.3774 336.36 81.7534 336.344 83.1774 336.296V334.76C81.4494 334.552 80.3774 333.592 80.3774 332.12C80.3774 330.504 81.7694 329.464 83.8334 329.464C85.8814 329.464 87.2734 330.504 87.2734 332.12C87.2734 333.544 86.2174 334.536 84.4894 334.744V336.248ZM81.6254 332.12C81.6254 333.144 82.4894 333.752 83.8334 333.752C85.1294 333.752 86.0254 333.144 86.0254 332.12C86.0254 331.096 85.1294 330.472 83.8334 330.472C82.4894 330.472 81.6254 331.096 81.6254 332.12ZM105.912 340.168H104.664V325.832H105.912V340.168ZM103.032 326.216V339.448H101.784V334.488H99.1922V333.416H101.784V330.888H99.4162C98.7282 333.32 97.2082 335.464 94.4722 337.08L93.7042 336.152C96.8402 334.28 98.3122 331.784 98.5522 328.728H94.3442V327.656H99.8482C99.8482 328.376 99.7842 329.112 99.6562 329.832H101.784V326.216H103.032ZM120.135 334.408H118.823V325.848H120.135V334.408ZM117.319 333.112C115.223 333.448 113.463 333.528 110.343 333.528H109.175V326.712H116.023V327.768H110.487V329.544H115.623V330.584H110.487V332.472C113.479 332.472 115.159 332.408 117.175 332.072L117.319 333.112ZM120.135 335.112V339.992H110.855V335.112H120.135ZM118.855 338.936V336.168H112.135V338.936H118.855Z" fill="#222222"/>
<rect x="370.5" y="313.5" width="164" height="39" rx="7.5" stroke="#12A4C5"/>
<path d="M440.629 339.208C438.245 339.208 436.421 337.928 436.421 334.152V327.272H437.909V334.2C437.909 337.016 439.093 337.912 440.629 337.912C442.213 337.912 443.429 337.016 443.429 334.2V327.272H444.853V334.152C444.853 337.928 443.029 339.208 440.629 339.208ZM446.816 327.272H448.448L450.048 330.264C450.352 330.824 450.592 331.288 450.976 331.976H451.04C451.36 331.288 451.568 330.824 451.872 330.264L453.44 327.272H454.992L451.792 333.016L455.216 339H453.584L451.856 335.832C451.552 335.256 451.232 334.648 450.848 333.944H450.784C450.448 334.632 450.144 335.272 449.84 335.832L448.144 339H446.592L450.016 332.936L446.816 327.272ZM468.036 334.408H466.724V325.848H468.036V334.408ZM465.22 333.112C463.124 333.448 461.364 333.528 458.244 333.528H457.076V326.712H463.924V327.768H458.388V329.544H463.524V330.584H458.388V332.472C461.38 332.472 463.06 332.408 465.076 332.072L465.22 333.112ZM468.036 335.112V339.992H458.756V335.112H468.036ZM466.756 338.936V336.168H460.036V338.936H466.756Z" fill="#222222"/>
<rect x="0.5" y="470.5" width="164" height="39" rx="7.5" stroke="#12A4C5"/>
<path d="M57.7511 489.728V497.184H56.4391V482.848H57.7511V488.624H60.1191V489.728H57.7511ZM51.5431 487.216C51.5431 489.504 53.1751 492.048 55.2551 493.024L54.5031 494.08C52.9031 493.264 51.5431 491.6 50.9031 489.68C50.2631 491.76 48.8391 493.632 47.2391 494.432L46.4711 493.392C48.5191 492.368 50.2471 489.648 50.2471 487.216V485.392H46.9671V484.304H54.7271V485.392H51.5431V487.216ZM74.3419 490.976H61.3499V489.92H67.1899V488.256H62.9819V483.488H72.7259V484.544H64.2939V487.2H72.8219V488.256H68.5019V489.92H74.3419V490.976ZM67.8459 492C70.8859 492 72.7419 492.928 72.7419 494.592C72.7419 496.256 70.8859 497.184 67.8459 497.184C64.7739 497.184 62.9179 496.256 62.9179 494.592C62.9179 492.928 64.7739 492 67.8459 492ZM67.8459 496.16C70.1019 496.16 71.4139 495.616 71.4139 494.592C71.4139 493.568 70.1019 493.024 67.8459 493.024C65.5259 493.024 64.2459 493.568 64.2459 494.592C64.2459 495.616 65.5259 496.16 67.8459 496.16ZM87.0446 490.032V497.184H85.7326V482.832H87.0446V488.928H89.2846V490.032H87.0446ZM76.0686 485.616V484.576H79.7166V482.848H81.0286V484.576H84.6446V485.616H76.0686ZM81.0286 493.264C82.3246 493.2 83.6526 493.104 84.8846 492.912L84.9646 493.888C81.8766 494.448 78.5326 494.464 76.0046 494.464L75.8286 493.36C76.9806 493.36 78.3086 493.36 79.7166 493.312V491.744C78.0526 491.536 76.9806 490.544 76.9806 489.12C76.9806 487.504 78.3726 486.464 80.3726 486.464C82.3726 486.464 83.7646 487.504 83.7646 489.12C83.7646 490.544 82.6926 491.536 81.0286 491.744V493.264ZM78.2286 489.12C78.2286 490.144 79.0926 490.752 80.3726 490.752C81.6526 490.752 82.5166 490.144 82.5166 489.12C82.5166 488.096 81.6526 487.472 80.3726 487.472C79.0926 487.472 78.2286 488.096 78.2286 489.12ZM92.0354 485.424V484.352H101.267V484.368H101.875V485.792C101.875 487.616 101.859 489.68 101.315 492.784L100.003 492.64C100.579 489.712 100.579 487.568 100.579 485.792V485.424H92.0354ZM103.619 495.088H90.6434V494H103.619V495.088ZM106.898 484.144V483.136H116.61V486.432H108.226V487.776H116.914V488.784H106.93V485.456H115.314V484.144H106.898ZM118.274 490.992H112.418V492.768H111.106V490.992H105.25V489.936H118.274V490.992ZM116.61 491.904V496.992H106.978V491.904H108.29V493.488H115.314V491.904H116.61ZM108.29 494.48V495.968H115.314V494.48H108.29Z" fill="#222222"/>
<rect x="185.5" y="470.5" width="164" height="39" rx="7.5" stroke="#12A4C5"/>
<path d="M243.139 484.272V496H241.651V484.272H243.139ZM249.202 484.272C252.898 484.272 254.738 486.272 254.738 490.096C254.738 493.808 252.786 496 249.266 496H246.258V484.272H249.202ZM249.074 494.784C251.842 494.784 253.202 493.056 253.202 490.096C253.202 487.072 251.906 485.472 249.074 485.472H247.746V494.784H249.074ZM260.507 484.272C263.131 484.272 264.907 485.152 264.907 487.712C264.907 490.208 263.147 491.344 260.587 491.344H258.651V496H257.163V484.272H260.507ZM260.395 490.144C262.459 490.144 263.435 489.392 263.435 487.712C263.435 486.032 262.395 485.472 260.331 485.472H258.651V490.144H260.395ZM267.848 485.424V484.352H277.08V484.368H277.688V485.792C277.688 487.616 277.672 489.68 277.128 492.784L275.816 492.64C276.392 489.712 276.392 487.568 276.392 485.792V485.424H267.848ZM279.432 495.088H266.456V494H279.432V495.088ZM282.711 484.144V483.136H292.423V486.432H284.039V487.776H292.727V488.784H282.743V485.456H291.127V484.144H282.711ZM294.087 490.992H288.231V492.768H286.919V490.992H281.063V489.936H294.087V490.992ZM292.423 491.904V496.992H282.791V491.904H284.103V493.488H291.127V491.904H292.423ZM284.103 494.48V495.968H291.127V494.48H284.103Z" fill="#222222"/>
<rect x="370.5" y="470.5" width="164" height="39" rx="7.5" stroke="#12A4C5"/>
<path d="M427.175 493.36V482.832H428.487V493.36H427.175ZM424.663 491.024C422.999 490.4 421.767 489.136 421.127 487.472C420.503 489.216 419.223 490.608 417.543 491.312L416.855 490.24C419.031 489.424 420.455 487.328 420.455 485.088V483.632H421.767V485.088C421.767 487.248 423.239 489.216 425.351 489.984L424.663 491.024ZM428.919 496.864H419.255V492.384H420.567V495.792H428.919V496.864ZM442.39 489.744V497.184H441.078V482.848H442.39V488.656H444.758V489.744H442.39ZM436.166 486.656C436.166 489.168 437.814 491.776 439.814 492.8L438.998 493.84C437.462 493.024 436.166 491.36 435.526 489.376C434.902 491.504 433.574 493.232 431.958 494.128L431.174 493.072C433.238 492 434.87 489.264 434.87 486.656V484.08H436.166V486.656ZM457.813 490.544H456.485V487.328H453.573C453.317 489.04 451.893 490.144 449.909 490.144C447.781 490.144 446.213 488.8 446.213 486.816C446.213 484.848 447.781 483.504 449.909 483.504C451.829 483.504 453.301 484.608 453.557 486.256H456.485V482.848H457.813V490.544ZM449.909 489.056C451.333 489.056 452.357 488.128 452.357 486.816C452.357 485.488 451.333 484.592 449.909 484.592C448.485 484.592 447.461 485.488 447.461 486.816C447.461 488.128 448.485 489.056 449.909 489.056ZM457.813 491.248V496.992H448.629V491.248H449.925V493.056H456.501V491.248H457.813ZM449.925 494.08V495.936H456.501V494.08H449.925ZM462.035 485.424V484.352H471.267V484.368H471.875V485.792C471.875 487.616 471.859 489.68 471.315 492.784L470.003 492.64C470.579 489.712 470.579 487.568 470.579 485.792V485.424H462.035ZM473.619 495.088H460.643V494H473.619V495.088ZM476.898 484.144V483.136H486.61V486.432H478.226V487.776H486.914V488.784H476.93V485.456H485.314V484.144H476.898ZM488.274 490.992H482.418V492.768H481.106V490.992H475.25V489.936H488.274V490.992ZM486.61 491.904V496.992H476.978V491.904H478.29V493.488H485.314V491.904H486.61ZM478.29 494.48V495.968H485.314V494.48H478.29Z" fill="#222222"/>
<rect x="370" y="100" width="165" height="44" rx="8" fill="#12A4C5"/>
<path d="M424.418 122V129.376H422.306V114.64H424.418V120.256H426.562V122H424.418ZM418.29 118.608C418.29 120.848 419.458 123.472 421.874 124.576L420.706 126.24C419.042 125.488 417.922 124.016 417.266 122.272C416.61 124.208 415.426 125.792 413.746 126.608L412.562 124.928C414.978 123.824 416.178 121.04 416.178 118.608V117.792H413.122V116.048H421.218V117.792H418.29V118.608ZM440.865 123.248H427.537V121.568H433.137V120.352H429.153V115.264H439.265V116.944H431.249V118.672H439.345V120.352H435.249V121.568H440.865V123.248ZM434.145 123.968C437.329 123.968 439.265 124.944 439.265 126.688C439.265 128.416 437.329 129.392 434.145 129.392C430.961 129.392 429.041 128.416 429.041 126.688C429.041 124.944 430.961 123.968 434.145 123.968ZM434.145 127.792C436.145 127.792 437.121 127.456 437.121 126.688C437.121 125.936 436.129 125.568 434.145 125.568C432.161 125.568 431.169 125.936 431.169 126.688C431.169 127.456 432.145 127.792 434.145 127.792ZM453.872 122.384V129.376H451.76V114.64H453.872V120.64H455.712V122.384H453.872ZM442.272 117.92V116.256H445.568V114.704H447.68V116.256H450.944V117.92H442.272ZM447.68 125.104C448.832 125.04 449.92 124.976 451.008 124.8L451.168 126.32C448.064 126.912 444.768 126.928 442.256 126.928L442 125.216C443.088 125.216 444.272 125.232 445.568 125.184V123.936C444.032 123.632 443.024 122.624 443.024 121.28C443.024 119.616 444.512 118.496 446.624 118.496C448.736 118.496 450.224 119.616 450.224 121.28C450.224 122.624 449.216 123.632 447.68 123.936V125.104ZM445.024 121.28C445.024 122.048 445.664 122.464 446.624 122.464C447.584 122.464 448.224 122.048 448.224 121.28C448.224 120.512 447.584 120.096 446.624 120.096C445.664 120.096 445.024 120.512 445.024 121.28ZM463.479 116.16V126.016H468.279V128H461.111V116.16H463.479ZM472.282 128.16C470.682 128.16 469.626 127.12 469.626 125.568C469.514 123.376 471.066 122.368 474.778 122.256C474.826 121.872 474.746 121.488 474.57 121.12C474.378 120.848 473.946 120.704 473.258 120.704C472.426 120.704 471.482 121.024 470.666 121.552L469.962 119.872C470.938 119.28 472.282 118.816 473.69 118.816C475.978 118.816 477.13 120.128 477.13 122.768V128H475.21L475.034 127.088H474.986C474.218 127.744 473.306 128.16 472.282 128.16ZM473.002 126.368C473.69 126.352 474.218 126.064 474.778 125.504V123.696C474.218 123.744 473.674 123.792 473.162 123.872C472.138 124.016 471.77 124.528 471.786 125.168C471.802 125.92 472.314 126.368 473.002 126.368ZM483.943 128.224C483.127 128.224 482.295 127.808 481.543 127.056H481.495L481.287 128H479.447V115.232H481.783V118.448L481.735 119.888C482.439 119.248 483.319 118.816 484.215 118.816C486.439 118.816 487.751 120.624 487.751 123.36C487.751 126.432 485.911 128.224 483.943 128.224ZM483.415 126.288C484.503 126.288 485.335 125.392 485.335 123.408C485.335 121.68 484.791 120.752 483.559 120.752C482.935 120.752 482.407 121.056 481.783 121.68V125.616C482.343 126.112 482.919 126.288 483.415 126.288ZM489.44 128.224V125.952H491.776V128.224H489.44Z" fill="white"/>
<path d="M267 44V413" stroke="#DEDEDE"/>
<path d="M370 122L165 122" stroke="#DEDEDE"/>
<path d="M370 223L165 223" stroke="#DEDEDE"/>
</svg>
